M48
; DRILL file {KiCad (7.0.0-0)} date Wednesday, May 03, 2023 at 08:53:52 PM
; FORMAT={-:-/ absolute / metric / decimal}
; #@! TF.CreationDate,2023-05-03T20:53:52-04:00
; #@! TF.GenerationSoftware,Kicad,Pcbnew,(7.0.0-0)
; #@! TF.FileFunction,Plated,1,2,PTH
FMAT,2
METRIC
; #@! TA.AperFunction,Plated,PTH,ViaDrill
T1C0.400
; #@! TA.AperFunction,Plated,PTH,ComponentDrill
T2C0.450
; #@! TA.AperFunction,Plated,PTH,ComponentDrill
T3C0.750
; #@! TA.AperFunction,Plated,PTH,ComponentDrill
T4C0.800
; #@! TA.AperFunction,Plated,PTH,ComponentDrill
T5C0.900
; #@! TA.AperFunction,Plated,PTH,ComponentDrill
T6C1.000
; #@! TA.AperFunction,Plated,PTH,ComponentDrill
T7C1.200
; #@! TA.AperFunction,Plated,PTH,ComponentDrill
T8C3.200
%
G90
G05
T1
X91.95Y-94.65
X99.15Y-79.9
X99.75Y-78.5
X99.75Y-113.25
X103.35Y-97.35
X113.75Y-71.15
X115.7Y-98.65
X115.7Y-101.2
X117.55Y-92.15
X117.75Y-103.8
X119.1Y-94.85
X119.4Y-103.8
X122.2Y-106.9
X124.2Y-65.95
X124.35Y-101.15
X126.35Y-95.95
X129.45Y-63.3
X130.5Y-89.95
X135.75Y-103.35
X136.35Y-64.7
X136.5Y-89.4
X139.0Y-102.6
X139.3Y-74.95
X140.0Y-80.25
X140.05Y-84.2
X140.65Y-90.85
X140.65Y-92.05
X141.05Y-104.65
X141.5Y-77.15
X142.55Y-98.8
X142.9Y-101.5
X143.8Y-92.45
X145.55Y-102.6
X146.35Y-100.65
X146.35Y-106.9
X146.85Y-101.9
X147.1Y-97.45
X147.4Y-95.55
X148.0Y-86.1
X148.6Y-106.7
X148.8Y-100.35
X149.0Y-91.15
X149.2Y-93.7
X149.55Y-85.4
X150.05Y-94.65
X150.3Y-92.35
X150.35Y-86.1
X150.5Y-82.75
X151.5Y-102.9
X152.0Y-96.5
X152.1Y-89.75
X152.1Y-92.15
X153.02Y-101.9
X153.05Y-99.8
X153.25Y-103.5
X154.72Y-99.8
X155.3Y-91.65
X155.65Y-98.15
X156.3Y-92.45
X156.35Y-94.8
X156.4Y-78.55
X158.5Y-93.7
X159.35Y-107.8
X160.75Y-106.7
X171.55Y-96.0
X171.55Y-98.55
X172.35Y-87.15
X173.55Y-91.8
X176.5Y-98.55
X176.5Y-101.15
X180.25Y-99.8
X180.25Y-102.35
X180.4Y-153.4
X204.5Y-148.5
X204.75Y-43.5
X204.75Y-78.5
X206.4Y-79.1
T3
X111.73Y-45.1
X111.73Y-80.1
X111.73Y-115.1
X111.73Y-150.15
X113.0Y-45.1
X113.0Y-80.1
X113.0Y-115.1
X113.0Y-150.15
X114.27Y-45.1
X114.27Y-80.1
X114.27Y-115.1
X114.27Y-150.15
X181.68Y-45.15
X181.68Y-80.15
X181.68Y-115.15
X181.68Y-150.15
X182.95Y-45.15
X182.95Y-80.15
X182.95Y-115.15
X182.95Y-150.15
X184.22Y-45.15
X184.22Y-80.15
X184.22Y-115.15
X184.22Y-150.15
T4
X90.37Y-52.0
X90.37Y-87.0
X90.37Y-122.0
X90.37Y-157.0
X100.53Y-52.0
X100.53Y-87.0
X100.53Y-122.0
X100.53Y-157.0
X107.98Y-52.0
X107.98Y-87.0
X107.98Y-122.0
X107.98Y-157.0
X118.14Y-52.0
X118.14Y-87.0
X118.14Y-122.0
X118.14Y-157.0
X125.42Y-52.0
X125.42Y-87.0
X125.42Y-122.0
X125.42Y-157.0
X135.58Y-52.0
X135.58Y-87.0
X135.58Y-122.0
X135.58Y-157.0
X146.582Y-78.6
X149.082Y-78.6
X160.42Y-52.0
X160.42Y-87.0
X160.42Y-122.0
X160.42Y-157.0
X170.58Y-52.0
X170.58Y-87.0
X170.58Y-122.0
X170.58Y-157.0
X177.92Y-52.0
X177.92Y-87.0
X177.92Y-122.0
X177.92Y-157.0
X188.08Y-52.0
X188.08Y-87.0
X188.08Y-122.0
X188.08Y-157.0
X195.42Y-52.0
X195.42Y-87.0
X195.42Y-122.0
X195.42Y-157.0
X205.58Y-52.0
X205.58Y-87.0
X205.58Y-122.0
X205.58Y-157.0
T5
X91.55Y-47.65
X91.55Y-82.65
X91.55Y-117.65
X91.55Y-152.65
X94.09Y-47.65
X94.09Y-82.65
X94.09Y-117.65
X94.09Y-152.65
X96.8Y-47.65
X96.8Y-82.65
X96.8Y-117.65
X96.8Y-152.65
X99.34Y-47.65
X99.34Y-82.65
X99.34Y-117.65
X99.34Y-152.65
X126.55Y-47.65
X126.55Y-82.65
X126.55Y-117.65
X126.55Y-152.65
X129.09Y-47.65
X129.09Y-82.65
X129.09Y-117.65
X129.09Y-152.65
X131.8Y-47.65
X131.8Y-82.65
X131.8Y-117.65
X131.8Y-152.65
X134.34Y-47.65
X134.34Y-82.65
X134.34Y-117.65
X134.34Y-152.65
X161.55Y-47.65
X161.55Y-82.65
X161.55Y-117.65
X161.55Y-152.65
X164.09Y-47.65
X164.09Y-82.65
X164.09Y-117.65
X164.09Y-152.65
X166.8Y-47.65
X166.8Y-82.65
X166.8Y-117.65
X166.8Y-152.65
X169.34Y-47.65
X169.34Y-82.65
X169.34Y-117.65
X169.34Y-152.65
X196.55Y-47.65
X196.55Y-82.65
X196.55Y-117.65
X196.55Y-152.65
X199.09Y-47.65
X199.09Y-82.65
X199.09Y-117.65
X199.09Y-152.65
X201.8Y-47.65
X201.8Y-82.65
X201.8Y-117.65
X201.8Y-152.65
X204.34Y-47.65
X204.34Y-82.65
X204.34Y-117.65
X204.34Y-152.65
T6
X81.6Y-89.5
X81.6Y-92.04
X81.6Y-94.58
X81.6Y-97.12
X143.0Y-34.025
X143.0Y-159.5
X145.54Y-34.025
X145.54Y-159.5
X148.08Y-34.025
X148.08Y-159.5
X150.62Y-34.025
X150.62Y-159.5
X154.945Y-102.225
X154.945Y-104.765
X157.485Y-102.225
X157.485Y-104.765
X160.025Y-102.225
X160.025Y-104.765
X207.125Y-89.5
X207.125Y-92.04
X207.125Y-94.58
X207.125Y-97.12
T7
X141.6Y-63.55
X145.1Y-63.55
X151.6Y-63.55
X155.1Y-63.55
T8
X83.0Y-28.0
X83.0Y-158.0
X213.0Y-28.0
X213.0Y-158.0
T2
X134.0Y-162.1G85X134.0Y-161.3
G05
X141.15Y-161.3G85X141.15Y-162.1
G05
T0
M30
