%TF.GenerationSoftware,KiCad,Pcbnew,(7.0.0-0)*%
%TF.CreationDate,2023-05-03T20:54:05-04:00*%
%TF.ProjectId,InteractiveLEDs,496e7465-7261-4637-9469-76654c454473,rev?*%
%TF.SameCoordinates,Original*%
%TF.FileFunction,Drillmap*%
%TF.FilePolarity,Positive*%
%FSLAX45Y45*%
G04 Gerber Fmt 4.5, Leading zero omitted, Abs format (unit mm)*
G04 Created by KiCad (PCBNEW (7.0.0-0)) date 2023-05-03 20:54:05*
%MOMM*%
%LPD*%
G01*
G04 APERTURE LIST*
%ADD10C,0.100000*%
%ADD11C,0.200000*%
G04 APERTURE END LIST*
D10*
X7795000Y-2315000D02*
X21795000Y-2315000D01*
X21795000Y-2315000D02*
X21795000Y-16315000D01*
X21795000Y-16315000D02*
X7795000Y-16315000D01*
X7795000Y-16315000D02*
X7795000Y-2315000D01*
D11*
X8037619Y-16613476D02*
X8037619Y-16413476D01*
X8037619Y-16413476D02*
X8085238Y-16413476D01*
X8085238Y-16413476D02*
X8113809Y-16423000D01*
X8113809Y-16423000D02*
X8132857Y-16442048D01*
X8132857Y-16442048D02*
X8142381Y-16461095D01*
X8142381Y-16461095D02*
X8151905Y-16499190D01*
X8151905Y-16499190D02*
X8151905Y-16527762D01*
X8151905Y-16527762D02*
X8142381Y-16565857D01*
X8142381Y-16565857D02*
X8132857Y-16584905D01*
X8132857Y-16584905D02*
X8113809Y-16603952D01*
X8113809Y-16603952D02*
X8085238Y-16613476D01*
X8085238Y-16613476D02*
X8037619Y-16613476D01*
X8237619Y-16613476D02*
X8237619Y-16480143D01*
X8237619Y-16518238D02*
X8247143Y-16499190D01*
X8247143Y-16499190D02*
X8256667Y-16489667D01*
X8256667Y-16489667D02*
X8275714Y-16480143D01*
X8275714Y-16480143D02*
X8294762Y-16480143D01*
X8361428Y-16613476D02*
X8361428Y-16480143D01*
X8361428Y-16413476D02*
X8351905Y-16423000D01*
X8351905Y-16423000D02*
X8361428Y-16432524D01*
X8361428Y-16432524D02*
X8370952Y-16423000D01*
X8370952Y-16423000D02*
X8361428Y-16413476D01*
X8361428Y-16413476D02*
X8361428Y-16432524D01*
X8485238Y-16613476D02*
X8466190Y-16603952D01*
X8466190Y-16603952D02*
X8456667Y-16584905D01*
X8456667Y-16584905D02*
X8456667Y-16413476D01*
X8590000Y-16613476D02*
X8570952Y-16603952D01*
X8570952Y-16603952D02*
X8561429Y-16584905D01*
X8561429Y-16584905D02*
X8561429Y-16413476D01*
X8786190Y-16613476D02*
X8786190Y-16413476D01*
X8786190Y-16413476D02*
X8852857Y-16556333D01*
X8852857Y-16556333D02*
X8919524Y-16413476D01*
X8919524Y-16413476D02*
X8919524Y-16613476D01*
X9100476Y-16613476D02*
X9100476Y-16508714D01*
X9100476Y-16508714D02*
X9090952Y-16489667D01*
X9090952Y-16489667D02*
X9071905Y-16480143D01*
X9071905Y-16480143D02*
X9033809Y-16480143D01*
X9033809Y-16480143D02*
X9014762Y-16489667D01*
X9100476Y-16603952D02*
X9081429Y-16613476D01*
X9081429Y-16613476D02*
X9033809Y-16613476D01*
X9033809Y-16613476D02*
X9014762Y-16603952D01*
X9014762Y-16603952D02*
X9005238Y-16584905D01*
X9005238Y-16584905D02*
X9005238Y-16565857D01*
X9005238Y-16565857D02*
X9014762Y-16546809D01*
X9014762Y-16546809D02*
X9033809Y-16537286D01*
X9033809Y-16537286D02*
X9081429Y-16537286D01*
X9081429Y-16537286D02*
X9100476Y-16527762D01*
X9195714Y-16480143D02*
X9195714Y-16680143D01*
X9195714Y-16489667D02*
X9214762Y-16480143D01*
X9214762Y-16480143D02*
X9252857Y-16480143D01*
X9252857Y-16480143D02*
X9271905Y-16489667D01*
X9271905Y-16489667D02*
X9281429Y-16499190D01*
X9281429Y-16499190D02*
X9290952Y-16518238D01*
X9290952Y-16518238D02*
X9290952Y-16575381D01*
X9290952Y-16575381D02*
X9281429Y-16594428D01*
X9281429Y-16594428D02*
X9271905Y-16603952D01*
X9271905Y-16603952D02*
X9252857Y-16613476D01*
X9252857Y-16613476D02*
X9214762Y-16613476D01*
X9214762Y-16613476D02*
X9195714Y-16603952D01*
X9376667Y-16594428D02*
X9386190Y-16603952D01*
X9386190Y-16603952D02*
X9376667Y-16613476D01*
X9376667Y-16613476D02*
X9367143Y-16603952D01*
X9367143Y-16603952D02*
X9376667Y-16594428D01*
X9376667Y-16594428D02*
X9376667Y-16613476D01*
X9376667Y-16489667D02*
X9386190Y-16499190D01*
X9386190Y-16499190D02*
X9376667Y-16508714D01*
X9376667Y-16508714D02*
X9367143Y-16499190D01*
X9367143Y-16499190D02*
X9376667Y-16489667D01*
X9376667Y-16489667D02*
X9376667Y-16508714D01*
M02*
