%TF.GenerationSoftware,KiCad,Pcbnew,(7.0.0-0)*%
%TF.CreationDate,2023-05-03T20:54:05-04:00*%
%TF.ProjectId,InteractiveLEDs,496e7465-7261-4637-9469-76654c454473,rev?*%
%TF.SameCoordinates,Original*%
%TF.FileFunction,Drillmap*%
%TF.FilePolarity,Positive*%
%FSLAX45Y45*%
G04 Gerber Fmt 4.5, Leading zero omitted, Abs format (unit mm)*
G04 Created by KiCad (PCBNEW (7.0.0-0)) date 2023-05-03 20:54:05*
%MOMM*%
%LPD*%
G01*
G04 APERTURE LIST*
%ADD10C,0.100000*%
%ADD11C,0.200000*%
%ADD12C,0.040000*%
%ADD13C,0.045000*%
%ADD14C,0.075000*%
%ADD15C,0.080000*%
%ADD16C,0.090000*%
%ADD17C,0.120000*%
%ADD18C,0.320000*%
G04 APERTURE END LIST*
D10*
X7795000Y-2315000D02*
X21795000Y-2315000D01*
X21795000Y-2315000D02*
X21795000Y-16315000D01*
X21795000Y-16315000D02*
X7795000Y-16315000D01*
X7795000Y-16315000D02*
X7795000Y-2315000D01*
D11*
D12*
X9175000Y-9445000D02*
X9215000Y-9485000D01*
X9215000Y-9445000D02*
X9175000Y-9485000D01*
X9895000Y-7970000D02*
X9935000Y-8010000D01*
X9935000Y-7970000D02*
X9895000Y-8010000D01*
X9955000Y-7830000D02*
X9995000Y-7870000D01*
X9995000Y-7830000D02*
X9955000Y-7870000D01*
X9955000Y-11305000D02*
X9995000Y-11345000D01*
X9995000Y-11305000D02*
X9955000Y-11345000D01*
X10315000Y-9715000D02*
X10355000Y-9755000D01*
X10355000Y-9715000D02*
X10315000Y-9755000D01*
X11355000Y-7095000D02*
X11395000Y-7135000D01*
X11395000Y-7095000D02*
X11355000Y-7135000D01*
X11550000Y-9845000D02*
X11590000Y-9885000D01*
X11590000Y-9845000D02*
X11550000Y-9885000D01*
X11550000Y-10100000D02*
X11590000Y-10140000D01*
X11590000Y-10100000D02*
X11550000Y-10140000D01*
X11735000Y-9195000D02*
X11775000Y-9235000D01*
X11775000Y-9195000D02*
X11735000Y-9235000D01*
X11755000Y-10360000D02*
X11795000Y-10400000D01*
X11795000Y-10360000D02*
X11755000Y-10400000D01*
X11890000Y-9465000D02*
X11930000Y-9505000D01*
X11930000Y-9465000D02*
X11890000Y-9505000D01*
X11920000Y-10360000D02*
X11960000Y-10400000D01*
X11960000Y-10360000D02*
X11920000Y-10400000D01*
X12200000Y-10670000D02*
X12240000Y-10710000D01*
X12240000Y-10670000D02*
X12200000Y-10710000D01*
X12400000Y-6575000D02*
X12440000Y-6615000D01*
X12440000Y-6575000D02*
X12400000Y-6615000D01*
X12415000Y-10095000D02*
X12455000Y-10135000D01*
X12455000Y-10095000D02*
X12415000Y-10135000D01*
X12615000Y-9575000D02*
X12655000Y-9615000D01*
X12655000Y-9575000D02*
X12615000Y-9615000D01*
X12925000Y-6310000D02*
X12965000Y-6350000D01*
X12965000Y-6310000D02*
X12925000Y-6350000D01*
X13030000Y-8975000D02*
X13070000Y-9015000D01*
X13070000Y-8975000D02*
X13030000Y-9015000D01*
X13555000Y-10315000D02*
X13595000Y-10355000D01*
X13595000Y-10315000D02*
X13555000Y-10355000D01*
X13615000Y-6450000D02*
X13655000Y-6490000D01*
X13655000Y-6450000D02*
X13615000Y-6490000D01*
X13630000Y-8920000D02*
X13670000Y-8960000D01*
X13670000Y-8920000D02*
X13630000Y-8960000D01*
X13880000Y-10240000D02*
X13920000Y-10280000D01*
X13920000Y-10240000D02*
X13880000Y-10280000D01*
X13910000Y-7475000D02*
X13950000Y-7515000D01*
X13950000Y-7475000D02*
X13910000Y-7515000D01*
X13980000Y-8005000D02*
X14020000Y-8045000D01*
X14020000Y-8005000D02*
X13980000Y-8045000D01*
X13985000Y-8400000D02*
X14025000Y-8440000D01*
X14025000Y-8400000D02*
X13985000Y-8440000D01*
X14045000Y-9065000D02*
X14085000Y-9105000D01*
X14085000Y-9065000D02*
X14045000Y-9105000D01*
X14045000Y-9185000D02*
X14085000Y-9225000D01*
X14085000Y-9185000D02*
X14045000Y-9225000D01*
X14085000Y-10445000D02*
X14125000Y-10485000D01*
X14125000Y-10445000D02*
X14085000Y-10485000D01*
X14130000Y-7695000D02*
X14170000Y-7735000D01*
X14170000Y-7695000D02*
X14130000Y-7735000D01*
X14235000Y-9860000D02*
X14275000Y-9900000D01*
X14275000Y-9860000D02*
X14235000Y-9900000D01*
X14270000Y-10130000D02*
X14310000Y-10170000D01*
X14310000Y-10130000D02*
X14270000Y-10170000D01*
X14360000Y-9225000D02*
X14400000Y-9265000D01*
X14400000Y-9225000D02*
X14360000Y-9265000D01*
X14535000Y-10240000D02*
X14575000Y-10280000D01*
X14575000Y-10240000D02*
X14535000Y-10280000D01*
X14615000Y-10045000D02*
X14655000Y-10085000D01*
X14655000Y-10045000D02*
X14615000Y-10085000D01*
X14615000Y-10670000D02*
X14655000Y-10710000D01*
X14655000Y-10670000D02*
X14615000Y-10710000D01*
X14665000Y-10170000D02*
X14705000Y-10210000D01*
X14705000Y-10170000D02*
X14665000Y-10210000D01*
X14690000Y-9725000D02*
X14730000Y-9765000D01*
X14730000Y-9725000D02*
X14690000Y-9765000D01*
X14720000Y-9535000D02*
X14760000Y-9575000D01*
X14760000Y-9535000D02*
X14720000Y-9575000D01*
X14780000Y-8590000D02*
X14820000Y-8630000D01*
X14820000Y-8590000D02*
X14780000Y-8630000D01*
X14840000Y-10650000D02*
X14880000Y-10690000D01*
X14880000Y-10650000D02*
X14840000Y-10690000D01*
X14860000Y-10015000D02*
X14900000Y-10055000D01*
X14900000Y-10015000D02*
X14860000Y-10055000D01*
X14880000Y-9095000D02*
X14920000Y-9135000D01*
X14920000Y-9095000D02*
X14880000Y-9135000D01*
X14900000Y-9350000D02*
X14940000Y-9390000D01*
X14940000Y-9350000D02*
X14900000Y-9390000D01*
X14935000Y-8520000D02*
X14975000Y-8560000D01*
X14975000Y-8520000D02*
X14935000Y-8560000D01*
X14985000Y-9445000D02*
X15025000Y-9485000D01*
X15025000Y-9445000D02*
X14985000Y-9485000D01*
X15010000Y-9215000D02*
X15050000Y-9255000D01*
X15050000Y-9215000D02*
X15010000Y-9255000D01*
X15015000Y-8590000D02*
X15055000Y-8630000D01*
X15055000Y-8590000D02*
X15015000Y-8630000D01*
X15030000Y-8255000D02*
X15070000Y-8295000D01*
X15070000Y-8255000D02*
X15030000Y-8295000D01*
X15130000Y-10270000D02*
X15170000Y-10310000D01*
X15170000Y-10270000D02*
X15130000Y-10310000D01*
X15180000Y-9630000D02*
X15220000Y-9670000D01*
X15220000Y-9630000D02*
X15180000Y-9670000D01*
X15190000Y-8955000D02*
X15230000Y-8995000D01*
X15230000Y-8955000D02*
X15190000Y-8995000D01*
X15190000Y-9195000D02*
X15230000Y-9235000D01*
X15230000Y-9195000D02*
X15190000Y-9235000D01*
X15282000Y-10170000D02*
X15322000Y-10210000D01*
X15322000Y-10170000D02*
X15282000Y-10210000D01*
X15285000Y-9960000D02*
X15325000Y-10000000D01*
X15325000Y-9960000D02*
X15285000Y-10000000D01*
X15305000Y-10330000D02*
X15345000Y-10370000D01*
X15345000Y-10330000D02*
X15305000Y-10370000D01*
X15452000Y-9960000D02*
X15492000Y-10000000D01*
X15492000Y-9960000D02*
X15452000Y-10000000D01*
X15510000Y-9145000D02*
X15550000Y-9185000D01*
X15550000Y-9145000D02*
X15510000Y-9185000D01*
X15545000Y-9795000D02*
X15585000Y-9835000D01*
X15585000Y-9795000D02*
X15545000Y-9835000D01*
X15610000Y-9225000D02*
X15650000Y-9265000D01*
X15650000Y-9225000D02*
X15610000Y-9265000D01*
X15615000Y-9460000D02*
X15655000Y-9500000D01*
X15655000Y-9460000D02*
X15615000Y-9500000D01*
X15620000Y-7835000D02*
X15660000Y-7875000D01*
X15660000Y-7835000D02*
X15620000Y-7875000D01*
X15830000Y-9350000D02*
X15870000Y-9390000D01*
X15870000Y-9350000D02*
X15830000Y-9390000D01*
X15915000Y-10760000D02*
X15955000Y-10800000D01*
X15955000Y-10760000D02*
X15915000Y-10800000D01*
X16055000Y-10650000D02*
X16095000Y-10690000D01*
X16095000Y-10650000D02*
X16055000Y-10690000D01*
X17135000Y-9580000D02*
X17175000Y-9620000D01*
X17175000Y-9580000D02*
X17135000Y-9620000D01*
X17135000Y-9835000D02*
X17175000Y-9875000D01*
X17175000Y-9835000D02*
X17135000Y-9875000D01*
X17215000Y-8695000D02*
X17255000Y-8735000D01*
X17255000Y-8695000D02*
X17215000Y-8735000D01*
X17335000Y-9160000D02*
X17375000Y-9200000D01*
X17375000Y-9160000D02*
X17335000Y-9200000D01*
X17630000Y-9835000D02*
X17670000Y-9875000D01*
X17670000Y-9835000D02*
X17630000Y-9875000D01*
X17630000Y-10095000D02*
X17670000Y-10135000D01*
X17670000Y-10095000D02*
X17630000Y-10135000D01*
X18005000Y-9960000D02*
X18045000Y-10000000D01*
X18045000Y-9960000D02*
X18005000Y-10000000D01*
X18005000Y-10215000D02*
X18045000Y-10255000D01*
X18045000Y-10215000D02*
X18005000Y-10255000D01*
X18020000Y-15320000D02*
X18060000Y-15360000D01*
X18060000Y-15320000D02*
X18020000Y-15360000D01*
X20430000Y-14830000D02*
X20470000Y-14870000D01*
X20470000Y-14830000D02*
X20430000Y-14870000D01*
X20455000Y-4330000D02*
X20495000Y-4370000D01*
X20495000Y-4330000D02*
X20455000Y-4370000D01*
X20455000Y-7830000D02*
X20495000Y-7870000D01*
X20495000Y-7830000D02*
X20455000Y-7870000D01*
X20620000Y-7890000D02*
X20660000Y-7930000D01*
X20660000Y-7890000D02*
X20620000Y-7930000D01*
D13*
X13422500Y-16170000D02*
G75*
G03*
X13422500Y-16170000I-22500J0D01*
G01*
D11*
X13422500Y-16210000D02*
X13422500Y-16130000D01*
X13422500Y-16130000D02*
G75*
G03*
X13377500Y-16130000I-22500J0D01*
G01*
X13377500Y-16130000D02*
X13377500Y-16210000D01*
X13377500Y-16210000D02*
G75*
G03*
X13422500Y-16210000I22500J0D01*
G01*
D13*
X14137500Y-16170000D02*
G75*
G03*
X14137500Y-16170000I-22500J0D01*
G01*
D11*
X14092500Y-16130000D02*
X14092500Y-16210000D01*
X14092500Y-16210000D02*
G75*
G03*
X14137500Y-16210000I22500J0D01*
G01*
X14137500Y-16210000D02*
X14137500Y-16130000D01*
X14137500Y-16130000D02*
G75*
G03*
X14092500Y-16130000I-22500J0D01*
G01*
D14*
X11173000Y-4472500D02*
X11173000Y-4547500D01*
X11135500Y-4510000D02*
X11210500Y-4510000D01*
X11173000Y-7972500D02*
X11173000Y-8047500D01*
X11135500Y-8010000D02*
X11210500Y-8010000D01*
X11173000Y-11472500D02*
X11173000Y-11547500D01*
X11135500Y-11510000D02*
X11210500Y-11510000D01*
X11173000Y-14977500D02*
X11173000Y-15052500D01*
X11135500Y-15015000D02*
X11210500Y-15015000D01*
X11300000Y-4472500D02*
X11300000Y-4547500D01*
X11262500Y-4510000D02*
X11337500Y-4510000D01*
X11300000Y-7972500D02*
X11300000Y-8047500D01*
X11262500Y-8010000D02*
X11337500Y-8010000D01*
X11300000Y-11472500D02*
X11300000Y-11547500D01*
X11262500Y-11510000D02*
X11337500Y-11510000D01*
X11300000Y-14977500D02*
X11300000Y-15052500D01*
X11262500Y-15015000D02*
X11337500Y-15015000D01*
X11427000Y-4472500D02*
X11427000Y-4547500D01*
X11389500Y-4510000D02*
X11464500Y-4510000D01*
X11427000Y-7972500D02*
X11427000Y-8047500D01*
X11389500Y-8010000D02*
X11464500Y-8010000D01*
X11427000Y-11472500D02*
X11427000Y-11547500D01*
X11389500Y-11510000D02*
X11464500Y-11510000D01*
X11427000Y-14977500D02*
X11427000Y-15052500D01*
X11389500Y-15015000D02*
X11464500Y-15015000D01*
X18168000Y-4477500D02*
X18168000Y-4552500D01*
X18130500Y-4515000D02*
X18205500Y-4515000D01*
X18168000Y-7977500D02*
X18168000Y-8052500D01*
X18130500Y-8015000D02*
X18205500Y-8015000D01*
X18168000Y-11477500D02*
X18168000Y-11552500D01*
X18130500Y-11515000D02*
X18205500Y-11515000D01*
X18168000Y-14977500D02*
X18168000Y-15052500D01*
X18130500Y-15015000D02*
X18205500Y-15015000D01*
X18295000Y-4477500D02*
X18295000Y-4552500D01*
X18257500Y-4515000D02*
X18332500Y-4515000D01*
X18295000Y-7977500D02*
X18295000Y-8052500D01*
X18257500Y-8015000D02*
X18332500Y-8015000D01*
X18295000Y-11477500D02*
X18295000Y-11552500D01*
X18257500Y-11515000D02*
X18332500Y-11515000D01*
X18295000Y-14977500D02*
X18295000Y-15052500D01*
X18257500Y-15015000D02*
X18332500Y-15015000D01*
X18422000Y-4477500D02*
X18422000Y-4552500D01*
X18384500Y-4515000D02*
X18459500Y-4515000D01*
X18422000Y-7977500D02*
X18422000Y-8052500D01*
X18384500Y-8015000D02*
X18459500Y-8015000D01*
X18422000Y-11477500D02*
X18422000Y-11552500D01*
X18384500Y-11515000D02*
X18459500Y-11515000D01*
X18422000Y-14977500D02*
X18422000Y-15052500D01*
X18384500Y-15015000D02*
X18459500Y-15015000D01*
D15*
X9065285Y-5228285D02*
X9065285Y-5171716D01*
X9008716Y-5171716D01*
X9008716Y-5228285D01*
X9065285Y-5228285D01*
X9065285Y-8728285D02*
X9065285Y-8671716D01*
X9008716Y-8671716D01*
X9008716Y-8728285D01*
X9065285Y-8728285D01*
X9065285Y-12228284D02*
X9065285Y-12171715D01*
X9008716Y-12171715D01*
X9008716Y-12228284D01*
X9065285Y-12228284D01*
X9065285Y-15728284D02*
X9065285Y-15671715D01*
X9008716Y-15671715D01*
X9008716Y-15728284D01*
X9065285Y-15728284D01*
X10081285Y-5228285D02*
X10081285Y-5171716D01*
X10024716Y-5171716D01*
X10024716Y-5228285D01*
X10081285Y-5228285D01*
X10081285Y-8728285D02*
X10081285Y-8671716D01*
X10024716Y-8671716D01*
X10024716Y-8728285D01*
X10081285Y-8728285D01*
X10081285Y-12228284D02*
X10081285Y-12171715D01*
X10024716Y-12171715D01*
X10024716Y-12228284D01*
X10081285Y-12228284D01*
X10081285Y-15728284D02*
X10081285Y-15671715D01*
X10024716Y-15671715D01*
X10024716Y-15728284D01*
X10081285Y-15728284D01*
X10826285Y-5228285D02*
X10826285Y-5171716D01*
X10769716Y-5171716D01*
X10769716Y-5228285D01*
X10826285Y-5228285D01*
X10826285Y-8728285D02*
X10826285Y-8671716D01*
X10769716Y-8671716D01*
X10769716Y-8728285D01*
X10826285Y-8728285D01*
X10826285Y-12228284D02*
X10826285Y-12171715D01*
X10769716Y-12171715D01*
X10769716Y-12228284D01*
X10826285Y-12228284D01*
X10826285Y-15728284D02*
X10826285Y-15671715D01*
X10769716Y-15671715D01*
X10769716Y-15728284D01*
X10826285Y-15728284D01*
X11842284Y-5228285D02*
X11842284Y-5171716D01*
X11785715Y-5171716D01*
X11785715Y-5228285D01*
X11842284Y-5228285D01*
X11842284Y-8728285D02*
X11842284Y-8671716D01*
X11785715Y-8671716D01*
X11785715Y-8728285D01*
X11842284Y-8728285D01*
X11842284Y-12228284D02*
X11842284Y-12171715D01*
X11785715Y-12171715D01*
X11785715Y-12228284D01*
X11842284Y-12228284D01*
X11842284Y-15728284D02*
X11842284Y-15671715D01*
X11785715Y-15671715D01*
X11785715Y-15728284D01*
X11842284Y-15728284D01*
X12570284Y-5228285D02*
X12570284Y-5171716D01*
X12513715Y-5171716D01*
X12513715Y-5228285D01*
X12570284Y-5228285D01*
X12570284Y-8728285D02*
X12570284Y-8671716D01*
X12513715Y-8671716D01*
X12513715Y-8728285D01*
X12570284Y-8728285D01*
X12570284Y-12228284D02*
X12570284Y-12171715D01*
X12513715Y-12171715D01*
X12513715Y-12228284D01*
X12570284Y-12228284D01*
X12570284Y-15728284D02*
X12570284Y-15671715D01*
X12513715Y-15671715D01*
X12513715Y-15728284D01*
X12570284Y-15728284D01*
X13586284Y-5228285D02*
X13586284Y-5171716D01*
X13529715Y-5171716D01*
X13529715Y-5228285D01*
X13586284Y-5228285D01*
X13586284Y-8728285D02*
X13586284Y-8671716D01*
X13529715Y-8671716D01*
X13529715Y-8728285D01*
X13586284Y-8728285D01*
X13586284Y-12228284D02*
X13586284Y-12171715D01*
X13529715Y-12171715D01*
X13529715Y-12228284D01*
X13586284Y-12228284D01*
X13586284Y-15728284D02*
X13586284Y-15671715D01*
X13529715Y-15671715D01*
X13529715Y-15728284D01*
X13586284Y-15728284D01*
X14686522Y-7888284D02*
X14686522Y-7831715D01*
X14629953Y-7831715D01*
X14629953Y-7888284D01*
X14686522Y-7888284D01*
X14936522Y-7888284D02*
X14936522Y-7831715D01*
X14879953Y-7831715D01*
X14879953Y-7888284D01*
X14936522Y-7888284D01*
X16070284Y-5228285D02*
X16070284Y-5171716D01*
X16013715Y-5171716D01*
X16013715Y-5228285D01*
X16070284Y-5228285D01*
X16070284Y-8728285D02*
X16070284Y-8671716D01*
X16013715Y-8671716D01*
X16013715Y-8728285D01*
X16070284Y-8728285D01*
X16070284Y-12228284D02*
X16070284Y-12171715D01*
X16013715Y-12171715D01*
X16013715Y-12228284D01*
X16070284Y-12228284D01*
X16070284Y-15728284D02*
X16070284Y-15671715D01*
X16013715Y-15671715D01*
X16013715Y-15728284D01*
X16070284Y-15728284D01*
X17086285Y-5228285D02*
X17086285Y-5171716D01*
X17029716Y-5171716D01*
X17029716Y-5228285D01*
X17086285Y-5228285D01*
X17086285Y-8728285D02*
X17086285Y-8671716D01*
X17029716Y-8671716D01*
X17029716Y-8728285D01*
X17086285Y-8728285D01*
X17086285Y-12228284D02*
X17086285Y-12171715D01*
X17029716Y-12171715D01*
X17029716Y-12228284D01*
X17086285Y-12228284D01*
X17086285Y-15728284D02*
X17086285Y-15671715D01*
X17029716Y-15671715D01*
X17029716Y-15728284D01*
X17086285Y-15728284D01*
X17820285Y-5228285D02*
X17820285Y-5171716D01*
X17763716Y-5171716D01*
X17763716Y-5228285D01*
X17820285Y-5228285D01*
X17820285Y-8728285D02*
X17820285Y-8671716D01*
X17763716Y-8671716D01*
X17763716Y-8728285D01*
X17820285Y-8728285D01*
X17820285Y-12228284D02*
X17820285Y-12171715D01*
X17763716Y-12171715D01*
X17763716Y-12228284D01*
X17820285Y-12228284D01*
X17820285Y-15728284D02*
X17820285Y-15671715D01*
X17763716Y-15671715D01*
X17763716Y-15728284D01*
X17820285Y-15728284D01*
X18836285Y-5228285D02*
X18836285Y-5171716D01*
X18779716Y-5171716D01*
X18779716Y-5228285D01*
X18836285Y-5228285D01*
X18836285Y-8728285D02*
X18836285Y-8671716D01*
X18779716Y-8671716D01*
X18779716Y-8728285D01*
X18836285Y-8728285D01*
X18836285Y-12228284D02*
X18836285Y-12171715D01*
X18779716Y-12171715D01*
X18779716Y-12228284D01*
X18836285Y-12228284D01*
X18836285Y-15728284D02*
X18836285Y-15671715D01*
X18779716Y-15671715D01*
X18779716Y-15728284D01*
X18836285Y-15728284D01*
X19570285Y-5228285D02*
X19570285Y-5171716D01*
X19513716Y-5171716D01*
X19513716Y-5228285D01*
X19570285Y-5228285D01*
X19570285Y-8728285D02*
X19570285Y-8671716D01*
X19513716Y-8671716D01*
X19513716Y-8728285D01*
X19570285Y-8728285D01*
X19570285Y-12228284D02*
X19570285Y-12171715D01*
X19513716Y-12171715D01*
X19513716Y-12228284D01*
X19570285Y-12228284D01*
X19570285Y-15728284D02*
X19570285Y-15671715D01*
X19513716Y-15671715D01*
X19513716Y-15728284D01*
X19570285Y-15728284D01*
X20586285Y-5228285D02*
X20586285Y-5171716D01*
X20529716Y-5171716D01*
X20529716Y-5228285D01*
X20586285Y-5228285D01*
X20586285Y-8728285D02*
X20586285Y-8671716D01*
X20529716Y-8671716D01*
X20529716Y-8728285D01*
X20586285Y-8728285D01*
X20586285Y-12228284D02*
X20586285Y-12171715D01*
X20529716Y-12171715D01*
X20529716Y-12228284D01*
X20586285Y-12228284D01*
X20586285Y-15728284D02*
X20586285Y-15671715D01*
X20529716Y-15671715D01*
X20529716Y-15728284D01*
X20586285Y-15728284D01*
D16*
X9155000Y-4810000D02*
X9200000Y-4765000D01*
X9155000Y-4720000D01*
X9110000Y-4765000D01*
X9155000Y-4810000D01*
X9155000Y-8310000D02*
X9200000Y-8265000D01*
X9155000Y-8220000D01*
X9110000Y-8265000D01*
X9155000Y-8310000D01*
X9155000Y-11810000D02*
X9200000Y-11765000D01*
X9155000Y-11720000D01*
X9110000Y-11765000D01*
X9155000Y-11810000D01*
X9155000Y-15310000D02*
X9200000Y-15265000D01*
X9155000Y-15220000D01*
X9110000Y-15265000D01*
X9155000Y-15310000D01*
X9409000Y-4810000D02*
X9454000Y-4765000D01*
X9409000Y-4720000D01*
X9364000Y-4765000D01*
X9409000Y-4810000D01*
X9409000Y-8310000D02*
X9454000Y-8265000D01*
X9409000Y-8220000D01*
X9364000Y-8265000D01*
X9409000Y-8310000D01*
X9409000Y-11810000D02*
X9454000Y-11765000D01*
X9409000Y-11720000D01*
X9364000Y-11765000D01*
X9409000Y-11810000D01*
X9409000Y-15310000D02*
X9454000Y-15265000D01*
X9409000Y-15220000D01*
X9364000Y-15265000D01*
X9409000Y-15310000D01*
X9680000Y-4810000D02*
X9725000Y-4765000D01*
X9680000Y-4720000D01*
X9635000Y-4765000D01*
X9680000Y-4810000D01*
X9680000Y-8310000D02*
X9725000Y-8265000D01*
X9680000Y-8220000D01*
X9635000Y-8265000D01*
X9680000Y-8310000D01*
X9680000Y-11810000D02*
X9725000Y-11765000D01*
X9680000Y-11720000D01*
X9635000Y-11765000D01*
X9680000Y-11810000D01*
X9680000Y-15310000D02*
X9725000Y-15265000D01*
X9680000Y-15220000D01*
X9635000Y-15265000D01*
X9680000Y-15310000D01*
X9934000Y-4810000D02*
X9979000Y-4765000D01*
X9934000Y-4720000D01*
X9889000Y-4765000D01*
X9934000Y-4810000D01*
X9934000Y-8310000D02*
X9979000Y-8265000D01*
X9934000Y-8220000D01*
X9889000Y-8265000D01*
X9934000Y-8310000D01*
X9934000Y-11810000D02*
X9979000Y-11765000D01*
X9934000Y-11720000D01*
X9889000Y-11765000D01*
X9934000Y-11810000D01*
X9934000Y-15310000D02*
X9979000Y-15265000D01*
X9934000Y-15220000D01*
X9889000Y-15265000D01*
X9934000Y-15310000D01*
X12655000Y-4810000D02*
X12700000Y-4765000D01*
X12655000Y-4720000D01*
X12610000Y-4765000D01*
X12655000Y-4810000D01*
X12655000Y-8310000D02*
X12700000Y-8265000D01*
X12655000Y-8220000D01*
X12610000Y-8265000D01*
X12655000Y-8310000D01*
X12655000Y-11810000D02*
X12700000Y-11765000D01*
X12655000Y-11720000D01*
X12610000Y-11765000D01*
X12655000Y-11810000D01*
X12655000Y-15310000D02*
X12700000Y-15265000D01*
X12655000Y-15220000D01*
X12610000Y-15265000D01*
X12655000Y-15310000D01*
X12909000Y-4810000D02*
X12954000Y-4765000D01*
X12909000Y-4720000D01*
X12864000Y-4765000D01*
X12909000Y-4810000D01*
X12909000Y-8310000D02*
X12954000Y-8265000D01*
X12909000Y-8220000D01*
X12864000Y-8265000D01*
X12909000Y-8310000D01*
X12909000Y-11810000D02*
X12954000Y-11765000D01*
X12909000Y-11720000D01*
X12864000Y-11765000D01*
X12909000Y-11810000D01*
X12909000Y-15310000D02*
X12954000Y-15265000D01*
X12909000Y-15220000D01*
X12864000Y-15265000D01*
X12909000Y-15310000D01*
X13180000Y-4810000D02*
X13225000Y-4765000D01*
X13180000Y-4720000D01*
X13135000Y-4765000D01*
X13180000Y-4810000D01*
X13180000Y-8310000D02*
X13225000Y-8265000D01*
X13180000Y-8220000D01*
X13135000Y-8265000D01*
X13180000Y-8310000D01*
X13180000Y-11810000D02*
X13225000Y-11765000D01*
X13180000Y-11720000D01*
X13135000Y-11765000D01*
X13180000Y-11810000D01*
X13180000Y-15310000D02*
X13225000Y-15265000D01*
X13180000Y-15220000D01*
X13135000Y-15265000D01*
X13180000Y-15310000D01*
X13434000Y-4810000D02*
X13479000Y-4765000D01*
X13434000Y-4720000D01*
X13389000Y-4765000D01*
X13434000Y-4810000D01*
X13434000Y-8310000D02*
X13479000Y-8265000D01*
X13434000Y-8220000D01*
X13389000Y-8265000D01*
X13434000Y-8310000D01*
X13434000Y-11810000D02*
X13479000Y-11765000D01*
X13434000Y-11720000D01*
X13389000Y-11765000D01*
X13434000Y-11810000D01*
X13434000Y-15310000D02*
X13479000Y-15265000D01*
X13434000Y-15220000D01*
X13389000Y-15265000D01*
X13434000Y-15310000D01*
X16155000Y-4810000D02*
X16200000Y-4765000D01*
X16155000Y-4720000D01*
X16110000Y-4765000D01*
X16155000Y-4810000D01*
X16155000Y-8310000D02*
X16200000Y-8265000D01*
X16155000Y-8220000D01*
X16110000Y-8265000D01*
X16155000Y-8310000D01*
X16155000Y-11810000D02*
X16200000Y-11765000D01*
X16155000Y-11720000D01*
X16110000Y-11765000D01*
X16155000Y-11810000D01*
X16155000Y-15310000D02*
X16200000Y-15265000D01*
X16155000Y-15220000D01*
X16110000Y-15265000D01*
X16155000Y-15310000D01*
X16409000Y-4810000D02*
X16454000Y-4765000D01*
X16409000Y-4720000D01*
X16364000Y-4765000D01*
X16409000Y-4810000D01*
X16409000Y-8310000D02*
X16454000Y-8265000D01*
X16409000Y-8220000D01*
X16364000Y-8265000D01*
X16409000Y-8310000D01*
X16409000Y-11810000D02*
X16454000Y-11765000D01*
X16409000Y-11720000D01*
X16364000Y-11765000D01*
X16409000Y-11810000D01*
X16409000Y-15310000D02*
X16454000Y-15265000D01*
X16409000Y-15220000D01*
X16364000Y-15265000D01*
X16409000Y-15310000D01*
X16680000Y-4810000D02*
X16725000Y-4765000D01*
X16680000Y-4720000D01*
X16635000Y-4765000D01*
X16680000Y-4810000D01*
X16680000Y-8310000D02*
X16725000Y-8265000D01*
X16680000Y-8220000D01*
X16635000Y-8265000D01*
X16680000Y-8310000D01*
X16680000Y-11810000D02*
X16725000Y-11765000D01*
X16680000Y-11720000D01*
X16635000Y-11765000D01*
X16680000Y-11810000D01*
X16680000Y-15310000D02*
X16725000Y-15265000D01*
X16680000Y-15220000D01*
X16635000Y-15265000D01*
X16680000Y-15310000D01*
X16934000Y-4810000D02*
X16979000Y-4765000D01*
X16934000Y-4720000D01*
X16889000Y-4765000D01*
X16934000Y-4810000D01*
X16934000Y-8310000D02*
X16979000Y-8265000D01*
X16934000Y-8220000D01*
X16889000Y-8265000D01*
X16934000Y-8310000D01*
X16934000Y-11810000D02*
X16979000Y-11765000D01*
X16934000Y-11720000D01*
X16889000Y-11765000D01*
X16934000Y-11810000D01*
X16934000Y-15310000D02*
X16979000Y-15265000D01*
X16934000Y-15220000D01*
X16889000Y-15265000D01*
X16934000Y-15310000D01*
X19655000Y-4810000D02*
X19700000Y-4765000D01*
X19655000Y-4720000D01*
X19610000Y-4765000D01*
X19655000Y-4810000D01*
X19655000Y-8310000D02*
X19700000Y-8265000D01*
X19655000Y-8220000D01*
X19610000Y-8265000D01*
X19655000Y-8310000D01*
X19655000Y-11810000D02*
X19700000Y-11765000D01*
X19655000Y-11720000D01*
X19610000Y-11765000D01*
X19655000Y-11810000D01*
X19655000Y-15310000D02*
X19700000Y-15265000D01*
X19655000Y-15220000D01*
X19610000Y-15265000D01*
X19655000Y-15310000D01*
X19909000Y-4810000D02*
X19954000Y-4765000D01*
X19909000Y-4720000D01*
X19864000Y-4765000D01*
X19909000Y-4810000D01*
X19909000Y-8310000D02*
X19954000Y-8265000D01*
X19909000Y-8220000D01*
X19864000Y-8265000D01*
X19909000Y-8310000D01*
X19909000Y-11810000D02*
X19954000Y-11765000D01*
X19909000Y-11720000D01*
X19864000Y-11765000D01*
X19909000Y-11810000D01*
X19909000Y-15310000D02*
X19954000Y-15265000D01*
X19909000Y-15220000D01*
X19864000Y-15265000D01*
X19909000Y-15310000D01*
X20180000Y-4810000D02*
X20225000Y-4765000D01*
X20180000Y-4720000D01*
X20135000Y-4765000D01*
X20180000Y-4810000D01*
X20180000Y-8310000D02*
X20225000Y-8265000D01*
X20180000Y-8220000D01*
X20135000Y-8265000D01*
X20180000Y-8310000D01*
X20180000Y-11810000D02*
X20225000Y-11765000D01*
X20180000Y-11720000D01*
X20135000Y-11765000D01*
X20180000Y-11810000D01*
X20180000Y-15310000D02*
X20225000Y-15265000D01*
X20180000Y-15220000D01*
X20135000Y-15265000D01*
X20180000Y-15310000D01*
X20434000Y-4810000D02*
X20479000Y-4765000D01*
X20434000Y-4720000D01*
X20389000Y-4765000D01*
X20434000Y-4810000D01*
X20434000Y-8310000D02*
X20479000Y-8265000D01*
X20434000Y-8220000D01*
X20389000Y-8265000D01*
X20434000Y-8310000D01*
X20434000Y-11810000D02*
X20479000Y-11765000D01*
X20434000Y-11720000D01*
X20389000Y-11765000D01*
X20434000Y-11810000D01*
X20434000Y-15310000D02*
X20479000Y-15265000D01*
X20434000Y-15220000D01*
X20389000Y-15265000D01*
X20434000Y-15310000D01*
D10*
X8110000Y-8900000D02*
X8210000Y-9000000D01*
X8210000Y-8900000D02*
X8110000Y-9000000D01*
X8210000Y-8950000D02*
G75*
G03*
X8210000Y-8950000I-50000J0D01*
G01*
X8110000Y-9154000D02*
X8210000Y-9254000D01*
X8210000Y-9154000D02*
X8110000Y-9254000D01*
X8210000Y-9204000D02*
G75*
G03*
X8210000Y-9204000I-50000J0D01*
G01*
X8110000Y-9408000D02*
X8210000Y-9508000D01*
X8210000Y-9408000D02*
X8110000Y-9508000D01*
X8210000Y-9458000D02*
G75*
G03*
X8210000Y-9458000I-50000J0D01*
G01*
X8110000Y-9662000D02*
X8210000Y-9762000D01*
X8210000Y-9662000D02*
X8110000Y-9762000D01*
X8210000Y-9712000D02*
G75*
G03*
X8210000Y-9712000I-50000J0D01*
G01*
X14250000Y-3352500D02*
X14350000Y-3452500D01*
X14350000Y-3352500D02*
X14250000Y-3452500D01*
X14350000Y-3402500D02*
G75*
G03*
X14350000Y-3402500I-50000J0D01*
G01*
X14250000Y-15900000D02*
X14350000Y-16000000D01*
X14350000Y-15900000D02*
X14250000Y-16000000D01*
X14350000Y-15950000D02*
G75*
G03*
X14350000Y-15950000I-50000J0D01*
G01*
X14504000Y-3352500D02*
X14604000Y-3452500D01*
X14604000Y-3352500D02*
X14504000Y-3452500D01*
X14604000Y-3402500D02*
G75*
G03*
X14604000Y-3402500I-50000J0D01*
G01*
X14504000Y-15900000D02*
X14604000Y-16000000D01*
X14604000Y-15900000D02*
X14504000Y-16000000D01*
X14604000Y-15950000D02*
G75*
G03*
X14604000Y-15950000I-50000J0D01*
G01*
X14758000Y-3352500D02*
X14858000Y-3452500D01*
X14858000Y-3352500D02*
X14758000Y-3452500D01*
X14858000Y-3402500D02*
G75*
G03*
X14858000Y-3402500I-50000J0D01*
G01*
X14758000Y-15900000D02*
X14858000Y-16000000D01*
X14858000Y-15900000D02*
X14758000Y-16000000D01*
X14858000Y-15950000D02*
G75*
G03*
X14858000Y-15950000I-50000J0D01*
G01*
X15012000Y-3352500D02*
X15112000Y-3452500D01*
X15112000Y-3352500D02*
X15012000Y-3452500D01*
X15112000Y-3402500D02*
G75*
G03*
X15112000Y-3402500I-50000J0D01*
G01*
X15012000Y-15900000D02*
X15112000Y-16000000D01*
X15112000Y-15900000D02*
X15012000Y-16000000D01*
X15112000Y-15950000D02*
G75*
G03*
X15112000Y-15950000I-50000J0D01*
G01*
X15444500Y-10172500D02*
X15544500Y-10272500D01*
X15544500Y-10172500D02*
X15444500Y-10272500D01*
X15544500Y-10222500D02*
G75*
G03*
X15544500Y-10222500I-50000J0D01*
G01*
X15444500Y-10426500D02*
X15544500Y-10526500D01*
X15544500Y-10426500D02*
X15444500Y-10526500D01*
X15544500Y-10476500D02*
G75*
G03*
X15544500Y-10476500I-50000J0D01*
G01*
X15698500Y-10172500D02*
X15798500Y-10272500D01*
X15798500Y-10172500D02*
X15698500Y-10272500D01*
X15798500Y-10222500D02*
G75*
G03*
X15798500Y-10222500I-50000J0D01*
G01*
X15698500Y-10426500D02*
X15798500Y-10526500D01*
X15798500Y-10426500D02*
X15698500Y-10526500D01*
X15798500Y-10476500D02*
G75*
G03*
X15798500Y-10476500I-50000J0D01*
G01*
X15952500Y-10172500D02*
X16052500Y-10272500D01*
X16052500Y-10172500D02*
X15952500Y-10272500D01*
X16052500Y-10222500D02*
G75*
G03*
X16052500Y-10222500I-50000J0D01*
G01*
X15952500Y-10426500D02*
X16052500Y-10526500D01*
X16052500Y-10426500D02*
X15952500Y-10526500D01*
X16052500Y-10476500D02*
G75*
G03*
X16052500Y-10476500I-50000J0D01*
G01*
X20662500Y-8900000D02*
X20762500Y-9000000D01*
X20762500Y-8900000D02*
X20662500Y-9000000D01*
X20762500Y-8950000D02*
G75*
G03*
X20762500Y-8950000I-50000J0D01*
G01*
X20662500Y-9154000D02*
X20762500Y-9254000D01*
X20762500Y-9154000D02*
X20662500Y-9254000D01*
X20762500Y-9204000D02*
G75*
G03*
X20762500Y-9204000I-50000J0D01*
G01*
X20662500Y-9408000D02*
X20762500Y-9508000D01*
X20762500Y-9408000D02*
X20662500Y-9508000D01*
X20762500Y-9458000D02*
G75*
G03*
X20762500Y-9458000I-50000J0D01*
G01*
X20662500Y-9662000D02*
X20762500Y-9762000D01*
X20762500Y-9662000D02*
X20662500Y-9762000D01*
X20762500Y-9712000D02*
G75*
G03*
X20762500Y-9712000I-50000J0D01*
G01*
D17*
X14100000Y-6295000D02*
X14220000Y-6415000D01*
X14220000Y-6295000D02*
X14100000Y-6415000D01*
X14160000Y-6295000D02*
X14160000Y-6415000D01*
X14100000Y-6355000D02*
X14220000Y-6355000D01*
X14450000Y-6295000D02*
X14570000Y-6415000D01*
X14570000Y-6295000D02*
X14450000Y-6415000D01*
X14510000Y-6295000D02*
X14510000Y-6415000D01*
X14450000Y-6355000D02*
X14570000Y-6355000D01*
X15100000Y-6295000D02*
X15220000Y-6415000D01*
X15220000Y-6295000D02*
X15100000Y-6415000D01*
X15160000Y-6295000D02*
X15160000Y-6415000D01*
X15100000Y-6355000D02*
X15220000Y-6355000D01*
X15450000Y-6295000D02*
X15570000Y-6415000D01*
X15570000Y-6295000D02*
X15450000Y-6415000D01*
X15510000Y-6295000D02*
X15510000Y-6415000D01*
X15450000Y-6355000D02*
X15570000Y-6355000D01*
D18*
X8140000Y-2640000D02*
X8460000Y-2960000D01*
X8460000Y-2640000D02*
X8140000Y-2960000D01*
X8413138Y-2913138D02*
X8413138Y-2686862D01*
X8186862Y-2686862D01*
X8186862Y-2913138D01*
X8413138Y-2913138D01*
X8140000Y-15640000D02*
X8460000Y-15960000D01*
X8460000Y-15640000D02*
X8140000Y-15960000D01*
X8413138Y-15913138D02*
X8413138Y-15686862D01*
X8186862Y-15686862D01*
X8186862Y-15913138D01*
X8413138Y-15913138D01*
X21140000Y-2640000D02*
X21460000Y-2960000D01*
X21460000Y-2640000D02*
X21140000Y-2960000D01*
X21413138Y-2913138D02*
X21413138Y-2686862D01*
X21186862Y-2686862D01*
X21186862Y-2913138D01*
X21413138Y-2913138D01*
X21140000Y-15640000D02*
X21460000Y-15960000D01*
X21460000Y-15640000D02*
X21140000Y-15960000D01*
X21413138Y-15913138D02*
X21413138Y-15686862D01*
X21186862Y-15686862D01*
X21186862Y-15913138D01*
X21413138Y-15913138D01*
D11*
X8037619Y-16613476D02*
X8037619Y-16413476D01*
X8037619Y-16413476D02*
X8085238Y-16413476D01*
X8085238Y-16413476D02*
X8113809Y-16423000D01*
X8113809Y-16423000D02*
X8132857Y-16442048D01*
X8132857Y-16442048D02*
X8142381Y-16461095D01*
X8142381Y-16461095D02*
X8151905Y-16499190D01*
X8151905Y-16499190D02*
X8151905Y-16527762D01*
X8151905Y-16527762D02*
X8142381Y-16565857D01*
X8142381Y-16565857D02*
X8132857Y-16584905D01*
X8132857Y-16584905D02*
X8113809Y-16603952D01*
X8113809Y-16603952D02*
X8085238Y-16613476D01*
X8085238Y-16613476D02*
X8037619Y-16613476D01*
X8237619Y-16613476D02*
X8237619Y-16480143D01*
X8237619Y-16518238D02*
X8247143Y-16499190D01*
X8247143Y-16499190D02*
X8256667Y-16489667D01*
X8256667Y-16489667D02*
X8275714Y-16480143D01*
X8275714Y-16480143D02*
X8294762Y-16480143D01*
X8361428Y-16613476D02*
X8361428Y-16480143D01*
X8361428Y-16413476D02*
X8351905Y-16423000D01*
X8351905Y-16423000D02*
X8361428Y-16432524D01*
X8361428Y-16432524D02*
X8370952Y-16423000D01*
X8370952Y-16423000D02*
X8361428Y-16413476D01*
X8361428Y-16413476D02*
X8361428Y-16432524D01*
X8485238Y-16613476D02*
X8466190Y-16603952D01*
X8466190Y-16603952D02*
X8456667Y-16584905D01*
X8456667Y-16584905D02*
X8456667Y-16413476D01*
X8590000Y-16613476D02*
X8570952Y-16603952D01*
X8570952Y-16603952D02*
X8561429Y-16584905D01*
X8561429Y-16584905D02*
X8561429Y-16413476D01*
X8786190Y-16613476D02*
X8786190Y-16413476D01*
X8786190Y-16413476D02*
X8852857Y-16556333D01*
X8852857Y-16556333D02*
X8919524Y-16413476D01*
X8919524Y-16413476D02*
X8919524Y-16613476D01*
X9100476Y-16613476D02*
X9100476Y-16508714D01*
X9100476Y-16508714D02*
X9090952Y-16489667D01*
X9090952Y-16489667D02*
X9071905Y-16480143D01*
X9071905Y-16480143D02*
X9033809Y-16480143D01*
X9033809Y-16480143D02*
X9014762Y-16489667D01*
X9100476Y-16603952D02*
X9081429Y-16613476D01*
X9081429Y-16613476D02*
X9033809Y-16613476D01*
X9033809Y-16613476D02*
X9014762Y-16603952D01*
X9014762Y-16603952D02*
X9005238Y-16584905D01*
X9005238Y-16584905D02*
X9005238Y-16565857D01*
X9005238Y-16565857D02*
X9014762Y-16546809D01*
X9014762Y-16546809D02*
X9033809Y-16537286D01*
X9033809Y-16537286D02*
X9081429Y-16537286D01*
X9081429Y-16537286D02*
X9100476Y-16527762D01*
X9195714Y-16480143D02*
X9195714Y-16680143D01*
X9195714Y-16489667D02*
X9214762Y-16480143D01*
X9214762Y-16480143D02*
X9252857Y-16480143D01*
X9252857Y-16480143D02*
X9271905Y-16489667D01*
X9271905Y-16489667D02*
X9281429Y-16499190D01*
X9281429Y-16499190D02*
X9290952Y-16518238D01*
X9290952Y-16518238D02*
X9290952Y-16575381D01*
X9290952Y-16575381D02*
X9281429Y-16594428D01*
X9281429Y-16594428D02*
X9271905Y-16603952D01*
X9271905Y-16603952D02*
X9252857Y-16613476D01*
X9252857Y-16613476D02*
X9214762Y-16613476D01*
X9214762Y-16613476D02*
X9195714Y-16603952D01*
X9376667Y-16594428D02*
X9386190Y-16603952D01*
X9386190Y-16603952D02*
X9376667Y-16613476D01*
X9376667Y-16613476D02*
X9367143Y-16603952D01*
X9367143Y-16603952D02*
X9376667Y-16594428D01*
X9376667Y-16594428D02*
X9376667Y-16613476D01*
X9376667Y-16489667D02*
X9386190Y-16499190D01*
X9386190Y-16499190D02*
X9376667Y-16508714D01*
X9376667Y-16508714D02*
X9367143Y-16499190D01*
X9367143Y-16499190D02*
X9376667Y-16489667D01*
X9376667Y-16489667D02*
X9376667Y-16508714D01*
D12*
X7750000Y-16940000D02*
X7790000Y-16980000D01*
X7790000Y-16940000D02*
X7750000Y-16980000D01*
D11*
X8075714Y-16833476D02*
X8094762Y-16833476D01*
X8094762Y-16833476D02*
X8113809Y-16843000D01*
X8113809Y-16843000D02*
X8123333Y-16852524D01*
X8123333Y-16852524D02*
X8132857Y-16871571D01*
X8132857Y-16871571D02*
X8142381Y-16909667D01*
X8142381Y-16909667D02*
X8142381Y-16957286D01*
X8142381Y-16957286D02*
X8132857Y-16995381D01*
X8132857Y-16995381D02*
X8123333Y-17014429D01*
X8123333Y-17014429D02*
X8113809Y-17023952D01*
X8113809Y-17023952D02*
X8094762Y-17033476D01*
X8094762Y-17033476D02*
X8075714Y-17033476D01*
X8075714Y-17033476D02*
X8056667Y-17023952D01*
X8056667Y-17023952D02*
X8047143Y-17014429D01*
X8047143Y-17014429D02*
X8037619Y-16995381D01*
X8037619Y-16995381D02*
X8028095Y-16957286D01*
X8028095Y-16957286D02*
X8028095Y-16909667D01*
X8028095Y-16909667D02*
X8037619Y-16871571D01*
X8037619Y-16871571D02*
X8047143Y-16852524D01*
X8047143Y-16852524D02*
X8056667Y-16843000D01*
X8056667Y-16843000D02*
X8075714Y-16833476D01*
X8228095Y-17014429D02*
X8237619Y-17023952D01*
X8237619Y-17023952D02*
X8228095Y-17033476D01*
X8228095Y-17033476D02*
X8218571Y-17023952D01*
X8218571Y-17023952D02*
X8228095Y-17014429D01*
X8228095Y-17014429D02*
X8228095Y-17033476D01*
X8409048Y-16900143D02*
X8409048Y-17033476D01*
X8361428Y-16823952D02*
X8313809Y-16966810D01*
X8313809Y-16966810D02*
X8437619Y-16966810D01*
X8551905Y-16833476D02*
X8570952Y-16833476D01*
X8570952Y-16833476D02*
X8590000Y-16843000D01*
X8590000Y-16843000D02*
X8599524Y-16852524D01*
X8599524Y-16852524D02*
X8609048Y-16871571D01*
X8609048Y-16871571D02*
X8618571Y-16909667D01*
X8618571Y-16909667D02*
X8618571Y-16957286D01*
X8618571Y-16957286D02*
X8609048Y-16995381D01*
X8609048Y-16995381D02*
X8599524Y-17014429D01*
X8599524Y-17014429D02*
X8590000Y-17023952D01*
X8590000Y-17023952D02*
X8570952Y-17033476D01*
X8570952Y-17033476D02*
X8551905Y-17033476D01*
X8551905Y-17033476D02*
X8532857Y-17023952D01*
X8532857Y-17023952D02*
X8523333Y-17014429D01*
X8523333Y-17014429D02*
X8513810Y-16995381D01*
X8513810Y-16995381D02*
X8504286Y-16957286D01*
X8504286Y-16957286D02*
X8504286Y-16909667D01*
X8504286Y-16909667D02*
X8513810Y-16871571D01*
X8513810Y-16871571D02*
X8523333Y-16852524D01*
X8523333Y-16852524D02*
X8532857Y-16843000D01*
X8532857Y-16843000D02*
X8551905Y-16833476D01*
X8742381Y-16833476D02*
X8761429Y-16833476D01*
X8761429Y-16833476D02*
X8780476Y-16843000D01*
X8780476Y-16843000D02*
X8790000Y-16852524D01*
X8790000Y-16852524D02*
X8799524Y-16871571D01*
X8799524Y-16871571D02*
X8809048Y-16909667D01*
X8809048Y-16909667D02*
X8809048Y-16957286D01*
X8809048Y-16957286D02*
X8799524Y-16995381D01*
X8799524Y-16995381D02*
X8790000Y-17014429D01*
X8790000Y-17014429D02*
X8780476Y-17023952D01*
X8780476Y-17023952D02*
X8761429Y-17033476D01*
X8761429Y-17033476D02*
X8742381Y-17033476D01*
X8742381Y-17033476D02*
X8723333Y-17023952D01*
X8723333Y-17023952D02*
X8713810Y-17014429D01*
X8713810Y-17014429D02*
X8704286Y-16995381D01*
X8704286Y-16995381D02*
X8694762Y-16957286D01*
X8694762Y-16957286D02*
X8694762Y-16909667D01*
X8694762Y-16909667D02*
X8704286Y-16871571D01*
X8704286Y-16871571D02*
X8713810Y-16852524D01*
X8713810Y-16852524D02*
X8723333Y-16843000D01*
X8723333Y-16843000D02*
X8742381Y-16833476D01*
X8894762Y-17033476D02*
X8894762Y-16900143D01*
X8894762Y-16919190D02*
X8904286Y-16909667D01*
X8904286Y-16909667D02*
X8923333Y-16900143D01*
X8923333Y-16900143D02*
X8951905Y-16900143D01*
X8951905Y-16900143D02*
X8970952Y-16909667D01*
X8970952Y-16909667D02*
X8980476Y-16928714D01*
X8980476Y-16928714D02*
X8980476Y-17033476D01*
X8980476Y-16928714D02*
X8990000Y-16909667D01*
X8990000Y-16909667D02*
X9009048Y-16900143D01*
X9009048Y-16900143D02*
X9037619Y-16900143D01*
X9037619Y-16900143D02*
X9056667Y-16909667D01*
X9056667Y-16909667D02*
X9066191Y-16928714D01*
X9066191Y-16928714D02*
X9066191Y-17033476D01*
X9161429Y-17033476D02*
X9161429Y-16900143D01*
X9161429Y-16919190D02*
X9170952Y-16909667D01*
X9170952Y-16909667D02*
X9190000Y-16900143D01*
X9190000Y-16900143D02*
X9218572Y-16900143D01*
X9218572Y-16900143D02*
X9237619Y-16909667D01*
X9237619Y-16909667D02*
X9247143Y-16928714D01*
X9247143Y-16928714D02*
X9247143Y-17033476D01*
X9247143Y-16928714D02*
X9256667Y-16909667D01*
X9256667Y-16909667D02*
X9275714Y-16900143D01*
X9275714Y-16900143D02*
X9304286Y-16900143D01*
X9304286Y-16900143D02*
X9323333Y-16909667D01*
X9323333Y-16909667D02*
X9332857Y-16928714D01*
X9332857Y-16928714D02*
X9332857Y-17033476D01*
X9690952Y-16823952D02*
X9519524Y-17081095D01*
X9915714Y-16833476D02*
X9934762Y-16833476D01*
X9934762Y-16833476D02*
X9953810Y-16843000D01*
X9953810Y-16843000D02*
X9963333Y-16852524D01*
X9963333Y-16852524D02*
X9972857Y-16871571D01*
X9972857Y-16871571D02*
X9982381Y-16909667D01*
X9982381Y-16909667D02*
X9982381Y-16957286D01*
X9982381Y-16957286D02*
X9972857Y-16995381D01*
X9972857Y-16995381D02*
X9963333Y-17014429D01*
X9963333Y-17014429D02*
X9953810Y-17023952D01*
X9953810Y-17023952D02*
X9934762Y-17033476D01*
X9934762Y-17033476D02*
X9915714Y-17033476D01*
X9915714Y-17033476D02*
X9896667Y-17023952D01*
X9896667Y-17023952D02*
X9887143Y-17014429D01*
X9887143Y-17014429D02*
X9877619Y-16995381D01*
X9877619Y-16995381D02*
X9868095Y-16957286D01*
X9868095Y-16957286D02*
X9868095Y-16909667D01*
X9868095Y-16909667D02*
X9877619Y-16871571D01*
X9877619Y-16871571D02*
X9887143Y-16852524D01*
X9887143Y-16852524D02*
X9896667Y-16843000D01*
X9896667Y-16843000D02*
X9915714Y-16833476D01*
X10068095Y-17014429D02*
X10077619Y-17023952D01*
X10077619Y-17023952D02*
X10068095Y-17033476D01*
X10068095Y-17033476D02*
X10058572Y-17023952D01*
X10058572Y-17023952D02*
X10068095Y-17014429D01*
X10068095Y-17014429D02*
X10068095Y-17033476D01*
X10201429Y-16833476D02*
X10220476Y-16833476D01*
X10220476Y-16833476D02*
X10239524Y-16843000D01*
X10239524Y-16843000D02*
X10249048Y-16852524D01*
X10249048Y-16852524D02*
X10258572Y-16871571D01*
X10258572Y-16871571D02*
X10268095Y-16909667D01*
X10268095Y-16909667D02*
X10268095Y-16957286D01*
X10268095Y-16957286D02*
X10258572Y-16995381D01*
X10258572Y-16995381D02*
X10249048Y-17014429D01*
X10249048Y-17014429D02*
X10239524Y-17023952D01*
X10239524Y-17023952D02*
X10220476Y-17033476D01*
X10220476Y-17033476D02*
X10201429Y-17033476D01*
X10201429Y-17033476D02*
X10182381Y-17023952D01*
X10182381Y-17023952D02*
X10172857Y-17014429D01*
X10172857Y-17014429D02*
X10163333Y-16995381D01*
X10163333Y-16995381D02*
X10153810Y-16957286D01*
X10153810Y-16957286D02*
X10153810Y-16909667D01*
X10153810Y-16909667D02*
X10163333Y-16871571D01*
X10163333Y-16871571D02*
X10172857Y-16852524D01*
X10172857Y-16852524D02*
X10182381Y-16843000D01*
X10182381Y-16843000D02*
X10201429Y-16833476D01*
X10458572Y-17033476D02*
X10344286Y-17033476D01*
X10401429Y-17033476D02*
X10401429Y-16833476D01*
X10401429Y-16833476D02*
X10382381Y-16862048D01*
X10382381Y-16862048D02*
X10363333Y-16881095D01*
X10363333Y-16881095D02*
X10344286Y-16890619D01*
X10639524Y-16833476D02*
X10544286Y-16833476D01*
X10544286Y-16833476D02*
X10534762Y-16928714D01*
X10534762Y-16928714D02*
X10544286Y-16919190D01*
X10544286Y-16919190D02*
X10563333Y-16909667D01*
X10563333Y-16909667D02*
X10610953Y-16909667D01*
X10610953Y-16909667D02*
X10630000Y-16919190D01*
X10630000Y-16919190D02*
X10639524Y-16928714D01*
X10639524Y-16928714D02*
X10649048Y-16947762D01*
X10649048Y-16947762D02*
X10649048Y-16995381D01*
X10649048Y-16995381D02*
X10639524Y-17014429D01*
X10639524Y-17014429D02*
X10630000Y-17023952D01*
X10630000Y-17023952D02*
X10610953Y-17033476D01*
X10610953Y-17033476D02*
X10563333Y-17033476D01*
X10563333Y-17033476D02*
X10544286Y-17023952D01*
X10544286Y-17023952D02*
X10534762Y-17014429D01*
X10715714Y-16833476D02*
X10849048Y-16833476D01*
X10849048Y-16833476D02*
X10763333Y-17033476D01*
X10915714Y-16833476D02*
X10915714Y-16871571D01*
X10991905Y-16833476D02*
X10991905Y-16871571D01*
X11254762Y-17109667D02*
X11245238Y-17100143D01*
X11245238Y-17100143D02*
X11226191Y-17071571D01*
X11226191Y-17071571D02*
X11216667Y-17052524D01*
X11216667Y-17052524D02*
X11207143Y-17023952D01*
X11207143Y-17023952D02*
X11197619Y-16976333D01*
X11197619Y-16976333D02*
X11197619Y-16938238D01*
X11197619Y-16938238D02*
X11207143Y-16890619D01*
X11207143Y-16890619D02*
X11216667Y-16862048D01*
X11216667Y-16862048D02*
X11226191Y-16843000D01*
X11226191Y-16843000D02*
X11245238Y-16814429D01*
X11245238Y-16814429D02*
X11254762Y-16804905D01*
X11311905Y-16833476D02*
X11445238Y-16833476D01*
X11445238Y-16833476D02*
X11359524Y-17033476D01*
X11502381Y-16833476D02*
X11635714Y-16833476D01*
X11635714Y-16833476D02*
X11550000Y-17033476D01*
X11831905Y-17033476D02*
X11831905Y-16833476D01*
X11917619Y-17033476D02*
X11917619Y-16928714D01*
X11917619Y-16928714D02*
X11908095Y-16909667D01*
X11908095Y-16909667D02*
X11889048Y-16900143D01*
X11889048Y-16900143D02*
X11860476Y-16900143D01*
X11860476Y-16900143D02*
X11841429Y-16909667D01*
X11841429Y-16909667D02*
X11831905Y-16919190D01*
X12041429Y-17033476D02*
X12022381Y-17023952D01*
X12022381Y-17023952D02*
X12012857Y-17014429D01*
X12012857Y-17014429D02*
X12003333Y-16995381D01*
X12003333Y-16995381D02*
X12003333Y-16938238D01*
X12003333Y-16938238D02*
X12012857Y-16919190D01*
X12012857Y-16919190D02*
X12022381Y-16909667D01*
X12022381Y-16909667D02*
X12041429Y-16900143D01*
X12041429Y-16900143D02*
X12070000Y-16900143D01*
X12070000Y-16900143D02*
X12089048Y-16909667D01*
X12089048Y-16909667D02*
X12098572Y-16919190D01*
X12098572Y-16919190D02*
X12108095Y-16938238D01*
X12108095Y-16938238D02*
X12108095Y-16995381D01*
X12108095Y-16995381D02*
X12098572Y-17014429D01*
X12098572Y-17014429D02*
X12089048Y-17023952D01*
X12089048Y-17023952D02*
X12070000Y-17033476D01*
X12070000Y-17033476D02*
X12041429Y-17033476D01*
X12222381Y-17033476D02*
X12203333Y-17023952D01*
X12203333Y-17023952D02*
X12193810Y-17004905D01*
X12193810Y-17004905D02*
X12193810Y-16833476D01*
X12374762Y-17023952D02*
X12355714Y-17033476D01*
X12355714Y-17033476D02*
X12317619Y-17033476D01*
X12317619Y-17033476D02*
X12298572Y-17023952D01*
X12298572Y-17023952D02*
X12289048Y-17004905D01*
X12289048Y-17004905D02*
X12289048Y-16928714D01*
X12289048Y-16928714D02*
X12298572Y-16909667D01*
X12298572Y-16909667D02*
X12317619Y-16900143D01*
X12317619Y-16900143D02*
X12355714Y-16900143D01*
X12355714Y-16900143D02*
X12374762Y-16909667D01*
X12374762Y-16909667D02*
X12384286Y-16928714D01*
X12384286Y-16928714D02*
X12384286Y-16947762D01*
X12384286Y-16947762D02*
X12289048Y-16966810D01*
X12460476Y-17023952D02*
X12479524Y-17033476D01*
X12479524Y-17033476D02*
X12517619Y-17033476D01*
X12517619Y-17033476D02*
X12536667Y-17023952D01*
X12536667Y-17023952D02*
X12546191Y-17004905D01*
X12546191Y-17004905D02*
X12546191Y-16995381D01*
X12546191Y-16995381D02*
X12536667Y-16976333D01*
X12536667Y-16976333D02*
X12517619Y-16966810D01*
X12517619Y-16966810D02*
X12489048Y-16966810D01*
X12489048Y-16966810D02*
X12470000Y-16957286D01*
X12470000Y-16957286D02*
X12460476Y-16938238D01*
X12460476Y-16938238D02*
X12460476Y-16928714D01*
X12460476Y-16928714D02*
X12470000Y-16909667D01*
X12470000Y-16909667D02*
X12489048Y-16900143D01*
X12489048Y-16900143D02*
X12517619Y-16900143D01*
X12517619Y-16900143D02*
X12536667Y-16909667D01*
X12612857Y-17109667D02*
X12622381Y-17100143D01*
X12622381Y-17100143D02*
X12641429Y-17071571D01*
X12641429Y-17071571D02*
X12650953Y-17052524D01*
X12650953Y-17052524D02*
X12660476Y-17023952D01*
X12660476Y-17023952D02*
X12670000Y-16976333D01*
X12670000Y-16976333D02*
X12670000Y-16938238D01*
X12670000Y-16938238D02*
X12660476Y-16890619D01*
X12660476Y-16890619D02*
X12650953Y-16862048D01*
X12650953Y-16862048D02*
X12641429Y-16843000D01*
X12641429Y-16843000D02*
X12622381Y-16814429D01*
X12622381Y-16814429D02*
X12612857Y-16804905D01*
D13*
X7790000Y-17224000D02*
G75*
G03*
X7790000Y-17224000I-22500J0D01*
G01*
D11*
X8075714Y-17097476D02*
X8094762Y-17097476D01*
X8094762Y-17097476D02*
X8113809Y-17107000D01*
X8113809Y-17107000D02*
X8123333Y-17116524D01*
X8123333Y-17116524D02*
X8132857Y-17135571D01*
X8132857Y-17135571D02*
X8142381Y-17173667D01*
X8142381Y-17173667D02*
X8142381Y-17221286D01*
X8142381Y-17221286D02*
X8132857Y-17259381D01*
X8132857Y-17259381D02*
X8123333Y-17278429D01*
X8123333Y-17278429D02*
X8113809Y-17287952D01*
X8113809Y-17287952D02*
X8094762Y-17297476D01*
X8094762Y-17297476D02*
X8075714Y-17297476D01*
X8075714Y-17297476D02*
X8056667Y-17287952D01*
X8056667Y-17287952D02*
X8047143Y-17278429D01*
X8047143Y-17278429D02*
X8037619Y-17259381D01*
X8037619Y-17259381D02*
X8028095Y-17221286D01*
X8028095Y-17221286D02*
X8028095Y-17173667D01*
X8028095Y-17173667D02*
X8037619Y-17135571D01*
X8037619Y-17135571D02*
X8047143Y-17116524D01*
X8047143Y-17116524D02*
X8056667Y-17107000D01*
X8056667Y-17107000D02*
X8075714Y-17097476D01*
X8228095Y-17278429D02*
X8237619Y-17287952D01*
X8237619Y-17287952D02*
X8228095Y-17297476D01*
X8228095Y-17297476D02*
X8218571Y-17287952D01*
X8218571Y-17287952D02*
X8228095Y-17278429D01*
X8228095Y-17278429D02*
X8228095Y-17297476D01*
X8409048Y-17164143D02*
X8409048Y-17297476D01*
X8361428Y-17087952D02*
X8313809Y-17230810D01*
X8313809Y-17230810D02*
X8437619Y-17230810D01*
X8609048Y-17097476D02*
X8513810Y-17097476D01*
X8513810Y-17097476D02*
X8504286Y-17192714D01*
X8504286Y-17192714D02*
X8513810Y-17183190D01*
X8513810Y-17183190D02*
X8532857Y-17173667D01*
X8532857Y-17173667D02*
X8580476Y-17173667D01*
X8580476Y-17173667D02*
X8599524Y-17183190D01*
X8599524Y-17183190D02*
X8609048Y-17192714D01*
X8609048Y-17192714D02*
X8618571Y-17211762D01*
X8618571Y-17211762D02*
X8618571Y-17259381D01*
X8618571Y-17259381D02*
X8609048Y-17278429D01*
X8609048Y-17278429D02*
X8599524Y-17287952D01*
X8599524Y-17287952D02*
X8580476Y-17297476D01*
X8580476Y-17297476D02*
X8532857Y-17297476D01*
X8532857Y-17297476D02*
X8513810Y-17287952D01*
X8513810Y-17287952D02*
X8504286Y-17278429D01*
X8742381Y-17097476D02*
X8761429Y-17097476D01*
X8761429Y-17097476D02*
X8780476Y-17107000D01*
X8780476Y-17107000D02*
X8790000Y-17116524D01*
X8790000Y-17116524D02*
X8799524Y-17135571D01*
X8799524Y-17135571D02*
X8809048Y-17173667D01*
X8809048Y-17173667D02*
X8809048Y-17221286D01*
X8809048Y-17221286D02*
X8799524Y-17259381D01*
X8799524Y-17259381D02*
X8790000Y-17278429D01*
X8790000Y-17278429D02*
X8780476Y-17287952D01*
X8780476Y-17287952D02*
X8761429Y-17297476D01*
X8761429Y-17297476D02*
X8742381Y-17297476D01*
X8742381Y-17297476D02*
X8723333Y-17287952D01*
X8723333Y-17287952D02*
X8713810Y-17278429D01*
X8713810Y-17278429D02*
X8704286Y-17259381D01*
X8704286Y-17259381D02*
X8694762Y-17221286D01*
X8694762Y-17221286D02*
X8694762Y-17173667D01*
X8694762Y-17173667D02*
X8704286Y-17135571D01*
X8704286Y-17135571D02*
X8713810Y-17116524D01*
X8713810Y-17116524D02*
X8723333Y-17107000D01*
X8723333Y-17107000D02*
X8742381Y-17097476D01*
X8894762Y-17297476D02*
X8894762Y-17164143D01*
X8894762Y-17183190D02*
X8904286Y-17173667D01*
X8904286Y-17173667D02*
X8923333Y-17164143D01*
X8923333Y-17164143D02*
X8951905Y-17164143D01*
X8951905Y-17164143D02*
X8970952Y-17173667D01*
X8970952Y-17173667D02*
X8980476Y-17192714D01*
X8980476Y-17192714D02*
X8980476Y-17297476D01*
X8980476Y-17192714D02*
X8990000Y-17173667D01*
X8990000Y-17173667D02*
X9009048Y-17164143D01*
X9009048Y-17164143D02*
X9037619Y-17164143D01*
X9037619Y-17164143D02*
X9056667Y-17173667D01*
X9056667Y-17173667D02*
X9066191Y-17192714D01*
X9066191Y-17192714D02*
X9066191Y-17297476D01*
X9161429Y-17297476D02*
X9161429Y-17164143D01*
X9161429Y-17183190D02*
X9170952Y-17173667D01*
X9170952Y-17173667D02*
X9190000Y-17164143D01*
X9190000Y-17164143D02*
X9218572Y-17164143D01*
X9218572Y-17164143D02*
X9237619Y-17173667D01*
X9237619Y-17173667D02*
X9247143Y-17192714D01*
X9247143Y-17192714D02*
X9247143Y-17297476D01*
X9247143Y-17192714D02*
X9256667Y-17173667D01*
X9256667Y-17173667D02*
X9275714Y-17164143D01*
X9275714Y-17164143D02*
X9304286Y-17164143D01*
X9304286Y-17164143D02*
X9323333Y-17173667D01*
X9323333Y-17173667D02*
X9332857Y-17192714D01*
X9332857Y-17192714D02*
X9332857Y-17297476D01*
X9690952Y-17087952D02*
X9519524Y-17345095D01*
X9915714Y-17097476D02*
X9934762Y-17097476D01*
X9934762Y-17097476D02*
X9953810Y-17107000D01*
X9953810Y-17107000D02*
X9963333Y-17116524D01*
X9963333Y-17116524D02*
X9972857Y-17135571D01*
X9972857Y-17135571D02*
X9982381Y-17173667D01*
X9982381Y-17173667D02*
X9982381Y-17221286D01*
X9982381Y-17221286D02*
X9972857Y-17259381D01*
X9972857Y-17259381D02*
X9963333Y-17278429D01*
X9963333Y-17278429D02*
X9953810Y-17287952D01*
X9953810Y-17287952D02*
X9934762Y-17297476D01*
X9934762Y-17297476D02*
X9915714Y-17297476D01*
X9915714Y-17297476D02*
X9896667Y-17287952D01*
X9896667Y-17287952D02*
X9887143Y-17278429D01*
X9887143Y-17278429D02*
X9877619Y-17259381D01*
X9877619Y-17259381D02*
X9868095Y-17221286D01*
X9868095Y-17221286D02*
X9868095Y-17173667D01*
X9868095Y-17173667D02*
X9877619Y-17135571D01*
X9877619Y-17135571D02*
X9887143Y-17116524D01*
X9887143Y-17116524D02*
X9896667Y-17107000D01*
X9896667Y-17107000D02*
X9915714Y-17097476D01*
X10068095Y-17278429D02*
X10077619Y-17287952D01*
X10077619Y-17287952D02*
X10068095Y-17297476D01*
X10068095Y-17297476D02*
X10058572Y-17287952D01*
X10058572Y-17287952D02*
X10068095Y-17278429D01*
X10068095Y-17278429D02*
X10068095Y-17297476D01*
X10201429Y-17097476D02*
X10220476Y-17097476D01*
X10220476Y-17097476D02*
X10239524Y-17107000D01*
X10239524Y-17107000D02*
X10249048Y-17116524D01*
X10249048Y-17116524D02*
X10258572Y-17135571D01*
X10258572Y-17135571D02*
X10268095Y-17173667D01*
X10268095Y-17173667D02*
X10268095Y-17221286D01*
X10268095Y-17221286D02*
X10258572Y-17259381D01*
X10258572Y-17259381D02*
X10249048Y-17278429D01*
X10249048Y-17278429D02*
X10239524Y-17287952D01*
X10239524Y-17287952D02*
X10220476Y-17297476D01*
X10220476Y-17297476D02*
X10201429Y-17297476D01*
X10201429Y-17297476D02*
X10182381Y-17287952D01*
X10182381Y-17287952D02*
X10172857Y-17278429D01*
X10172857Y-17278429D02*
X10163333Y-17259381D01*
X10163333Y-17259381D02*
X10153810Y-17221286D01*
X10153810Y-17221286D02*
X10153810Y-17173667D01*
X10153810Y-17173667D02*
X10163333Y-17135571D01*
X10163333Y-17135571D02*
X10172857Y-17116524D01*
X10172857Y-17116524D02*
X10182381Y-17107000D01*
X10182381Y-17107000D02*
X10201429Y-17097476D01*
X10458572Y-17297476D02*
X10344286Y-17297476D01*
X10401429Y-17297476D02*
X10401429Y-17097476D01*
X10401429Y-17097476D02*
X10382381Y-17126048D01*
X10382381Y-17126048D02*
X10363333Y-17145095D01*
X10363333Y-17145095D02*
X10344286Y-17154619D01*
X10525238Y-17097476D02*
X10658572Y-17097476D01*
X10658572Y-17097476D02*
X10572857Y-17297476D01*
X10715714Y-17097476D02*
X10849048Y-17097476D01*
X10849048Y-17097476D02*
X10763333Y-17297476D01*
X10915714Y-17097476D02*
X10915714Y-17135571D01*
X10991905Y-17097476D02*
X10991905Y-17135571D01*
X11254762Y-17373667D02*
X11245238Y-17364143D01*
X11245238Y-17364143D02*
X11226191Y-17335571D01*
X11226191Y-17335571D02*
X11216667Y-17316524D01*
X11216667Y-17316524D02*
X11207143Y-17287952D01*
X11207143Y-17287952D02*
X11197619Y-17240333D01*
X11197619Y-17240333D02*
X11197619Y-17202238D01*
X11197619Y-17202238D02*
X11207143Y-17154619D01*
X11207143Y-17154619D02*
X11216667Y-17126048D01*
X11216667Y-17126048D02*
X11226191Y-17107000D01*
X11226191Y-17107000D02*
X11245238Y-17078429D01*
X11245238Y-17078429D02*
X11254762Y-17068905D01*
X11369048Y-17097476D02*
X11388095Y-17097476D01*
X11388095Y-17097476D02*
X11407143Y-17107000D01*
X11407143Y-17107000D02*
X11416667Y-17116524D01*
X11416667Y-17116524D02*
X11426191Y-17135571D01*
X11426191Y-17135571D02*
X11435714Y-17173667D01*
X11435714Y-17173667D02*
X11435714Y-17221286D01*
X11435714Y-17221286D02*
X11426191Y-17259381D01*
X11426191Y-17259381D02*
X11416667Y-17278429D01*
X11416667Y-17278429D02*
X11407143Y-17287952D01*
X11407143Y-17287952D02*
X11388095Y-17297476D01*
X11388095Y-17297476D02*
X11369048Y-17297476D01*
X11369048Y-17297476D02*
X11350000Y-17287952D01*
X11350000Y-17287952D02*
X11340476Y-17278429D01*
X11340476Y-17278429D02*
X11330952Y-17259381D01*
X11330952Y-17259381D02*
X11321429Y-17221286D01*
X11321429Y-17221286D02*
X11321429Y-17173667D01*
X11321429Y-17173667D02*
X11330952Y-17135571D01*
X11330952Y-17135571D02*
X11340476Y-17116524D01*
X11340476Y-17116524D02*
X11350000Y-17107000D01*
X11350000Y-17107000D02*
X11369048Y-17097476D01*
X11641429Y-17297476D02*
X11641429Y-17097476D01*
X11727143Y-17297476D02*
X11727143Y-17192714D01*
X11727143Y-17192714D02*
X11717619Y-17173667D01*
X11717619Y-17173667D02*
X11698572Y-17164143D01*
X11698572Y-17164143D02*
X11670000Y-17164143D01*
X11670000Y-17164143D02*
X11650952Y-17173667D01*
X11650952Y-17173667D02*
X11641429Y-17183190D01*
X11850952Y-17297476D02*
X11831905Y-17287952D01*
X11831905Y-17287952D02*
X11822381Y-17278429D01*
X11822381Y-17278429D02*
X11812857Y-17259381D01*
X11812857Y-17259381D02*
X11812857Y-17202238D01*
X11812857Y-17202238D02*
X11822381Y-17183190D01*
X11822381Y-17183190D02*
X11831905Y-17173667D01*
X11831905Y-17173667D02*
X11850952Y-17164143D01*
X11850952Y-17164143D02*
X11879524Y-17164143D01*
X11879524Y-17164143D02*
X11898572Y-17173667D01*
X11898572Y-17173667D02*
X11908095Y-17183190D01*
X11908095Y-17183190D02*
X11917619Y-17202238D01*
X11917619Y-17202238D02*
X11917619Y-17259381D01*
X11917619Y-17259381D02*
X11908095Y-17278429D01*
X11908095Y-17278429D02*
X11898572Y-17287952D01*
X11898572Y-17287952D02*
X11879524Y-17297476D01*
X11879524Y-17297476D02*
X11850952Y-17297476D01*
X12031905Y-17297476D02*
X12012857Y-17287952D01*
X12012857Y-17287952D02*
X12003333Y-17268905D01*
X12003333Y-17268905D02*
X12003333Y-17097476D01*
X12184286Y-17287952D02*
X12165238Y-17297476D01*
X12165238Y-17297476D02*
X12127143Y-17297476D01*
X12127143Y-17297476D02*
X12108095Y-17287952D01*
X12108095Y-17287952D02*
X12098572Y-17268905D01*
X12098572Y-17268905D02*
X12098572Y-17192714D01*
X12098572Y-17192714D02*
X12108095Y-17173667D01*
X12108095Y-17173667D02*
X12127143Y-17164143D01*
X12127143Y-17164143D02*
X12165238Y-17164143D01*
X12165238Y-17164143D02*
X12184286Y-17173667D01*
X12184286Y-17173667D02*
X12193810Y-17192714D01*
X12193810Y-17192714D02*
X12193810Y-17211762D01*
X12193810Y-17211762D02*
X12098572Y-17230810D01*
X12270000Y-17287952D02*
X12289048Y-17297476D01*
X12289048Y-17297476D02*
X12327143Y-17297476D01*
X12327143Y-17297476D02*
X12346191Y-17287952D01*
X12346191Y-17287952D02*
X12355714Y-17268905D01*
X12355714Y-17268905D02*
X12355714Y-17259381D01*
X12355714Y-17259381D02*
X12346191Y-17240333D01*
X12346191Y-17240333D02*
X12327143Y-17230810D01*
X12327143Y-17230810D02*
X12298572Y-17230810D01*
X12298572Y-17230810D02*
X12279524Y-17221286D01*
X12279524Y-17221286D02*
X12270000Y-17202238D01*
X12270000Y-17202238D02*
X12270000Y-17192714D01*
X12270000Y-17192714D02*
X12279524Y-17173667D01*
X12279524Y-17173667D02*
X12298572Y-17164143D01*
X12298572Y-17164143D02*
X12327143Y-17164143D01*
X12327143Y-17164143D02*
X12346191Y-17173667D01*
X12561429Y-17221286D02*
X12713810Y-17221286D01*
X12637619Y-17297476D02*
X12637619Y-17145095D01*
X12919524Y-17116524D02*
X12929048Y-17107000D01*
X12929048Y-17107000D02*
X12948095Y-17097476D01*
X12948095Y-17097476D02*
X12995714Y-17097476D01*
X12995714Y-17097476D02*
X13014762Y-17107000D01*
X13014762Y-17107000D02*
X13024286Y-17116524D01*
X13024286Y-17116524D02*
X13033810Y-17135571D01*
X13033810Y-17135571D02*
X13033810Y-17154619D01*
X13033810Y-17154619D02*
X13024286Y-17183190D01*
X13024286Y-17183190D02*
X12910000Y-17297476D01*
X12910000Y-17297476D02*
X13033810Y-17297476D01*
X13230000Y-17287952D02*
X13249048Y-17297476D01*
X13249048Y-17297476D02*
X13287143Y-17297476D01*
X13287143Y-17297476D02*
X13306191Y-17287952D01*
X13306191Y-17287952D02*
X13315714Y-17268905D01*
X13315714Y-17268905D02*
X13315714Y-17259381D01*
X13315714Y-17259381D02*
X13306191Y-17240333D01*
X13306191Y-17240333D02*
X13287143Y-17230810D01*
X13287143Y-17230810D02*
X13258572Y-17230810D01*
X13258572Y-17230810D02*
X13239524Y-17221286D01*
X13239524Y-17221286D02*
X13230000Y-17202238D01*
X13230000Y-17202238D02*
X13230000Y-17192714D01*
X13230000Y-17192714D02*
X13239524Y-17173667D01*
X13239524Y-17173667D02*
X13258572Y-17164143D01*
X13258572Y-17164143D02*
X13287143Y-17164143D01*
X13287143Y-17164143D02*
X13306191Y-17173667D01*
X13430000Y-17297476D02*
X13410953Y-17287952D01*
X13410953Y-17287952D02*
X13401429Y-17268905D01*
X13401429Y-17268905D02*
X13401429Y-17097476D01*
X13534762Y-17297476D02*
X13515714Y-17287952D01*
X13515714Y-17287952D02*
X13506191Y-17278429D01*
X13506191Y-17278429D02*
X13496667Y-17259381D01*
X13496667Y-17259381D02*
X13496667Y-17202238D01*
X13496667Y-17202238D02*
X13506191Y-17183190D01*
X13506191Y-17183190D02*
X13515714Y-17173667D01*
X13515714Y-17173667D02*
X13534762Y-17164143D01*
X13534762Y-17164143D02*
X13563334Y-17164143D01*
X13563334Y-17164143D02*
X13582381Y-17173667D01*
X13582381Y-17173667D02*
X13591905Y-17183190D01*
X13591905Y-17183190D02*
X13601429Y-17202238D01*
X13601429Y-17202238D02*
X13601429Y-17259381D01*
X13601429Y-17259381D02*
X13591905Y-17278429D01*
X13591905Y-17278429D02*
X13582381Y-17287952D01*
X13582381Y-17287952D02*
X13563334Y-17297476D01*
X13563334Y-17297476D02*
X13534762Y-17297476D01*
X13658572Y-17164143D02*
X13734762Y-17164143D01*
X13687143Y-17097476D02*
X13687143Y-17268905D01*
X13687143Y-17268905D02*
X13696667Y-17287952D01*
X13696667Y-17287952D02*
X13715714Y-17297476D01*
X13715714Y-17297476D02*
X13734762Y-17297476D01*
X13791905Y-17287952D02*
X13810953Y-17297476D01*
X13810953Y-17297476D02*
X13849048Y-17297476D01*
X13849048Y-17297476D02*
X13868095Y-17287952D01*
X13868095Y-17287952D02*
X13877619Y-17268905D01*
X13877619Y-17268905D02*
X13877619Y-17259381D01*
X13877619Y-17259381D02*
X13868095Y-17240333D01*
X13868095Y-17240333D02*
X13849048Y-17230810D01*
X13849048Y-17230810D02*
X13820476Y-17230810D01*
X13820476Y-17230810D02*
X13801429Y-17221286D01*
X13801429Y-17221286D02*
X13791905Y-17202238D01*
X13791905Y-17202238D02*
X13791905Y-17192714D01*
X13791905Y-17192714D02*
X13801429Y-17173667D01*
X13801429Y-17173667D02*
X13820476Y-17164143D01*
X13820476Y-17164143D02*
X13849048Y-17164143D01*
X13849048Y-17164143D02*
X13868095Y-17173667D01*
X13944286Y-17373667D02*
X13953810Y-17364143D01*
X13953810Y-17364143D02*
X13972857Y-17335571D01*
X13972857Y-17335571D02*
X13982381Y-17316524D01*
X13982381Y-17316524D02*
X13991905Y-17287952D01*
X13991905Y-17287952D02*
X14001429Y-17240333D01*
X14001429Y-17240333D02*
X14001429Y-17202238D01*
X14001429Y-17202238D02*
X13991905Y-17154619D01*
X13991905Y-17154619D02*
X13982381Y-17126048D01*
X13982381Y-17126048D02*
X13972857Y-17107000D01*
X13972857Y-17107000D02*
X13953810Y-17078429D01*
X13953810Y-17078429D02*
X13944286Y-17068905D01*
D14*
X7752500Y-17450500D02*
X7752500Y-17525500D01*
X7715000Y-17488000D02*
X7790000Y-17488000D01*
D11*
X8075714Y-17361476D02*
X8094762Y-17361476D01*
X8094762Y-17361476D02*
X8113809Y-17371000D01*
X8113809Y-17371000D02*
X8123333Y-17380524D01*
X8123333Y-17380524D02*
X8132857Y-17399571D01*
X8132857Y-17399571D02*
X8142381Y-17437667D01*
X8142381Y-17437667D02*
X8142381Y-17485286D01*
X8142381Y-17485286D02*
X8132857Y-17523381D01*
X8132857Y-17523381D02*
X8123333Y-17542429D01*
X8123333Y-17542429D02*
X8113809Y-17551952D01*
X8113809Y-17551952D02*
X8094762Y-17561476D01*
X8094762Y-17561476D02*
X8075714Y-17561476D01*
X8075714Y-17561476D02*
X8056667Y-17551952D01*
X8056667Y-17551952D02*
X8047143Y-17542429D01*
X8047143Y-17542429D02*
X8037619Y-17523381D01*
X8037619Y-17523381D02*
X8028095Y-17485286D01*
X8028095Y-17485286D02*
X8028095Y-17437667D01*
X8028095Y-17437667D02*
X8037619Y-17399571D01*
X8037619Y-17399571D02*
X8047143Y-17380524D01*
X8047143Y-17380524D02*
X8056667Y-17371000D01*
X8056667Y-17371000D02*
X8075714Y-17361476D01*
X8228095Y-17542429D02*
X8237619Y-17551952D01*
X8237619Y-17551952D02*
X8228095Y-17561476D01*
X8228095Y-17561476D02*
X8218571Y-17551952D01*
X8218571Y-17551952D02*
X8228095Y-17542429D01*
X8228095Y-17542429D02*
X8228095Y-17561476D01*
X8304286Y-17361476D02*
X8437619Y-17361476D01*
X8437619Y-17361476D02*
X8351905Y-17561476D01*
X8609048Y-17361476D02*
X8513810Y-17361476D01*
X8513810Y-17361476D02*
X8504286Y-17456714D01*
X8504286Y-17456714D02*
X8513810Y-17447190D01*
X8513810Y-17447190D02*
X8532857Y-17437667D01*
X8532857Y-17437667D02*
X8580476Y-17437667D01*
X8580476Y-17437667D02*
X8599524Y-17447190D01*
X8599524Y-17447190D02*
X8609048Y-17456714D01*
X8609048Y-17456714D02*
X8618571Y-17475762D01*
X8618571Y-17475762D02*
X8618571Y-17523381D01*
X8618571Y-17523381D02*
X8609048Y-17542429D01*
X8609048Y-17542429D02*
X8599524Y-17551952D01*
X8599524Y-17551952D02*
X8580476Y-17561476D01*
X8580476Y-17561476D02*
X8532857Y-17561476D01*
X8532857Y-17561476D02*
X8513810Y-17551952D01*
X8513810Y-17551952D02*
X8504286Y-17542429D01*
X8742381Y-17361476D02*
X8761429Y-17361476D01*
X8761429Y-17361476D02*
X8780476Y-17371000D01*
X8780476Y-17371000D02*
X8790000Y-17380524D01*
X8790000Y-17380524D02*
X8799524Y-17399571D01*
X8799524Y-17399571D02*
X8809048Y-17437667D01*
X8809048Y-17437667D02*
X8809048Y-17485286D01*
X8809048Y-17485286D02*
X8799524Y-17523381D01*
X8799524Y-17523381D02*
X8790000Y-17542429D01*
X8790000Y-17542429D02*
X8780476Y-17551952D01*
X8780476Y-17551952D02*
X8761429Y-17561476D01*
X8761429Y-17561476D02*
X8742381Y-17561476D01*
X8742381Y-17561476D02*
X8723333Y-17551952D01*
X8723333Y-17551952D02*
X8713810Y-17542429D01*
X8713810Y-17542429D02*
X8704286Y-17523381D01*
X8704286Y-17523381D02*
X8694762Y-17485286D01*
X8694762Y-17485286D02*
X8694762Y-17437667D01*
X8694762Y-17437667D02*
X8704286Y-17399571D01*
X8704286Y-17399571D02*
X8713810Y-17380524D01*
X8713810Y-17380524D02*
X8723333Y-17371000D01*
X8723333Y-17371000D02*
X8742381Y-17361476D01*
X8894762Y-17561476D02*
X8894762Y-17428143D01*
X8894762Y-17447190D02*
X8904286Y-17437667D01*
X8904286Y-17437667D02*
X8923333Y-17428143D01*
X8923333Y-17428143D02*
X8951905Y-17428143D01*
X8951905Y-17428143D02*
X8970952Y-17437667D01*
X8970952Y-17437667D02*
X8980476Y-17456714D01*
X8980476Y-17456714D02*
X8980476Y-17561476D01*
X8980476Y-17456714D02*
X8990000Y-17437667D01*
X8990000Y-17437667D02*
X9009048Y-17428143D01*
X9009048Y-17428143D02*
X9037619Y-17428143D01*
X9037619Y-17428143D02*
X9056667Y-17437667D01*
X9056667Y-17437667D02*
X9066191Y-17456714D01*
X9066191Y-17456714D02*
X9066191Y-17561476D01*
X9161429Y-17561476D02*
X9161429Y-17428143D01*
X9161429Y-17447190D02*
X9170952Y-17437667D01*
X9170952Y-17437667D02*
X9190000Y-17428143D01*
X9190000Y-17428143D02*
X9218572Y-17428143D01*
X9218572Y-17428143D02*
X9237619Y-17437667D01*
X9237619Y-17437667D02*
X9247143Y-17456714D01*
X9247143Y-17456714D02*
X9247143Y-17561476D01*
X9247143Y-17456714D02*
X9256667Y-17437667D01*
X9256667Y-17437667D02*
X9275714Y-17428143D01*
X9275714Y-17428143D02*
X9304286Y-17428143D01*
X9304286Y-17428143D02*
X9323333Y-17437667D01*
X9323333Y-17437667D02*
X9332857Y-17456714D01*
X9332857Y-17456714D02*
X9332857Y-17561476D01*
X9690952Y-17351952D02*
X9519524Y-17609095D01*
X9915714Y-17361476D02*
X9934762Y-17361476D01*
X9934762Y-17361476D02*
X9953810Y-17371000D01*
X9953810Y-17371000D02*
X9963333Y-17380524D01*
X9963333Y-17380524D02*
X9972857Y-17399571D01*
X9972857Y-17399571D02*
X9982381Y-17437667D01*
X9982381Y-17437667D02*
X9982381Y-17485286D01*
X9982381Y-17485286D02*
X9972857Y-17523381D01*
X9972857Y-17523381D02*
X9963333Y-17542429D01*
X9963333Y-17542429D02*
X9953810Y-17551952D01*
X9953810Y-17551952D02*
X9934762Y-17561476D01*
X9934762Y-17561476D02*
X9915714Y-17561476D01*
X9915714Y-17561476D02*
X9896667Y-17551952D01*
X9896667Y-17551952D02*
X9887143Y-17542429D01*
X9887143Y-17542429D02*
X9877619Y-17523381D01*
X9877619Y-17523381D02*
X9868095Y-17485286D01*
X9868095Y-17485286D02*
X9868095Y-17437667D01*
X9868095Y-17437667D02*
X9877619Y-17399571D01*
X9877619Y-17399571D02*
X9887143Y-17380524D01*
X9887143Y-17380524D02*
X9896667Y-17371000D01*
X9896667Y-17371000D02*
X9915714Y-17361476D01*
X10068095Y-17542429D02*
X10077619Y-17551952D01*
X10077619Y-17551952D02*
X10068095Y-17561476D01*
X10068095Y-17561476D02*
X10058572Y-17551952D01*
X10058572Y-17551952D02*
X10068095Y-17542429D01*
X10068095Y-17542429D02*
X10068095Y-17561476D01*
X10201429Y-17361476D02*
X10220476Y-17361476D01*
X10220476Y-17361476D02*
X10239524Y-17371000D01*
X10239524Y-17371000D02*
X10249048Y-17380524D01*
X10249048Y-17380524D02*
X10258572Y-17399571D01*
X10258572Y-17399571D02*
X10268095Y-17437667D01*
X10268095Y-17437667D02*
X10268095Y-17485286D01*
X10268095Y-17485286D02*
X10258572Y-17523381D01*
X10258572Y-17523381D02*
X10249048Y-17542429D01*
X10249048Y-17542429D02*
X10239524Y-17551952D01*
X10239524Y-17551952D02*
X10220476Y-17561476D01*
X10220476Y-17561476D02*
X10201429Y-17561476D01*
X10201429Y-17561476D02*
X10182381Y-17551952D01*
X10182381Y-17551952D02*
X10172857Y-17542429D01*
X10172857Y-17542429D02*
X10163333Y-17523381D01*
X10163333Y-17523381D02*
X10153810Y-17485286D01*
X10153810Y-17485286D02*
X10153810Y-17437667D01*
X10153810Y-17437667D02*
X10163333Y-17399571D01*
X10163333Y-17399571D02*
X10172857Y-17380524D01*
X10172857Y-17380524D02*
X10182381Y-17371000D01*
X10182381Y-17371000D02*
X10201429Y-17361476D01*
X10344286Y-17380524D02*
X10353810Y-17371000D01*
X10353810Y-17371000D02*
X10372857Y-17361476D01*
X10372857Y-17361476D02*
X10420476Y-17361476D01*
X10420476Y-17361476D02*
X10439524Y-17371000D01*
X10439524Y-17371000D02*
X10449048Y-17380524D01*
X10449048Y-17380524D02*
X10458572Y-17399571D01*
X10458572Y-17399571D02*
X10458572Y-17418619D01*
X10458572Y-17418619D02*
X10449048Y-17447190D01*
X10449048Y-17447190D02*
X10334762Y-17561476D01*
X10334762Y-17561476D02*
X10458572Y-17561476D01*
X10553810Y-17561476D02*
X10591905Y-17561476D01*
X10591905Y-17561476D02*
X10610953Y-17551952D01*
X10610953Y-17551952D02*
X10620476Y-17542429D01*
X10620476Y-17542429D02*
X10639524Y-17513857D01*
X10639524Y-17513857D02*
X10649048Y-17475762D01*
X10649048Y-17475762D02*
X10649048Y-17399571D01*
X10649048Y-17399571D02*
X10639524Y-17380524D01*
X10639524Y-17380524D02*
X10630000Y-17371000D01*
X10630000Y-17371000D02*
X10610953Y-17361476D01*
X10610953Y-17361476D02*
X10572857Y-17361476D01*
X10572857Y-17361476D02*
X10553810Y-17371000D01*
X10553810Y-17371000D02*
X10544286Y-17380524D01*
X10544286Y-17380524D02*
X10534762Y-17399571D01*
X10534762Y-17399571D02*
X10534762Y-17447190D01*
X10534762Y-17447190D02*
X10544286Y-17466238D01*
X10544286Y-17466238D02*
X10553810Y-17475762D01*
X10553810Y-17475762D02*
X10572857Y-17485286D01*
X10572857Y-17485286D02*
X10610953Y-17485286D01*
X10610953Y-17485286D02*
X10630000Y-17475762D01*
X10630000Y-17475762D02*
X10639524Y-17466238D01*
X10639524Y-17466238D02*
X10649048Y-17447190D01*
X10830000Y-17361476D02*
X10734762Y-17361476D01*
X10734762Y-17361476D02*
X10725238Y-17456714D01*
X10725238Y-17456714D02*
X10734762Y-17447190D01*
X10734762Y-17447190D02*
X10753810Y-17437667D01*
X10753810Y-17437667D02*
X10801429Y-17437667D01*
X10801429Y-17437667D02*
X10820476Y-17447190D01*
X10820476Y-17447190D02*
X10830000Y-17456714D01*
X10830000Y-17456714D02*
X10839524Y-17475762D01*
X10839524Y-17475762D02*
X10839524Y-17523381D01*
X10839524Y-17523381D02*
X10830000Y-17542429D01*
X10830000Y-17542429D02*
X10820476Y-17551952D01*
X10820476Y-17551952D02*
X10801429Y-17561476D01*
X10801429Y-17561476D02*
X10753810Y-17561476D01*
X10753810Y-17561476D02*
X10734762Y-17551952D01*
X10734762Y-17551952D02*
X10725238Y-17542429D01*
X10915714Y-17361476D02*
X10915714Y-17399571D01*
X10991905Y-17361476D02*
X10991905Y-17399571D01*
X11254762Y-17637667D02*
X11245238Y-17628143D01*
X11245238Y-17628143D02*
X11226191Y-17599571D01*
X11226191Y-17599571D02*
X11216667Y-17580524D01*
X11216667Y-17580524D02*
X11207143Y-17551952D01*
X11207143Y-17551952D02*
X11197619Y-17504333D01*
X11197619Y-17504333D02*
X11197619Y-17466238D01*
X11197619Y-17466238D02*
X11207143Y-17418619D01*
X11207143Y-17418619D02*
X11216667Y-17390048D01*
X11216667Y-17390048D02*
X11226191Y-17371000D01*
X11226191Y-17371000D02*
X11245238Y-17342429D01*
X11245238Y-17342429D02*
X11254762Y-17332905D01*
X11321429Y-17380524D02*
X11330952Y-17371000D01*
X11330952Y-17371000D02*
X11350000Y-17361476D01*
X11350000Y-17361476D02*
X11397619Y-17361476D01*
X11397619Y-17361476D02*
X11416667Y-17371000D01*
X11416667Y-17371000D02*
X11426191Y-17380524D01*
X11426191Y-17380524D02*
X11435714Y-17399571D01*
X11435714Y-17399571D02*
X11435714Y-17418619D01*
X11435714Y-17418619D02*
X11426191Y-17447190D01*
X11426191Y-17447190D02*
X11311905Y-17561476D01*
X11311905Y-17561476D02*
X11435714Y-17561476D01*
X11607143Y-17428143D02*
X11607143Y-17561476D01*
X11559524Y-17351952D02*
X11511905Y-17494810D01*
X11511905Y-17494810D02*
X11635714Y-17494810D01*
X11831905Y-17561476D02*
X11831905Y-17361476D01*
X11917619Y-17561476D02*
X11917619Y-17456714D01*
X11917619Y-17456714D02*
X11908095Y-17437667D01*
X11908095Y-17437667D02*
X11889048Y-17428143D01*
X11889048Y-17428143D02*
X11860476Y-17428143D01*
X11860476Y-17428143D02*
X11841429Y-17437667D01*
X11841429Y-17437667D02*
X11831905Y-17447190D01*
X12041429Y-17561476D02*
X12022381Y-17551952D01*
X12022381Y-17551952D02*
X12012857Y-17542429D01*
X12012857Y-17542429D02*
X12003333Y-17523381D01*
X12003333Y-17523381D02*
X12003333Y-17466238D01*
X12003333Y-17466238D02*
X12012857Y-17447190D01*
X12012857Y-17447190D02*
X12022381Y-17437667D01*
X12022381Y-17437667D02*
X12041429Y-17428143D01*
X12041429Y-17428143D02*
X12070000Y-17428143D01*
X12070000Y-17428143D02*
X12089048Y-17437667D01*
X12089048Y-17437667D02*
X12098572Y-17447190D01*
X12098572Y-17447190D02*
X12108095Y-17466238D01*
X12108095Y-17466238D02*
X12108095Y-17523381D01*
X12108095Y-17523381D02*
X12098572Y-17542429D01*
X12098572Y-17542429D02*
X12089048Y-17551952D01*
X12089048Y-17551952D02*
X12070000Y-17561476D01*
X12070000Y-17561476D02*
X12041429Y-17561476D01*
X12222381Y-17561476D02*
X12203333Y-17551952D01*
X12203333Y-17551952D02*
X12193810Y-17532905D01*
X12193810Y-17532905D02*
X12193810Y-17361476D01*
X12374762Y-17551952D02*
X12355714Y-17561476D01*
X12355714Y-17561476D02*
X12317619Y-17561476D01*
X12317619Y-17561476D02*
X12298572Y-17551952D01*
X12298572Y-17551952D02*
X12289048Y-17532905D01*
X12289048Y-17532905D02*
X12289048Y-17456714D01*
X12289048Y-17456714D02*
X12298572Y-17437667D01*
X12298572Y-17437667D02*
X12317619Y-17428143D01*
X12317619Y-17428143D02*
X12355714Y-17428143D01*
X12355714Y-17428143D02*
X12374762Y-17437667D01*
X12374762Y-17437667D02*
X12384286Y-17456714D01*
X12384286Y-17456714D02*
X12384286Y-17475762D01*
X12384286Y-17475762D02*
X12289048Y-17494810D01*
X12460476Y-17551952D02*
X12479524Y-17561476D01*
X12479524Y-17561476D02*
X12517619Y-17561476D01*
X12517619Y-17561476D02*
X12536667Y-17551952D01*
X12536667Y-17551952D02*
X12546191Y-17532905D01*
X12546191Y-17532905D02*
X12546191Y-17523381D01*
X12546191Y-17523381D02*
X12536667Y-17504333D01*
X12536667Y-17504333D02*
X12517619Y-17494810D01*
X12517619Y-17494810D02*
X12489048Y-17494810D01*
X12489048Y-17494810D02*
X12470000Y-17485286D01*
X12470000Y-17485286D02*
X12460476Y-17466238D01*
X12460476Y-17466238D02*
X12460476Y-17456714D01*
X12460476Y-17456714D02*
X12470000Y-17437667D01*
X12470000Y-17437667D02*
X12489048Y-17428143D01*
X12489048Y-17428143D02*
X12517619Y-17428143D01*
X12517619Y-17428143D02*
X12536667Y-17437667D01*
X12612857Y-17637667D02*
X12622381Y-17628143D01*
X12622381Y-17628143D02*
X12641429Y-17599571D01*
X12641429Y-17599571D02*
X12650953Y-17580524D01*
X12650953Y-17580524D02*
X12660476Y-17551952D01*
X12660476Y-17551952D02*
X12670000Y-17504333D01*
X12670000Y-17504333D02*
X12670000Y-17466238D01*
X12670000Y-17466238D02*
X12660476Y-17418619D01*
X12660476Y-17418619D02*
X12650953Y-17390048D01*
X12650953Y-17390048D02*
X12641429Y-17371000D01*
X12641429Y-17371000D02*
X12622381Y-17342429D01*
X12622381Y-17342429D02*
X12612857Y-17332905D01*
D15*
X7778284Y-17780285D02*
X7778284Y-17723716D01*
X7721715Y-17723716D01*
X7721715Y-17780285D01*
X7778284Y-17780285D01*
D11*
X8075714Y-17625476D02*
X8094762Y-17625476D01*
X8094762Y-17625476D02*
X8113809Y-17635000D01*
X8113809Y-17635000D02*
X8123333Y-17644524D01*
X8123333Y-17644524D02*
X8132857Y-17663571D01*
X8132857Y-17663571D02*
X8142381Y-17701667D01*
X8142381Y-17701667D02*
X8142381Y-17749286D01*
X8142381Y-17749286D02*
X8132857Y-17787381D01*
X8132857Y-17787381D02*
X8123333Y-17806429D01*
X8123333Y-17806429D02*
X8113809Y-17815952D01*
X8113809Y-17815952D02*
X8094762Y-17825476D01*
X8094762Y-17825476D02*
X8075714Y-17825476D01*
X8075714Y-17825476D02*
X8056667Y-17815952D01*
X8056667Y-17815952D02*
X8047143Y-17806429D01*
X8047143Y-17806429D02*
X8037619Y-17787381D01*
X8037619Y-17787381D02*
X8028095Y-17749286D01*
X8028095Y-17749286D02*
X8028095Y-17701667D01*
X8028095Y-17701667D02*
X8037619Y-17663571D01*
X8037619Y-17663571D02*
X8047143Y-17644524D01*
X8047143Y-17644524D02*
X8056667Y-17635000D01*
X8056667Y-17635000D02*
X8075714Y-17625476D01*
X8228095Y-17806429D02*
X8237619Y-17815952D01*
X8237619Y-17815952D02*
X8228095Y-17825476D01*
X8228095Y-17825476D02*
X8218571Y-17815952D01*
X8218571Y-17815952D02*
X8228095Y-17806429D01*
X8228095Y-17806429D02*
X8228095Y-17825476D01*
X8351905Y-17711190D02*
X8332857Y-17701667D01*
X8332857Y-17701667D02*
X8323333Y-17692143D01*
X8323333Y-17692143D02*
X8313809Y-17673095D01*
X8313809Y-17673095D02*
X8313809Y-17663571D01*
X8313809Y-17663571D02*
X8323333Y-17644524D01*
X8323333Y-17644524D02*
X8332857Y-17635000D01*
X8332857Y-17635000D02*
X8351905Y-17625476D01*
X8351905Y-17625476D02*
X8390000Y-17625476D01*
X8390000Y-17625476D02*
X8409048Y-17635000D01*
X8409048Y-17635000D02*
X8418571Y-17644524D01*
X8418571Y-17644524D02*
X8428095Y-17663571D01*
X8428095Y-17663571D02*
X8428095Y-17673095D01*
X8428095Y-17673095D02*
X8418571Y-17692143D01*
X8418571Y-17692143D02*
X8409048Y-17701667D01*
X8409048Y-17701667D02*
X8390000Y-17711190D01*
X8390000Y-17711190D02*
X8351905Y-17711190D01*
X8351905Y-17711190D02*
X8332857Y-17720714D01*
X8332857Y-17720714D02*
X8323333Y-17730238D01*
X8323333Y-17730238D02*
X8313809Y-17749286D01*
X8313809Y-17749286D02*
X8313809Y-17787381D01*
X8313809Y-17787381D02*
X8323333Y-17806429D01*
X8323333Y-17806429D02*
X8332857Y-17815952D01*
X8332857Y-17815952D02*
X8351905Y-17825476D01*
X8351905Y-17825476D02*
X8390000Y-17825476D01*
X8390000Y-17825476D02*
X8409048Y-17815952D01*
X8409048Y-17815952D02*
X8418571Y-17806429D01*
X8418571Y-17806429D02*
X8428095Y-17787381D01*
X8428095Y-17787381D02*
X8428095Y-17749286D01*
X8428095Y-17749286D02*
X8418571Y-17730238D01*
X8418571Y-17730238D02*
X8409048Y-17720714D01*
X8409048Y-17720714D02*
X8390000Y-17711190D01*
X8551905Y-17625476D02*
X8570952Y-17625476D01*
X8570952Y-17625476D02*
X8590000Y-17635000D01*
X8590000Y-17635000D02*
X8599524Y-17644524D01*
X8599524Y-17644524D02*
X8609048Y-17663571D01*
X8609048Y-17663571D02*
X8618571Y-17701667D01*
X8618571Y-17701667D02*
X8618571Y-17749286D01*
X8618571Y-17749286D02*
X8609048Y-17787381D01*
X8609048Y-17787381D02*
X8599524Y-17806429D01*
X8599524Y-17806429D02*
X8590000Y-17815952D01*
X8590000Y-17815952D02*
X8570952Y-17825476D01*
X8570952Y-17825476D02*
X8551905Y-17825476D01*
X8551905Y-17825476D02*
X8532857Y-17815952D01*
X8532857Y-17815952D02*
X8523333Y-17806429D01*
X8523333Y-17806429D02*
X8513810Y-17787381D01*
X8513810Y-17787381D02*
X8504286Y-17749286D01*
X8504286Y-17749286D02*
X8504286Y-17701667D01*
X8504286Y-17701667D02*
X8513810Y-17663571D01*
X8513810Y-17663571D02*
X8523333Y-17644524D01*
X8523333Y-17644524D02*
X8532857Y-17635000D01*
X8532857Y-17635000D02*
X8551905Y-17625476D01*
X8742381Y-17625476D02*
X8761429Y-17625476D01*
X8761429Y-17625476D02*
X8780476Y-17635000D01*
X8780476Y-17635000D02*
X8790000Y-17644524D01*
X8790000Y-17644524D02*
X8799524Y-17663571D01*
X8799524Y-17663571D02*
X8809048Y-17701667D01*
X8809048Y-17701667D02*
X8809048Y-17749286D01*
X8809048Y-17749286D02*
X8799524Y-17787381D01*
X8799524Y-17787381D02*
X8790000Y-17806429D01*
X8790000Y-17806429D02*
X8780476Y-17815952D01*
X8780476Y-17815952D02*
X8761429Y-17825476D01*
X8761429Y-17825476D02*
X8742381Y-17825476D01*
X8742381Y-17825476D02*
X8723333Y-17815952D01*
X8723333Y-17815952D02*
X8713810Y-17806429D01*
X8713810Y-17806429D02*
X8704286Y-17787381D01*
X8704286Y-17787381D02*
X8694762Y-17749286D01*
X8694762Y-17749286D02*
X8694762Y-17701667D01*
X8694762Y-17701667D02*
X8704286Y-17663571D01*
X8704286Y-17663571D02*
X8713810Y-17644524D01*
X8713810Y-17644524D02*
X8723333Y-17635000D01*
X8723333Y-17635000D02*
X8742381Y-17625476D01*
X8894762Y-17825476D02*
X8894762Y-17692143D01*
X8894762Y-17711190D02*
X8904286Y-17701667D01*
X8904286Y-17701667D02*
X8923333Y-17692143D01*
X8923333Y-17692143D02*
X8951905Y-17692143D01*
X8951905Y-17692143D02*
X8970952Y-17701667D01*
X8970952Y-17701667D02*
X8980476Y-17720714D01*
X8980476Y-17720714D02*
X8980476Y-17825476D01*
X8980476Y-17720714D02*
X8990000Y-17701667D01*
X8990000Y-17701667D02*
X9009048Y-17692143D01*
X9009048Y-17692143D02*
X9037619Y-17692143D01*
X9037619Y-17692143D02*
X9056667Y-17701667D01*
X9056667Y-17701667D02*
X9066191Y-17720714D01*
X9066191Y-17720714D02*
X9066191Y-17825476D01*
X9161429Y-17825476D02*
X9161429Y-17692143D01*
X9161429Y-17711190D02*
X9170952Y-17701667D01*
X9170952Y-17701667D02*
X9190000Y-17692143D01*
X9190000Y-17692143D02*
X9218572Y-17692143D01*
X9218572Y-17692143D02*
X9237619Y-17701667D01*
X9237619Y-17701667D02*
X9247143Y-17720714D01*
X9247143Y-17720714D02*
X9247143Y-17825476D01*
X9247143Y-17720714D02*
X9256667Y-17701667D01*
X9256667Y-17701667D02*
X9275714Y-17692143D01*
X9275714Y-17692143D02*
X9304286Y-17692143D01*
X9304286Y-17692143D02*
X9323333Y-17701667D01*
X9323333Y-17701667D02*
X9332857Y-17720714D01*
X9332857Y-17720714D02*
X9332857Y-17825476D01*
X9690952Y-17615952D02*
X9519524Y-17873095D01*
X9915714Y-17625476D02*
X9934762Y-17625476D01*
X9934762Y-17625476D02*
X9953810Y-17635000D01*
X9953810Y-17635000D02*
X9963333Y-17644524D01*
X9963333Y-17644524D02*
X9972857Y-17663571D01*
X9972857Y-17663571D02*
X9982381Y-17701667D01*
X9982381Y-17701667D02*
X9982381Y-17749286D01*
X9982381Y-17749286D02*
X9972857Y-17787381D01*
X9972857Y-17787381D02*
X9963333Y-17806429D01*
X9963333Y-17806429D02*
X9953810Y-17815952D01*
X9953810Y-17815952D02*
X9934762Y-17825476D01*
X9934762Y-17825476D02*
X9915714Y-17825476D01*
X9915714Y-17825476D02*
X9896667Y-17815952D01*
X9896667Y-17815952D02*
X9887143Y-17806429D01*
X9887143Y-17806429D02*
X9877619Y-17787381D01*
X9877619Y-17787381D02*
X9868095Y-17749286D01*
X9868095Y-17749286D02*
X9868095Y-17701667D01*
X9868095Y-17701667D02*
X9877619Y-17663571D01*
X9877619Y-17663571D02*
X9887143Y-17644524D01*
X9887143Y-17644524D02*
X9896667Y-17635000D01*
X9896667Y-17635000D02*
X9915714Y-17625476D01*
X10068095Y-17806429D02*
X10077619Y-17815952D01*
X10077619Y-17815952D02*
X10068095Y-17825476D01*
X10068095Y-17825476D02*
X10058572Y-17815952D01*
X10058572Y-17815952D02*
X10068095Y-17806429D01*
X10068095Y-17806429D02*
X10068095Y-17825476D01*
X10201429Y-17625476D02*
X10220476Y-17625476D01*
X10220476Y-17625476D02*
X10239524Y-17635000D01*
X10239524Y-17635000D02*
X10249048Y-17644524D01*
X10249048Y-17644524D02*
X10258572Y-17663571D01*
X10258572Y-17663571D02*
X10268095Y-17701667D01*
X10268095Y-17701667D02*
X10268095Y-17749286D01*
X10268095Y-17749286D02*
X10258572Y-17787381D01*
X10258572Y-17787381D02*
X10249048Y-17806429D01*
X10249048Y-17806429D02*
X10239524Y-17815952D01*
X10239524Y-17815952D02*
X10220476Y-17825476D01*
X10220476Y-17825476D02*
X10201429Y-17825476D01*
X10201429Y-17825476D02*
X10182381Y-17815952D01*
X10182381Y-17815952D02*
X10172857Y-17806429D01*
X10172857Y-17806429D02*
X10163333Y-17787381D01*
X10163333Y-17787381D02*
X10153810Y-17749286D01*
X10153810Y-17749286D02*
X10153810Y-17701667D01*
X10153810Y-17701667D02*
X10163333Y-17663571D01*
X10163333Y-17663571D02*
X10172857Y-17644524D01*
X10172857Y-17644524D02*
X10182381Y-17635000D01*
X10182381Y-17635000D02*
X10201429Y-17625476D01*
X10334762Y-17625476D02*
X10458572Y-17625476D01*
X10458572Y-17625476D02*
X10391905Y-17701667D01*
X10391905Y-17701667D02*
X10420476Y-17701667D01*
X10420476Y-17701667D02*
X10439524Y-17711190D01*
X10439524Y-17711190D02*
X10449048Y-17720714D01*
X10449048Y-17720714D02*
X10458572Y-17739762D01*
X10458572Y-17739762D02*
X10458572Y-17787381D01*
X10458572Y-17787381D02*
X10449048Y-17806429D01*
X10449048Y-17806429D02*
X10439524Y-17815952D01*
X10439524Y-17815952D02*
X10420476Y-17825476D01*
X10420476Y-17825476D02*
X10363333Y-17825476D01*
X10363333Y-17825476D02*
X10344286Y-17815952D01*
X10344286Y-17815952D02*
X10334762Y-17806429D01*
X10649048Y-17825476D02*
X10534762Y-17825476D01*
X10591905Y-17825476D02*
X10591905Y-17625476D01*
X10591905Y-17625476D02*
X10572857Y-17654048D01*
X10572857Y-17654048D02*
X10553810Y-17673095D01*
X10553810Y-17673095D02*
X10534762Y-17682619D01*
X10830000Y-17625476D02*
X10734762Y-17625476D01*
X10734762Y-17625476D02*
X10725238Y-17720714D01*
X10725238Y-17720714D02*
X10734762Y-17711190D01*
X10734762Y-17711190D02*
X10753810Y-17701667D01*
X10753810Y-17701667D02*
X10801429Y-17701667D01*
X10801429Y-17701667D02*
X10820476Y-17711190D01*
X10820476Y-17711190D02*
X10830000Y-17720714D01*
X10830000Y-17720714D02*
X10839524Y-17739762D01*
X10839524Y-17739762D02*
X10839524Y-17787381D01*
X10839524Y-17787381D02*
X10830000Y-17806429D01*
X10830000Y-17806429D02*
X10820476Y-17815952D01*
X10820476Y-17815952D02*
X10801429Y-17825476D01*
X10801429Y-17825476D02*
X10753810Y-17825476D01*
X10753810Y-17825476D02*
X10734762Y-17815952D01*
X10734762Y-17815952D02*
X10725238Y-17806429D01*
X10915714Y-17625476D02*
X10915714Y-17663571D01*
X10991905Y-17625476D02*
X10991905Y-17663571D01*
X11254762Y-17901667D02*
X11245238Y-17892143D01*
X11245238Y-17892143D02*
X11226191Y-17863571D01*
X11226191Y-17863571D02*
X11216667Y-17844524D01*
X11216667Y-17844524D02*
X11207143Y-17815952D01*
X11207143Y-17815952D02*
X11197619Y-17768333D01*
X11197619Y-17768333D02*
X11197619Y-17730238D01*
X11197619Y-17730238D02*
X11207143Y-17682619D01*
X11207143Y-17682619D02*
X11216667Y-17654048D01*
X11216667Y-17654048D02*
X11226191Y-17635000D01*
X11226191Y-17635000D02*
X11245238Y-17606429D01*
X11245238Y-17606429D02*
X11254762Y-17596905D01*
X11426191Y-17625476D02*
X11330952Y-17625476D01*
X11330952Y-17625476D02*
X11321429Y-17720714D01*
X11321429Y-17720714D02*
X11330952Y-17711190D01*
X11330952Y-17711190D02*
X11350000Y-17701667D01*
X11350000Y-17701667D02*
X11397619Y-17701667D01*
X11397619Y-17701667D02*
X11416667Y-17711190D01*
X11416667Y-17711190D02*
X11426191Y-17720714D01*
X11426191Y-17720714D02*
X11435714Y-17739762D01*
X11435714Y-17739762D02*
X11435714Y-17787381D01*
X11435714Y-17787381D02*
X11426191Y-17806429D01*
X11426191Y-17806429D02*
X11416667Y-17815952D01*
X11416667Y-17815952D02*
X11397619Y-17825476D01*
X11397619Y-17825476D02*
X11350000Y-17825476D01*
X11350000Y-17825476D02*
X11330952Y-17815952D01*
X11330952Y-17815952D02*
X11321429Y-17806429D01*
X11559524Y-17625476D02*
X11578572Y-17625476D01*
X11578572Y-17625476D02*
X11597619Y-17635000D01*
X11597619Y-17635000D02*
X11607143Y-17644524D01*
X11607143Y-17644524D02*
X11616667Y-17663571D01*
X11616667Y-17663571D02*
X11626191Y-17701667D01*
X11626191Y-17701667D02*
X11626191Y-17749286D01*
X11626191Y-17749286D02*
X11616667Y-17787381D01*
X11616667Y-17787381D02*
X11607143Y-17806429D01*
X11607143Y-17806429D02*
X11597619Y-17815952D01*
X11597619Y-17815952D02*
X11578572Y-17825476D01*
X11578572Y-17825476D02*
X11559524Y-17825476D01*
X11559524Y-17825476D02*
X11540476Y-17815952D01*
X11540476Y-17815952D02*
X11530952Y-17806429D01*
X11530952Y-17806429D02*
X11521429Y-17787381D01*
X11521429Y-17787381D02*
X11511905Y-17749286D01*
X11511905Y-17749286D02*
X11511905Y-17701667D01*
X11511905Y-17701667D02*
X11521429Y-17663571D01*
X11521429Y-17663571D02*
X11530952Y-17644524D01*
X11530952Y-17644524D02*
X11540476Y-17635000D01*
X11540476Y-17635000D02*
X11559524Y-17625476D01*
X11831905Y-17825476D02*
X11831905Y-17625476D01*
X11917619Y-17825476D02*
X11917619Y-17720714D01*
X11917619Y-17720714D02*
X11908095Y-17701667D01*
X11908095Y-17701667D02*
X11889048Y-17692143D01*
X11889048Y-17692143D02*
X11860476Y-17692143D01*
X11860476Y-17692143D02*
X11841429Y-17701667D01*
X11841429Y-17701667D02*
X11831905Y-17711190D01*
X12041429Y-17825476D02*
X12022381Y-17815952D01*
X12022381Y-17815952D02*
X12012857Y-17806429D01*
X12012857Y-17806429D02*
X12003333Y-17787381D01*
X12003333Y-17787381D02*
X12003333Y-17730238D01*
X12003333Y-17730238D02*
X12012857Y-17711190D01*
X12012857Y-17711190D02*
X12022381Y-17701667D01*
X12022381Y-17701667D02*
X12041429Y-17692143D01*
X12041429Y-17692143D02*
X12070000Y-17692143D01*
X12070000Y-17692143D02*
X12089048Y-17701667D01*
X12089048Y-17701667D02*
X12098572Y-17711190D01*
X12098572Y-17711190D02*
X12108095Y-17730238D01*
X12108095Y-17730238D02*
X12108095Y-17787381D01*
X12108095Y-17787381D02*
X12098572Y-17806429D01*
X12098572Y-17806429D02*
X12089048Y-17815952D01*
X12089048Y-17815952D02*
X12070000Y-17825476D01*
X12070000Y-17825476D02*
X12041429Y-17825476D01*
X12222381Y-17825476D02*
X12203333Y-17815952D01*
X12203333Y-17815952D02*
X12193810Y-17796905D01*
X12193810Y-17796905D02*
X12193810Y-17625476D01*
X12374762Y-17815952D02*
X12355714Y-17825476D01*
X12355714Y-17825476D02*
X12317619Y-17825476D01*
X12317619Y-17825476D02*
X12298572Y-17815952D01*
X12298572Y-17815952D02*
X12289048Y-17796905D01*
X12289048Y-17796905D02*
X12289048Y-17720714D01*
X12289048Y-17720714D02*
X12298572Y-17701667D01*
X12298572Y-17701667D02*
X12317619Y-17692143D01*
X12317619Y-17692143D02*
X12355714Y-17692143D01*
X12355714Y-17692143D02*
X12374762Y-17701667D01*
X12374762Y-17701667D02*
X12384286Y-17720714D01*
X12384286Y-17720714D02*
X12384286Y-17739762D01*
X12384286Y-17739762D02*
X12289048Y-17758810D01*
X12460476Y-17815952D02*
X12479524Y-17825476D01*
X12479524Y-17825476D02*
X12517619Y-17825476D01*
X12517619Y-17825476D02*
X12536667Y-17815952D01*
X12536667Y-17815952D02*
X12546191Y-17796905D01*
X12546191Y-17796905D02*
X12546191Y-17787381D01*
X12546191Y-17787381D02*
X12536667Y-17768333D01*
X12536667Y-17768333D02*
X12517619Y-17758810D01*
X12517619Y-17758810D02*
X12489048Y-17758810D01*
X12489048Y-17758810D02*
X12470000Y-17749286D01*
X12470000Y-17749286D02*
X12460476Y-17730238D01*
X12460476Y-17730238D02*
X12460476Y-17720714D01*
X12460476Y-17720714D02*
X12470000Y-17701667D01*
X12470000Y-17701667D02*
X12489048Y-17692143D01*
X12489048Y-17692143D02*
X12517619Y-17692143D01*
X12517619Y-17692143D02*
X12536667Y-17701667D01*
X12612857Y-17901667D02*
X12622381Y-17892143D01*
X12622381Y-17892143D02*
X12641429Y-17863571D01*
X12641429Y-17863571D02*
X12650953Y-17844524D01*
X12650953Y-17844524D02*
X12660476Y-17815952D01*
X12660476Y-17815952D02*
X12670000Y-17768333D01*
X12670000Y-17768333D02*
X12670000Y-17730238D01*
X12670000Y-17730238D02*
X12660476Y-17682619D01*
X12660476Y-17682619D02*
X12650953Y-17654048D01*
X12650953Y-17654048D02*
X12641429Y-17635000D01*
X12641429Y-17635000D02*
X12622381Y-17606429D01*
X12622381Y-17606429D02*
X12612857Y-17596905D01*
D16*
X7745000Y-18061000D02*
X7790000Y-18016000D01*
X7745000Y-17971000D01*
X7700000Y-18016000D01*
X7745000Y-18061000D01*
D11*
X8075714Y-17889476D02*
X8094762Y-17889476D01*
X8094762Y-17889476D02*
X8113809Y-17899000D01*
X8113809Y-17899000D02*
X8123333Y-17908524D01*
X8123333Y-17908524D02*
X8132857Y-17927571D01*
X8132857Y-17927571D02*
X8142381Y-17965667D01*
X8142381Y-17965667D02*
X8142381Y-18013286D01*
X8142381Y-18013286D02*
X8132857Y-18051381D01*
X8132857Y-18051381D02*
X8123333Y-18070429D01*
X8123333Y-18070429D02*
X8113809Y-18079952D01*
X8113809Y-18079952D02*
X8094762Y-18089476D01*
X8094762Y-18089476D02*
X8075714Y-18089476D01*
X8075714Y-18089476D02*
X8056667Y-18079952D01*
X8056667Y-18079952D02*
X8047143Y-18070429D01*
X8047143Y-18070429D02*
X8037619Y-18051381D01*
X8037619Y-18051381D02*
X8028095Y-18013286D01*
X8028095Y-18013286D02*
X8028095Y-17965667D01*
X8028095Y-17965667D02*
X8037619Y-17927571D01*
X8037619Y-17927571D02*
X8047143Y-17908524D01*
X8047143Y-17908524D02*
X8056667Y-17899000D01*
X8056667Y-17899000D02*
X8075714Y-17889476D01*
X8228095Y-18070429D02*
X8237619Y-18079952D01*
X8237619Y-18079952D02*
X8228095Y-18089476D01*
X8228095Y-18089476D02*
X8218571Y-18079952D01*
X8218571Y-18079952D02*
X8228095Y-18070429D01*
X8228095Y-18070429D02*
X8228095Y-18089476D01*
X8332857Y-18089476D02*
X8370952Y-18089476D01*
X8370952Y-18089476D02*
X8390000Y-18079952D01*
X8390000Y-18079952D02*
X8399524Y-18070429D01*
X8399524Y-18070429D02*
X8418571Y-18041857D01*
X8418571Y-18041857D02*
X8428095Y-18003762D01*
X8428095Y-18003762D02*
X8428095Y-17927571D01*
X8428095Y-17927571D02*
X8418571Y-17908524D01*
X8418571Y-17908524D02*
X8409048Y-17899000D01*
X8409048Y-17899000D02*
X8390000Y-17889476D01*
X8390000Y-17889476D02*
X8351905Y-17889476D01*
X8351905Y-17889476D02*
X8332857Y-17899000D01*
X8332857Y-17899000D02*
X8323333Y-17908524D01*
X8323333Y-17908524D02*
X8313809Y-17927571D01*
X8313809Y-17927571D02*
X8313809Y-17975190D01*
X8313809Y-17975190D02*
X8323333Y-17994238D01*
X8323333Y-17994238D02*
X8332857Y-18003762D01*
X8332857Y-18003762D02*
X8351905Y-18013286D01*
X8351905Y-18013286D02*
X8390000Y-18013286D01*
X8390000Y-18013286D02*
X8409048Y-18003762D01*
X8409048Y-18003762D02*
X8418571Y-17994238D01*
X8418571Y-17994238D02*
X8428095Y-17975190D01*
X8551905Y-17889476D02*
X8570952Y-17889476D01*
X8570952Y-17889476D02*
X8590000Y-17899000D01*
X8590000Y-17899000D02*
X8599524Y-17908524D01*
X8599524Y-17908524D02*
X8609048Y-17927571D01*
X8609048Y-17927571D02*
X8618571Y-17965667D01*
X8618571Y-17965667D02*
X8618571Y-18013286D01*
X8618571Y-18013286D02*
X8609048Y-18051381D01*
X8609048Y-18051381D02*
X8599524Y-18070429D01*
X8599524Y-18070429D02*
X8590000Y-18079952D01*
X8590000Y-18079952D02*
X8570952Y-18089476D01*
X8570952Y-18089476D02*
X8551905Y-18089476D01*
X8551905Y-18089476D02*
X8532857Y-18079952D01*
X8532857Y-18079952D02*
X8523333Y-18070429D01*
X8523333Y-18070429D02*
X8513810Y-18051381D01*
X8513810Y-18051381D02*
X8504286Y-18013286D01*
X8504286Y-18013286D02*
X8504286Y-17965667D01*
X8504286Y-17965667D02*
X8513810Y-17927571D01*
X8513810Y-17927571D02*
X8523333Y-17908524D01*
X8523333Y-17908524D02*
X8532857Y-17899000D01*
X8532857Y-17899000D02*
X8551905Y-17889476D01*
X8742381Y-17889476D02*
X8761429Y-17889476D01*
X8761429Y-17889476D02*
X8780476Y-17899000D01*
X8780476Y-17899000D02*
X8790000Y-17908524D01*
X8790000Y-17908524D02*
X8799524Y-17927571D01*
X8799524Y-17927571D02*
X8809048Y-17965667D01*
X8809048Y-17965667D02*
X8809048Y-18013286D01*
X8809048Y-18013286D02*
X8799524Y-18051381D01*
X8799524Y-18051381D02*
X8790000Y-18070429D01*
X8790000Y-18070429D02*
X8780476Y-18079952D01*
X8780476Y-18079952D02*
X8761429Y-18089476D01*
X8761429Y-18089476D02*
X8742381Y-18089476D01*
X8742381Y-18089476D02*
X8723333Y-18079952D01*
X8723333Y-18079952D02*
X8713810Y-18070429D01*
X8713810Y-18070429D02*
X8704286Y-18051381D01*
X8704286Y-18051381D02*
X8694762Y-18013286D01*
X8694762Y-18013286D02*
X8694762Y-17965667D01*
X8694762Y-17965667D02*
X8704286Y-17927571D01*
X8704286Y-17927571D02*
X8713810Y-17908524D01*
X8713810Y-17908524D02*
X8723333Y-17899000D01*
X8723333Y-17899000D02*
X8742381Y-17889476D01*
X8894762Y-18089476D02*
X8894762Y-17956143D01*
X8894762Y-17975190D02*
X8904286Y-17965667D01*
X8904286Y-17965667D02*
X8923333Y-17956143D01*
X8923333Y-17956143D02*
X8951905Y-17956143D01*
X8951905Y-17956143D02*
X8970952Y-17965667D01*
X8970952Y-17965667D02*
X8980476Y-17984714D01*
X8980476Y-17984714D02*
X8980476Y-18089476D01*
X8980476Y-17984714D02*
X8990000Y-17965667D01*
X8990000Y-17965667D02*
X9009048Y-17956143D01*
X9009048Y-17956143D02*
X9037619Y-17956143D01*
X9037619Y-17956143D02*
X9056667Y-17965667D01*
X9056667Y-17965667D02*
X9066191Y-17984714D01*
X9066191Y-17984714D02*
X9066191Y-18089476D01*
X9161429Y-18089476D02*
X9161429Y-17956143D01*
X9161429Y-17975190D02*
X9170952Y-17965667D01*
X9170952Y-17965667D02*
X9190000Y-17956143D01*
X9190000Y-17956143D02*
X9218572Y-17956143D01*
X9218572Y-17956143D02*
X9237619Y-17965667D01*
X9237619Y-17965667D02*
X9247143Y-17984714D01*
X9247143Y-17984714D02*
X9247143Y-18089476D01*
X9247143Y-17984714D02*
X9256667Y-17965667D01*
X9256667Y-17965667D02*
X9275714Y-17956143D01*
X9275714Y-17956143D02*
X9304286Y-17956143D01*
X9304286Y-17956143D02*
X9323333Y-17965667D01*
X9323333Y-17965667D02*
X9332857Y-17984714D01*
X9332857Y-17984714D02*
X9332857Y-18089476D01*
X9690952Y-17879952D02*
X9519524Y-18137095D01*
X9915714Y-17889476D02*
X9934762Y-17889476D01*
X9934762Y-17889476D02*
X9953810Y-17899000D01*
X9953810Y-17899000D02*
X9963333Y-17908524D01*
X9963333Y-17908524D02*
X9972857Y-17927571D01*
X9972857Y-17927571D02*
X9982381Y-17965667D01*
X9982381Y-17965667D02*
X9982381Y-18013286D01*
X9982381Y-18013286D02*
X9972857Y-18051381D01*
X9972857Y-18051381D02*
X9963333Y-18070429D01*
X9963333Y-18070429D02*
X9953810Y-18079952D01*
X9953810Y-18079952D02*
X9934762Y-18089476D01*
X9934762Y-18089476D02*
X9915714Y-18089476D01*
X9915714Y-18089476D02*
X9896667Y-18079952D01*
X9896667Y-18079952D02*
X9887143Y-18070429D01*
X9887143Y-18070429D02*
X9877619Y-18051381D01*
X9877619Y-18051381D02*
X9868095Y-18013286D01*
X9868095Y-18013286D02*
X9868095Y-17965667D01*
X9868095Y-17965667D02*
X9877619Y-17927571D01*
X9877619Y-17927571D02*
X9887143Y-17908524D01*
X9887143Y-17908524D02*
X9896667Y-17899000D01*
X9896667Y-17899000D02*
X9915714Y-17889476D01*
X10068095Y-18070429D02*
X10077619Y-18079952D01*
X10077619Y-18079952D02*
X10068095Y-18089476D01*
X10068095Y-18089476D02*
X10058572Y-18079952D01*
X10058572Y-18079952D02*
X10068095Y-18070429D01*
X10068095Y-18070429D02*
X10068095Y-18089476D01*
X10201429Y-17889476D02*
X10220476Y-17889476D01*
X10220476Y-17889476D02*
X10239524Y-17899000D01*
X10239524Y-17899000D02*
X10249048Y-17908524D01*
X10249048Y-17908524D02*
X10258572Y-17927571D01*
X10258572Y-17927571D02*
X10268095Y-17965667D01*
X10268095Y-17965667D02*
X10268095Y-18013286D01*
X10268095Y-18013286D02*
X10258572Y-18051381D01*
X10258572Y-18051381D02*
X10249048Y-18070429D01*
X10249048Y-18070429D02*
X10239524Y-18079952D01*
X10239524Y-18079952D02*
X10220476Y-18089476D01*
X10220476Y-18089476D02*
X10201429Y-18089476D01*
X10201429Y-18089476D02*
X10182381Y-18079952D01*
X10182381Y-18079952D02*
X10172857Y-18070429D01*
X10172857Y-18070429D02*
X10163333Y-18051381D01*
X10163333Y-18051381D02*
X10153810Y-18013286D01*
X10153810Y-18013286D02*
X10153810Y-17965667D01*
X10153810Y-17965667D02*
X10163333Y-17927571D01*
X10163333Y-17927571D02*
X10172857Y-17908524D01*
X10172857Y-17908524D02*
X10182381Y-17899000D01*
X10182381Y-17899000D02*
X10201429Y-17889476D01*
X10334762Y-17889476D02*
X10458572Y-17889476D01*
X10458572Y-17889476D02*
X10391905Y-17965667D01*
X10391905Y-17965667D02*
X10420476Y-17965667D01*
X10420476Y-17965667D02*
X10439524Y-17975190D01*
X10439524Y-17975190D02*
X10449048Y-17984714D01*
X10449048Y-17984714D02*
X10458572Y-18003762D01*
X10458572Y-18003762D02*
X10458572Y-18051381D01*
X10458572Y-18051381D02*
X10449048Y-18070429D01*
X10449048Y-18070429D02*
X10439524Y-18079952D01*
X10439524Y-18079952D02*
X10420476Y-18089476D01*
X10420476Y-18089476D02*
X10363333Y-18089476D01*
X10363333Y-18089476D02*
X10344286Y-18079952D01*
X10344286Y-18079952D02*
X10334762Y-18070429D01*
X10639524Y-17889476D02*
X10544286Y-17889476D01*
X10544286Y-17889476D02*
X10534762Y-17984714D01*
X10534762Y-17984714D02*
X10544286Y-17975190D01*
X10544286Y-17975190D02*
X10563333Y-17965667D01*
X10563333Y-17965667D02*
X10610953Y-17965667D01*
X10610953Y-17965667D02*
X10630000Y-17975190D01*
X10630000Y-17975190D02*
X10639524Y-17984714D01*
X10639524Y-17984714D02*
X10649048Y-18003762D01*
X10649048Y-18003762D02*
X10649048Y-18051381D01*
X10649048Y-18051381D02*
X10639524Y-18070429D01*
X10639524Y-18070429D02*
X10630000Y-18079952D01*
X10630000Y-18079952D02*
X10610953Y-18089476D01*
X10610953Y-18089476D02*
X10563333Y-18089476D01*
X10563333Y-18089476D02*
X10544286Y-18079952D01*
X10544286Y-18079952D02*
X10534762Y-18070429D01*
X10820476Y-17956143D02*
X10820476Y-18089476D01*
X10772857Y-17879952D02*
X10725238Y-18022810D01*
X10725238Y-18022810D02*
X10849048Y-18022810D01*
X10915714Y-17889476D02*
X10915714Y-17927571D01*
X10991905Y-17889476D02*
X10991905Y-17927571D01*
X11254762Y-18165667D02*
X11245238Y-18156143D01*
X11245238Y-18156143D02*
X11226191Y-18127571D01*
X11226191Y-18127571D02*
X11216667Y-18108524D01*
X11216667Y-18108524D02*
X11207143Y-18079952D01*
X11207143Y-18079952D02*
X11197619Y-18032333D01*
X11197619Y-18032333D02*
X11197619Y-17994238D01*
X11197619Y-17994238D02*
X11207143Y-17946619D01*
X11207143Y-17946619D02*
X11216667Y-17918048D01*
X11216667Y-17918048D02*
X11226191Y-17899000D01*
X11226191Y-17899000D02*
X11245238Y-17870429D01*
X11245238Y-17870429D02*
X11254762Y-17860905D01*
X11416667Y-17889476D02*
X11378571Y-17889476D01*
X11378571Y-17889476D02*
X11359524Y-17899000D01*
X11359524Y-17899000D02*
X11350000Y-17908524D01*
X11350000Y-17908524D02*
X11330952Y-17937095D01*
X11330952Y-17937095D02*
X11321429Y-17975190D01*
X11321429Y-17975190D02*
X11321429Y-18051381D01*
X11321429Y-18051381D02*
X11330952Y-18070429D01*
X11330952Y-18070429D02*
X11340476Y-18079952D01*
X11340476Y-18079952D02*
X11359524Y-18089476D01*
X11359524Y-18089476D02*
X11397619Y-18089476D01*
X11397619Y-18089476D02*
X11416667Y-18079952D01*
X11416667Y-18079952D02*
X11426191Y-18070429D01*
X11426191Y-18070429D02*
X11435714Y-18051381D01*
X11435714Y-18051381D02*
X11435714Y-18003762D01*
X11435714Y-18003762D02*
X11426191Y-17984714D01*
X11426191Y-17984714D02*
X11416667Y-17975190D01*
X11416667Y-17975190D02*
X11397619Y-17965667D01*
X11397619Y-17965667D02*
X11359524Y-17965667D01*
X11359524Y-17965667D02*
X11340476Y-17975190D01*
X11340476Y-17975190D02*
X11330952Y-17984714D01*
X11330952Y-17984714D02*
X11321429Y-18003762D01*
X11607143Y-17956143D02*
X11607143Y-18089476D01*
X11559524Y-17879952D02*
X11511905Y-18022810D01*
X11511905Y-18022810D02*
X11635714Y-18022810D01*
X11831905Y-18089476D02*
X11831905Y-17889476D01*
X11917619Y-18089476D02*
X11917619Y-17984714D01*
X11917619Y-17984714D02*
X11908095Y-17965667D01*
X11908095Y-17965667D02*
X11889048Y-17956143D01*
X11889048Y-17956143D02*
X11860476Y-17956143D01*
X11860476Y-17956143D02*
X11841429Y-17965667D01*
X11841429Y-17965667D02*
X11831905Y-17975190D01*
X12041429Y-18089476D02*
X12022381Y-18079952D01*
X12022381Y-18079952D02*
X12012857Y-18070429D01*
X12012857Y-18070429D02*
X12003333Y-18051381D01*
X12003333Y-18051381D02*
X12003333Y-17994238D01*
X12003333Y-17994238D02*
X12012857Y-17975190D01*
X12012857Y-17975190D02*
X12022381Y-17965667D01*
X12022381Y-17965667D02*
X12041429Y-17956143D01*
X12041429Y-17956143D02*
X12070000Y-17956143D01*
X12070000Y-17956143D02*
X12089048Y-17965667D01*
X12089048Y-17965667D02*
X12098572Y-17975190D01*
X12098572Y-17975190D02*
X12108095Y-17994238D01*
X12108095Y-17994238D02*
X12108095Y-18051381D01*
X12108095Y-18051381D02*
X12098572Y-18070429D01*
X12098572Y-18070429D02*
X12089048Y-18079952D01*
X12089048Y-18079952D02*
X12070000Y-18089476D01*
X12070000Y-18089476D02*
X12041429Y-18089476D01*
X12222381Y-18089476D02*
X12203333Y-18079952D01*
X12203333Y-18079952D02*
X12193810Y-18060905D01*
X12193810Y-18060905D02*
X12193810Y-17889476D01*
X12374762Y-18079952D02*
X12355714Y-18089476D01*
X12355714Y-18089476D02*
X12317619Y-18089476D01*
X12317619Y-18089476D02*
X12298572Y-18079952D01*
X12298572Y-18079952D02*
X12289048Y-18060905D01*
X12289048Y-18060905D02*
X12289048Y-17984714D01*
X12289048Y-17984714D02*
X12298572Y-17965667D01*
X12298572Y-17965667D02*
X12317619Y-17956143D01*
X12317619Y-17956143D02*
X12355714Y-17956143D01*
X12355714Y-17956143D02*
X12374762Y-17965667D01*
X12374762Y-17965667D02*
X12384286Y-17984714D01*
X12384286Y-17984714D02*
X12384286Y-18003762D01*
X12384286Y-18003762D02*
X12289048Y-18022810D01*
X12460476Y-18079952D02*
X12479524Y-18089476D01*
X12479524Y-18089476D02*
X12517619Y-18089476D01*
X12517619Y-18089476D02*
X12536667Y-18079952D01*
X12536667Y-18079952D02*
X12546191Y-18060905D01*
X12546191Y-18060905D02*
X12546191Y-18051381D01*
X12546191Y-18051381D02*
X12536667Y-18032333D01*
X12536667Y-18032333D02*
X12517619Y-18022810D01*
X12517619Y-18022810D02*
X12489048Y-18022810D01*
X12489048Y-18022810D02*
X12470000Y-18013286D01*
X12470000Y-18013286D02*
X12460476Y-17994238D01*
X12460476Y-17994238D02*
X12460476Y-17984714D01*
X12460476Y-17984714D02*
X12470000Y-17965667D01*
X12470000Y-17965667D02*
X12489048Y-17956143D01*
X12489048Y-17956143D02*
X12517619Y-17956143D01*
X12517619Y-17956143D02*
X12536667Y-17965667D01*
X12612857Y-18165667D02*
X12622381Y-18156143D01*
X12622381Y-18156143D02*
X12641429Y-18127571D01*
X12641429Y-18127571D02*
X12650953Y-18108524D01*
X12650953Y-18108524D02*
X12660476Y-18079952D01*
X12660476Y-18079952D02*
X12670000Y-18032333D01*
X12670000Y-18032333D02*
X12670000Y-17994238D01*
X12670000Y-17994238D02*
X12660476Y-17946619D01*
X12660476Y-17946619D02*
X12650953Y-17918048D01*
X12650953Y-17918048D02*
X12641429Y-17899000D01*
X12641429Y-17899000D02*
X12622381Y-17870429D01*
X12622381Y-17870429D02*
X12612857Y-17860905D01*
D10*
X7690000Y-18230000D02*
X7790000Y-18330000D01*
X7790000Y-18230000D02*
X7690000Y-18330000D01*
X7790000Y-18280000D02*
G75*
G03*
X7790000Y-18280000I-50000J0D01*
G01*
D11*
X8142381Y-18353476D02*
X8028095Y-18353476D01*
X8085238Y-18353476D02*
X8085238Y-18153476D01*
X8085238Y-18153476D02*
X8066190Y-18182048D01*
X8066190Y-18182048D02*
X8047143Y-18201095D01*
X8047143Y-18201095D02*
X8028095Y-18210619D01*
X8228095Y-18334429D02*
X8237619Y-18343952D01*
X8237619Y-18343952D02*
X8228095Y-18353476D01*
X8228095Y-18353476D02*
X8218571Y-18343952D01*
X8218571Y-18343952D02*
X8228095Y-18334429D01*
X8228095Y-18334429D02*
X8228095Y-18353476D01*
X8361428Y-18153476D02*
X8380476Y-18153476D01*
X8380476Y-18153476D02*
X8399524Y-18163000D01*
X8399524Y-18163000D02*
X8409048Y-18172524D01*
X8409048Y-18172524D02*
X8418571Y-18191571D01*
X8418571Y-18191571D02*
X8428095Y-18229667D01*
X8428095Y-18229667D02*
X8428095Y-18277286D01*
X8428095Y-18277286D02*
X8418571Y-18315381D01*
X8418571Y-18315381D02*
X8409048Y-18334429D01*
X8409048Y-18334429D02*
X8399524Y-18343952D01*
X8399524Y-18343952D02*
X8380476Y-18353476D01*
X8380476Y-18353476D02*
X8361428Y-18353476D01*
X8361428Y-18353476D02*
X8342381Y-18343952D01*
X8342381Y-18343952D02*
X8332857Y-18334429D01*
X8332857Y-18334429D02*
X8323333Y-18315381D01*
X8323333Y-18315381D02*
X8313809Y-18277286D01*
X8313809Y-18277286D02*
X8313809Y-18229667D01*
X8313809Y-18229667D02*
X8323333Y-18191571D01*
X8323333Y-18191571D02*
X8332857Y-18172524D01*
X8332857Y-18172524D02*
X8342381Y-18163000D01*
X8342381Y-18163000D02*
X8361428Y-18153476D01*
X8551905Y-18153476D02*
X8570952Y-18153476D01*
X8570952Y-18153476D02*
X8590000Y-18163000D01*
X8590000Y-18163000D02*
X8599524Y-18172524D01*
X8599524Y-18172524D02*
X8609048Y-18191571D01*
X8609048Y-18191571D02*
X8618571Y-18229667D01*
X8618571Y-18229667D02*
X8618571Y-18277286D01*
X8618571Y-18277286D02*
X8609048Y-18315381D01*
X8609048Y-18315381D02*
X8599524Y-18334429D01*
X8599524Y-18334429D02*
X8590000Y-18343952D01*
X8590000Y-18343952D02*
X8570952Y-18353476D01*
X8570952Y-18353476D02*
X8551905Y-18353476D01*
X8551905Y-18353476D02*
X8532857Y-18343952D01*
X8532857Y-18343952D02*
X8523333Y-18334429D01*
X8523333Y-18334429D02*
X8513810Y-18315381D01*
X8513810Y-18315381D02*
X8504286Y-18277286D01*
X8504286Y-18277286D02*
X8504286Y-18229667D01*
X8504286Y-18229667D02*
X8513810Y-18191571D01*
X8513810Y-18191571D02*
X8523333Y-18172524D01*
X8523333Y-18172524D02*
X8532857Y-18163000D01*
X8532857Y-18163000D02*
X8551905Y-18153476D01*
X8742381Y-18153476D02*
X8761429Y-18153476D01*
X8761429Y-18153476D02*
X8780476Y-18163000D01*
X8780476Y-18163000D02*
X8790000Y-18172524D01*
X8790000Y-18172524D02*
X8799524Y-18191571D01*
X8799524Y-18191571D02*
X8809048Y-18229667D01*
X8809048Y-18229667D02*
X8809048Y-18277286D01*
X8809048Y-18277286D02*
X8799524Y-18315381D01*
X8799524Y-18315381D02*
X8790000Y-18334429D01*
X8790000Y-18334429D02*
X8780476Y-18343952D01*
X8780476Y-18343952D02*
X8761429Y-18353476D01*
X8761429Y-18353476D02*
X8742381Y-18353476D01*
X8742381Y-18353476D02*
X8723333Y-18343952D01*
X8723333Y-18343952D02*
X8713810Y-18334429D01*
X8713810Y-18334429D02*
X8704286Y-18315381D01*
X8704286Y-18315381D02*
X8694762Y-18277286D01*
X8694762Y-18277286D02*
X8694762Y-18229667D01*
X8694762Y-18229667D02*
X8704286Y-18191571D01*
X8704286Y-18191571D02*
X8713810Y-18172524D01*
X8713810Y-18172524D02*
X8723333Y-18163000D01*
X8723333Y-18163000D02*
X8742381Y-18153476D01*
X8894762Y-18353476D02*
X8894762Y-18220143D01*
X8894762Y-18239190D02*
X8904286Y-18229667D01*
X8904286Y-18229667D02*
X8923333Y-18220143D01*
X8923333Y-18220143D02*
X8951905Y-18220143D01*
X8951905Y-18220143D02*
X8970952Y-18229667D01*
X8970952Y-18229667D02*
X8980476Y-18248714D01*
X8980476Y-18248714D02*
X8980476Y-18353476D01*
X8980476Y-18248714D02*
X8990000Y-18229667D01*
X8990000Y-18229667D02*
X9009048Y-18220143D01*
X9009048Y-18220143D02*
X9037619Y-18220143D01*
X9037619Y-18220143D02*
X9056667Y-18229667D01*
X9056667Y-18229667D02*
X9066191Y-18248714D01*
X9066191Y-18248714D02*
X9066191Y-18353476D01*
X9161429Y-18353476D02*
X9161429Y-18220143D01*
X9161429Y-18239190D02*
X9170952Y-18229667D01*
X9170952Y-18229667D02*
X9190000Y-18220143D01*
X9190000Y-18220143D02*
X9218572Y-18220143D01*
X9218572Y-18220143D02*
X9237619Y-18229667D01*
X9237619Y-18229667D02*
X9247143Y-18248714D01*
X9247143Y-18248714D02*
X9247143Y-18353476D01*
X9247143Y-18248714D02*
X9256667Y-18229667D01*
X9256667Y-18229667D02*
X9275714Y-18220143D01*
X9275714Y-18220143D02*
X9304286Y-18220143D01*
X9304286Y-18220143D02*
X9323333Y-18229667D01*
X9323333Y-18229667D02*
X9332857Y-18248714D01*
X9332857Y-18248714D02*
X9332857Y-18353476D01*
X9690952Y-18143952D02*
X9519524Y-18401095D01*
X9915714Y-18153476D02*
X9934762Y-18153476D01*
X9934762Y-18153476D02*
X9953810Y-18163000D01*
X9953810Y-18163000D02*
X9963333Y-18172524D01*
X9963333Y-18172524D02*
X9972857Y-18191571D01*
X9972857Y-18191571D02*
X9982381Y-18229667D01*
X9982381Y-18229667D02*
X9982381Y-18277286D01*
X9982381Y-18277286D02*
X9972857Y-18315381D01*
X9972857Y-18315381D02*
X9963333Y-18334429D01*
X9963333Y-18334429D02*
X9953810Y-18343952D01*
X9953810Y-18343952D02*
X9934762Y-18353476D01*
X9934762Y-18353476D02*
X9915714Y-18353476D01*
X9915714Y-18353476D02*
X9896667Y-18343952D01*
X9896667Y-18343952D02*
X9887143Y-18334429D01*
X9887143Y-18334429D02*
X9877619Y-18315381D01*
X9877619Y-18315381D02*
X9868095Y-18277286D01*
X9868095Y-18277286D02*
X9868095Y-18229667D01*
X9868095Y-18229667D02*
X9877619Y-18191571D01*
X9877619Y-18191571D02*
X9887143Y-18172524D01*
X9887143Y-18172524D02*
X9896667Y-18163000D01*
X9896667Y-18163000D02*
X9915714Y-18153476D01*
X10068095Y-18334429D02*
X10077619Y-18343952D01*
X10077619Y-18343952D02*
X10068095Y-18353476D01*
X10068095Y-18353476D02*
X10058572Y-18343952D01*
X10058572Y-18343952D02*
X10068095Y-18334429D01*
X10068095Y-18334429D02*
X10068095Y-18353476D01*
X10201429Y-18153476D02*
X10220476Y-18153476D01*
X10220476Y-18153476D02*
X10239524Y-18163000D01*
X10239524Y-18163000D02*
X10249048Y-18172524D01*
X10249048Y-18172524D02*
X10258572Y-18191571D01*
X10258572Y-18191571D02*
X10268095Y-18229667D01*
X10268095Y-18229667D02*
X10268095Y-18277286D01*
X10268095Y-18277286D02*
X10258572Y-18315381D01*
X10258572Y-18315381D02*
X10249048Y-18334429D01*
X10249048Y-18334429D02*
X10239524Y-18343952D01*
X10239524Y-18343952D02*
X10220476Y-18353476D01*
X10220476Y-18353476D02*
X10201429Y-18353476D01*
X10201429Y-18353476D02*
X10182381Y-18343952D01*
X10182381Y-18343952D02*
X10172857Y-18334429D01*
X10172857Y-18334429D02*
X10163333Y-18315381D01*
X10163333Y-18315381D02*
X10153810Y-18277286D01*
X10153810Y-18277286D02*
X10153810Y-18229667D01*
X10153810Y-18229667D02*
X10163333Y-18191571D01*
X10163333Y-18191571D02*
X10172857Y-18172524D01*
X10172857Y-18172524D02*
X10182381Y-18163000D01*
X10182381Y-18163000D02*
X10201429Y-18153476D01*
X10334762Y-18153476D02*
X10458572Y-18153476D01*
X10458572Y-18153476D02*
X10391905Y-18229667D01*
X10391905Y-18229667D02*
X10420476Y-18229667D01*
X10420476Y-18229667D02*
X10439524Y-18239190D01*
X10439524Y-18239190D02*
X10449048Y-18248714D01*
X10449048Y-18248714D02*
X10458572Y-18267762D01*
X10458572Y-18267762D02*
X10458572Y-18315381D01*
X10458572Y-18315381D02*
X10449048Y-18334429D01*
X10449048Y-18334429D02*
X10439524Y-18343952D01*
X10439524Y-18343952D02*
X10420476Y-18353476D01*
X10420476Y-18353476D02*
X10363333Y-18353476D01*
X10363333Y-18353476D02*
X10344286Y-18343952D01*
X10344286Y-18343952D02*
X10334762Y-18334429D01*
X10553810Y-18353476D02*
X10591905Y-18353476D01*
X10591905Y-18353476D02*
X10610953Y-18343952D01*
X10610953Y-18343952D02*
X10620476Y-18334429D01*
X10620476Y-18334429D02*
X10639524Y-18305857D01*
X10639524Y-18305857D02*
X10649048Y-18267762D01*
X10649048Y-18267762D02*
X10649048Y-18191571D01*
X10649048Y-18191571D02*
X10639524Y-18172524D01*
X10639524Y-18172524D02*
X10630000Y-18163000D01*
X10630000Y-18163000D02*
X10610953Y-18153476D01*
X10610953Y-18153476D02*
X10572857Y-18153476D01*
X10572857Y-18153476D02*
X10553810Y-18163000D01*
X10553810Y-18163000D02*
X10544286Y-18172524D01*
X10544286Y-18172524D02*
X10534762Y-18191571D01*
X10534762Y-18191571D02*
X10534762Y-18239190D01*
X10534762Y-18239190D02*
X10544286Y-18258238D01*
X10544286Y-18258238D02*
X10553810Y-18267762D01*
X10553810Y-18267762D02*
X10572857Y-18277286D01*
X10572857Y-18277286D02*
X10610953Y-18277286D01*
X10610953Y-18277286D02*
X10630000Y-18267762D01*
X10630000Y-18267762D02*
X10639524Y-18258238D01*
X10639524Y-18258238D02*
X10649048Y-18239190D01*
X10820476Y-18220143D02*
X10820476Y-18353476D01*
X10772857Y-18143952D02*
X10725238Y-18286810D01*
X10725238Y-18286810D02*
X10849048Y-18286810D01*
X10915714Y-18153476D02*
X10915714Y-18191571D01*
X10991905Y-18153476D02*
X10991905Y-18191571D01*
X11254762Y-18429667D02*
X11245238Y-18420143D01*
X11245238Y-18420143D02*
X11226191Y-18391571D01*
X11226191Y-18391571D02*
X11216667Y-18372524D01*
X11216667Y-18372524D02*
X11207143Y-18343952D01*
X11207143Y-18343952D02*
X11197619Y-18296333D01*
X11197619Y-18296333D02*
X11197619Y-18258238D01*
X11197619Y-18258238D02*
X11207143Y-18210619D01*
X11207143Y-18210619D02*
X11216667Y-18182048D01*
X11216667Y-18182048D02*
X11226191Y-18163000D01*
X11226191Y-18163000D02*
X11245238Y-18134429D01*
X11245238Y-18134429D02*
X11254762Y-18124905D01*
X11321429Y-18172524D02*
X11330952Y-18163000D01*
X11330952Y-18163000D02*
X11350000Y-18153476D01*
X11350000Y-18153476D02*
X11397619Y-18153476D01*
X11397619Y-18153476D02*
X11416667Y-18163000D01*
X11416667Y-18163000D02*
X11426191Y-18172524D01*
X11426191Y-18172524D02*
X11435714Y-18191571D01*
X11435714Y-18191571D02*
X11435714Y-18210619D01*
X11435714Y-18210619D02*
X11426191Y-18239190D01*
X11426191Y-18239190D02*
X11311905Y-18353476D01*
X11311905Y-18353476D02*
X11435714Y-18353476D01*
X11511905Y-18172524D02*
X11521429Y-18163000D01*
X11521429Y-18163000D02*
X11540476Y-18153476D01*
X11540476Y-18153476D02*
X11588095Y-18153476D01*
X11588095Y-18153476D02*
X11607143Y-18163000D01*
X11607143Y-18163000D02*
X11616667Y-18172524D01*
X11616667Y-18172524D02*
X11626191Y-18191571D01*
X11626191Y-18191571D02*
X11626191Y-18210619D01*
X11626191Y-18210619D02*
X11616667Y-18239190D01*
X11616667Y-18239190D02*
X11502381Y-18353476D01*
X11502381Y-18353476D02*
X11626191Y-18353476D01*
X11831905Y-18353476D02*
X11831905Y-18153476D01*
X11917619Y-18353476D02*
X11917619Y-18248714D01*
X11917619Y-18248714D02*
X11908095Y-18229667D01*
X11908095Y-18229667D02*
X11889048Y-18220143D01*
X11889048Y-18220143D02*
X11860476Y-18220143D01*
X11860476Y-18220143D02*
X11841429Y-18229667D01*
X11841429Y-18229667D02*
X11831905Y-18239190D01*
X12041429Y-18353476D02*
X12022381Y-18343952D01*
X12022381Y-18343952D02*
X12012857Y-18334429D01*
X12012857Y-18334429D02*
X12003333Y-18315381D01*
X12003333Y-18315381D02*
X12003333Y-18258238D01*
X12003333Y-18258238D02*
X12012857Y-18239190D01*
X12012857Y-18239190D02*
X12022381Y-18229667D01*
X12022381Y-18229667D02*
X12041429Y-18220143D01*
X12041429Y-18220143D02*
X12070000Y-18220143D01*
X12070000Y-18220143D02*
X12089048Y-18229667D01*
X12089048Y-18229667D02*
X12098572Y-18239190D01*
X12098572Y-18239190D02*
X12108095Y-18258238D01*
X12108095Y-18258238D02*
X12108095Y-18315381D01*
X12108095Y-18315381D02*
X12098572Y-18334429D01*
X12098572Y-18334429D02*
X12089048Y-18343952D01*
X12089048Y-18343952D02*
X12070000Y-18353476D01*
X12070000Y-18353476D02*
X12041429Y-18353476D01*
X12222381Y-18353476D02*
X12203333Y-18343952D01*
X12203333Y-18343952D02*
X12193810Y-18324905D01*
X12193810Y-18324905D02*
X12193810Y-18153476D01*
X12374762Y-18343952D02*
X12355714Y-18353476D01*
X12355714Y-18353476D02*
X12317619Y-18353476D01*
X12317619Y-18353476D02*
X12298572Y-18343952D01*
X12298572Y-18343952D02*
X12289048Y-18324905D01*
X12289048Y-18324905D02*
X12289048Y-18248714D01*
X12289048Y-18248714D02*
X12298572Y-18229667D01*
X12298572Y-18229667D02*
X12317619Y-18220143D01*
X12317619Y-18220143D02*
X12355714Y-18220143D01*
X12355714Y-18220143D02*
X12374762Y-18229667D01*
X12374762Y-18229667D02*
X12384286Y-18248714D01*
X12384286Y-18248714D02*
X12384286Y-18267762D01*
X12384286Y-18267762D02*
X12289048Y-18286810D01*
X12460476Y-18343952D02*
X12479524Y-18353476D01*
X12479524Y-18353476D02*
X12517619Y-18353476D01*
X12517619Y-18353476D02*
X12536667Y-18343952D01*
X12536667Y-18343952D02*
X12546191Y-18324905D01*
X12546191Y-18324905D02*
X12546191Y-18315381D01*
X12546191Y-18315381D02*
X12536667Y-18296333D01*
X12536667Y-18296333D02*
X12517619Y-18286810D01*
X12517619Y-18286810D02*
X12489048Y-18286810D01*
X12489048Y-18286810D02*
X12470000Y-18277286D01*
X12470000Y-18277286D02*
X12460476Y-18258238D01*
X12460476Y-18258238D02*
X12460476Y-18248714D01*
X12460476Y-18248714D02*
X12470000Y-18229667D01*
X12470000Y-18229667D02*
X12489048Y-18220143D01*
X12489048Y-18220143D02*
X12517619Y-18220143D01*
X12517619Y-18220143D02*
X12536667Y-18229667D01*
X12612857Y-18429667D02*
X12622381Y-18420143D01*
X12622381Y-18420143D02*
X12641429Y-18391571D01*
X12641429Y-18391571D02*
X12650953Y-18372524D01*
X12650953Y-18372524D02*
X12660476Y-18343952D01*
X12660476Y-18343952D02*
X12670000Y-18296333D01*
X12670000Y-18296333D02*
X12670000Y-18258238D01*
X12670000Y-18258238D02*
X12660476Y-18210619D01*
X12660476Y-18210619D02*
X12650953Y-18182048D01*
X12650953Y-18182048D02*
X12641429Y-18163000D01*
X12641429Y-18163000D02*
X12622381Y-18134429D01*
X12622381Y-18134429D02*
X12612857Y-18124905D01*
D17*
X7670000Y-18484000D02*
X7790000Y-18604000D01*
X7790000Y-18484000D02*
X7670000Y-18604000D01*
X7730000Y-18484000D02*
X7730000Y-18604000D01*
X7670000Y-18544000D02*
X7790000Y-18544000D01*
D11*
X8142381Y-18617476D02*
X8028095Y-18617476D01*
X8085238Y-18617476D02*
X8085238Y-18417476D01*
X8085238Y-18417476D02*
X8066190Y-18446048D01*
X8066190Y-18446048D02*
X8047143Y-18465095D01*
X8047143Y-18465095D02*
X8028095Y-18474619D01*
X8228095Y-18598429D02*
X8237619Y-18607952D01*
X8237619Y-18607952D02*
X8228095Y-18617476D01*
X8228095Y-18617476D02*
X8218571Y-18607952D01*
X8218571Y-18607952D02*
X8228095Y-18598429D01*
X8228095Y-18598429D02*
X8228095Y-18617476D01*
X8313809Y-18436524D02*
X8323333Y-18427000D01*
X8323333Y-18427000D02*
X8342381Y-18417476D01*
X8342381Y-18417476D02*
X8390000Y-18417476D01*
X8390000Y-18417476D02*
X8409048Y-18427000D01*
X8409048Y-18427000D02*
X8418571Y-18436524D01*
X8418571Y-18436524D02*
X8428095Y-18455571D01*
X8428095Y-18455571D02*
X8428095Y-18474619D01*
X8428095Y-18474619D02*
X8418571Y-18503190D01*
X8418571Y-18503190D02*
X8304286Y-18617476D01*
X8304286Y-18617476D02*
X8428095Y-18617476D01*
X8551905Y-18417476D02*
X8570952Y-18417476D01*
X8570952Y-18417476D02*
X8590000Y-18427000D01*
X8590000Y-18427000D02*
X8599524Y-18436524D01*
X8599524Y-18436524D02*
X8609048Y-18455571D01*
X8609048Y-18455571D02*
X8618571Y-18493667D01*
X8618571Y-18493667D02*
X8618571Y-18541286D01*
X8618571Y-18541286D02*
X8609048Y-18579381D01*
X8609048Y-18579381D02*
X8599524Y-18598429D01*
X8599524Y-18598429D02*
X8590000Y-18607952D01*
X8590000Y-18607952D02*
X8570952Y-18617476D01*
X8570952Y-18617476D02*
X8551905Y-18617476D01*
X8551905Y-18617476D02*
X8532857Y-18607952D01*
X8532857Y-18607952D02*
X8523333Y-18598429D01*
X8523333Y-18598429D02*
X8513810Y-18579381D01*
X8513810Y-18579381D02*
X8504286Y-18541286D01*
X8504286Y-18541286D02*
X8504286Y-18493667D01*
X8504286Y-18493667D02*
X8513810Y-18455571D01*
X8513810Y-18455571D02*
X8523333Y-18436524D01*
X8523333Y-18436524D02*
X8532857Y-18427000D01*
X8532857Y-18427000D02*
X8551905Y-18417476D01*
X8742381Y-18417476D02*
X8761429Y-18417476D01*
X8761429Y-18417476D02*
X8780476Y-18427000D01*
X8780476Y-18427000D02*
X8790000Y-18436524D01*
X8790000Y-18436524D02*
X8799524Y-18455571D01*
X8799524Y-18455571D02*
X8809048Y-18493667D01*
X8809048Y-18493667D02*
X8809048Y-18541286D01*
X8809048Y-18541286D02*
X8799524Y-18579381D01*
X8799524Y-18579381D02*
X8790000Y-18598429D01*
X8790000Y-18598429D02*
X8780476Y-18607952D01*
X8780476Y-18607952D02*
X8761429Y-18617476D01*
X8761429Y-18617476D02*
X8742381Y-18617476D01*
X8742381Y-18617476D02*
X8723333Y-18607952D01*
X8723333Y-18607952D02*
X8713810Y-18598429D01*
X8713810Y-18598429D02*
X8704286Y-18579381D01*
X8704286Y-18579381D02*
X8694762Y-18541286D01*
X8694762Y-18541286D02*
X8694762Y-18493667D01*
X8694762Y-18493667D02*
X8704286Y-18455571D01*
X8704286Y-18455571D02*
X8713810Y-18436524D01*
X8713810Y-18436524D02*
X8723333Y-18427000D01*
X8723333Y-18427000D02*
X8742381Y-18417476D01*
X8894762Y-18617476D02*
X8894762Y-18484143D01*
X8894762Y-18503190D02*
X8904286Y-18493667D01*
X8904286Y-18493667D02*
X8923333Y-18484143D01*
X8923333Y-18484143D02*
X8951905Y-18484143D01*
X8951905Y-18484143D02*
X8970952Y-18493667D01*
X8970952Y-18493667D02*
X8980476Y-18512714D01*
X8980476Y-18512714D02*
X8980476Y-18617476D01*
X8980476Y-18512714D02*
X8990000Y-18493667D01*
X8990000Y-18493667D02*
X9009048Y-18484143D01*
X9009048Y-18484143D02*
X9037619Y-18484143D01*
X9037619Y-18484143D02*
X9056667Y-18493667D01*
X9056667Y-18493667D02*
X9066191Y-18512714D01*
X9066191Y-18512714D02*
X9066191Y-18617476D01*
X9161429Y-18617476D02*
X9161429Y-18484143D01*
X9161429Y-18503190D02*
X9170952Y-18493667D01*
X9170952Y-18493667D02*
X9190000Y-18484143D01*
X9190000Y-18484143D02*
X9218572Y-18484143D01*
X9218572Y-18484143D02*
X9237619Y-18493667D01*
X9237619Y-18493667D02*
X9247143Y-18512714D01*
X9247143Y-18512714D02*
X9247143Y-18617476D01*
X9247143Y-18512714D02*
X9256667Y-18493667D01*
X9256667Y-18493667D02*
X9275714Y-18484143D01*
X9275714Y-18484143D02*
X9304286Y-18484143D01*
X9304286Y-18484143D02*
X9323333Y-18493667D01*
X9323333Y-18493667D02*
X9332857Y-18512714D01*
X9332857Y-18512714D02*
X9332857Y-18617476D01*
X9690952Y-18407952D02*
X9519524Y-18665095D01*
X9915714Y-18417476D02*
X9934762Y-18417476D01*
X9934762Y-18417476D02*
X9953810Y-18427000D01*
X9953810Y-18427000D02*
X9963333Y-18436524D01*
X9963333Y-18436524D02*
X9972857Y-18455571D01*
X9972857Y-18455571D02*
X9982381Y-18493667D01*
X9982381Y-18493667D02*
X9982381Y-18541286D01*
X9982381Y-18541286D02*
X9972857Y-18579381D01*
X9972857Y-18579381D02*
X9963333Y-18598429D01*
X9963333Y-18598429D02*
X9953810Y-18607952D01*
X9953810Y-18607952D02*
X9934762Y-18617476D01*
X9934762Y-18617476D02*
X9915714Y-18617476D01*
X9915714Y-18617476D02*
X9896667Y-18607952D01*
X9896667Y-18607952D02*
X9887143Y-18598429D01*
X9887143Y-18598429D02*
X9877619Y-18579381D01*
X9877619Y-18579381D02*
X9868095Y-18541286D01*
X9868095Y-18541286D02*
X9868095Y-18493667D01*
X9868095Y-18493667D02*
X9877619Y-18455571D01*
X9877619Y-18455571D02*
X9887143Y-18436524D01*
X9887143Y-18436524D02*
X9896667Y-18427000D01*
X9896667Y-18427000D02*
X9915714Y-18417476D01*
X10068095Y-18598429D02*
X10077619Y-18607952D01*
X10077619Y-18607952D02*
X10068095Y-18617476D01*
X10068095Y-18617476D02*
X10058572Y-18607952D01*
X10058572Y-18607952D02*
X10068095Y-18598429D01*
X10068095Y-18598429D02*
X10068095Y-18617476D01*
X10201429Y-18417476D02*
X10220476Y-18417476D01*
X10220476Y-18417476D02*
X10239524Y-18427000D01*
X10239524Y-18427000D02*
X10249048Y-18436524D01*
X10249048Y-18436524D02*
X10258572Y-18455571D01*
X10258572Y-18455571D02*
X10268095Y-18493667D01*
X10268095Y-18493667D02*
X10268095Y-18541286D01*
X10268095Y-18541286D02*
X10258572Y-18579381D01*
X10258572Y-18579381D02*
X10249048Y-18598429D01*
X10249048Y-18598429D02*
X10239524Y-18607952D01*
X10239524Y-18607952D02*
X10220476Y-18617476D01*
X10220476Y-18617476D02*
X10201429Y-18617476D01*
X10201429Y-18617476D02*
X10182381Y-18607952D01*
X10182381Y-18607952D02*
X10172857Y-18598429D01*
X10172857Y-18598429D02*
X10163333Y-18579381D01*
X10163333Y-18579381D02*
X10153810Y-18541286D01*
X10153810Y-18541286D02*
X10153810Y-18493667D01*
X10153810Y-18493667D02*
X10163333Y-18455571D01*
X10163333Y-18455571D02*
X10172857Y-18436524D01*
X10172857Y-18436524D02*
X10182381Y-18427000D01*
X10182381Y-18427000D02*
X10201429Y-18417476D01*
X10439524Y-18484143D02*
X10439524Y-18617476D01*
X10391905Y-18407952D02*
X10344286Y-18550810D01*
X10344286Y-18550810D02*
X10468095Y-18550810D01*
X10525238Y-18417476D02*
X10658572Y-18417476D01*
X10658572Y-18417476D02*
X10572857Y-18617476D01*
X10725238Y-18436524D02*
X10734762Y-18427000D01*
X10734762Y-18427000D02*
X10753810Y-18417476D01*
X10753810Y-18417476D02*
X10801429Y-18417476D01*
X10801429Y-18417476D02*
X10820476Y-18427000D01*
X10820476Y-18427000D02*
X10830000Y-18436524D01*
X10830000Y-18436524D02*
X10839524Y-18455571D01*
X10839524Y-18455571D02*
X10839524Y-18474619D01*
X10839524Y-18474619D02*
X10830000Y-18503190D01*
X10830000Y-18503190D02*
X10715714Y-18617476D01*
X10715714Y-18617476D02*
X10839524Y-18617476D01*
X10915714Y-18417476D02*
X10915714Y-18455571D01*
X10991905Y-18417476D02*
X10991905Y-18455571D01*
X11254762Y-18693667D02*
X11245238Y-18684143D01*
X11245238Y-18684143D02*
X11226191Y-18655571D01*
X11226191Y-18655571D02*
X11216667Y-18636524D01*
X11216667Y-18636524D02*
X11207143Y-18607952D01*
X11207143Y-18607952D02*
X11197619Y-18560333D01*
X11197619Y-18560333D02*
X11197619Y-18522238D01*
X11197619Y-18522238D02*
X11207143Y-18474619D01*
X11207143Y-18474619D02*
X11216667Y-18446048D01*
X11216667Y-18446048D02*
X11226191Y-18427000D01*
X11226191Y-18427000D02*
X11245238Y-18398429D01*
X11245238Y-18398429D02*
X11254762Y-18388905D01*
X11416667Y-18484143D02*
X11416667Y-18617476D01*
X11369048Y-18407952D02*
X11321429Y-18550810D01*
X11321429Y-18550810D02*
X11445238Y-18550810D01*
X11641429Y-18617476D02*
X11641429Y-18417476D01*
X11727143Y-18617476D02*
X11727143Y-18512714D01*
X11727143Y-18512714D02*
X11717619Y-18493667D01*
X11717619Y-18493667D02*
X11698572Y-18484143D01*
X11698572Y-18484143D02*
X11670000Y-18484143D01*
X11670000Y-18484143D02*
X11650952Y-18493667D01*
X11650952Y-18493667D02*
X11641429Y-18503190D01*
X11850952Y-18617476D02*
X11831905Y-18607952D01*
X11831905Y-18607952D02*
X11822381Y-18598429D01*
X11822381Y-18598429D02*
X11812857Y-18579381D01*
X11812857Y-18579381D02*
X11812857Y-18522238D01*
X11812857Y-18522238D02*
X11822381Y-18503190D01*
X11822381Y-18503190D02*
X11831905Y-18493667D01*
X11831905Y-18493667D02*
X11850952Y-18484143D01*
X11850952Y-18484143D02*
X11879524Y-18484143D01*
X11879524Y-18484143D02*
X11898572Y-18493667D01*
X11898572Y-18493667D02*
X11908095Y-18503190D01*
X11908095Y-18503190D02*
X11917619Y-18522238D01*
X11917619Y-18522238D02*
X11917619Y-18579381D01*
X11917619Y-18579381D02*
X11908095Y-18598429D01*
X11908095Y-18598429D02*
X11898572Y-18607952D01*
X11898572Y-18607952D02*
X11879524Y-18617476D01*
X11879524Y-18617476D02*
X11850952Y-18617476D01*
X12031905Y-18617476D02*
X12012857Y-18607952D01*
X12012857Y-18607952D02*
X12003333Y-18588905D01*
X12003333Y-18588905D02*
X12003333Y-18417476D01*
X12184286Y-18607952D02*
X12165238Y-18617476D01*
X12165238Y-18617476D02*
X12127143Y-18617476D01*
X12127143Y-18617476D02*
X12108095Y-18607952D01*
X12108095Y-18607952D02*
X12098572Y-18588905D01*
X12098572Y-18588905D02*
X12098572Y-18512714D01*
X12098572Y-18512714D02*
X12108095Y-18493667D01*
X12108095Y-18493667D02*
X12127143Y-18484143D01*
X12127143Y-18484143D02*
X12165238Y-18484143D01*
X12165238Y-18484143D02*
X12184286Y-18493667D01*
X12184286Y-18493667D02*
X12193810Y-18512714D01*
X12193810Y-18512714D02*
X12193810Y-18531762D01*
X12193810Y-18531762D02*
X12098572Y-18550810D01*
X12270000Y-18607952D02*
X12289048Y-18617476D01*
X12289048Y-18617476D02*
X12327143Y-18617476D01*
X12327143Y-18617476D02*
X12346191Y-18607952D01*
X12346191Y-18607952D02*
X12355714Y-18588905D01*
X12355714Y-18588905D02*
X12355714Y-18579381D01*
X12355714Y-18579381D02*
X12346191Y-18560333D01*
X12346191Y-18560333D02*
X12327143Y-18550810D01*
X12327143Y-18550810D02*
X12298572Y-18550810D01*
X12298572Y-18550810D02*
X12279524Y-18541286D01*
X12279524Y-18541286D02*
X12270000Y-18522238D01*
X12270000Y-18522238D02*
X12270000Y-18512714D01*
X12270000Y-18512714D02*
X12279524Y-18493667D01*
X12279524Y-18493667D02*
X12298572Y-18484143D01*
X12298572Y-18484143D02*
X12327143Y-18484143D01*
X12327143Y-18484143D02*
X12346191Y-18493667D01*
X12422381Y-18693667D02*
X12431905Y-18684143D01*
X12431905Y-18684143D02*
X12450953Y-18655571D01*
X12450953Y-18655571D02*
X12460476Y-18636524D01*
X12460476Y-18636524D02*
X12470000Y-18607952D01*
X12470000Y-18607952D02*
X12479524Y-18560333D01*
X12479524Y-18560333D02*
X12479524Y-18522238D01*
X12479524Y-18522238D02*
X12470000Y-18474619D01*
X12470000Y-18474619D02*
X12460476Y-18446048D01*
X12460476Y-18446048D02*
X12450953Y-18427000D01*
X12450953Y-18427000D02*
X12431905Y-18398429D01*
X12431905Y-18398429D02*
X12422381Y-18388905D01*
X7590000Y-18708000D02*
X7790000Y-18908000D01*
X7790000Y-18708000D02*
X7590000Y-18908000D01*
X7760711Y-18878711D02*
X7760711Y-18737289D01*
X7619289Y-18737289D01*
X7619289Y-18878711D01*
X7760711Y-18878711D01*
X8018571Y-18681476D02*
X8142381Y-18681476D01*
X8142381Y-18681476D02*
X8075714Y-18757667D01*
X8075714Y-18757667D02*
X8104286Y-18757667D01*
X8104286Y-18757667D02*
X8123333Y-18767190D01*
X8123333Y-18767190D02*
X8132857Y-18776714D01*
X8132857Y-18776714D02*
X8142381Y-18795762D01*
X8142381Y-18795762D02*
X8142381Y-18843381D01*
X8142381Y-18843381D02*
X8132857Y-18862429D01*
X8132857Y-18862429D02*
X8123333Y-18871952D01*
X8123333Y-18871952D02*
X8104286Y-18881476D01*
X8104286Y-18881476D02*
X8047143Y-18881476D01*
X8047143Y-18881476D02*
X8028095Y-18871952D01*
X8028095Y-18871952D02*
X8018571Y-18862429D01*
X8228095Y-18862429D02*
X8237619Y-18871952D01*
X8237619Y-18871952D02*
X8228095Y-18881476D01*
X8228095Y-18881476D02*
X8218571Y-18871952D01*
X8218571Y-18871952D02*
X8228095Y-18862429D01*
X8228095Y-18862429D02*
X8228095Y-18881476D01*
X8313809Y-18700524D02*
X8323333Y-18691000D01*
X8323333Y-18691000D02*
X8342381Y-18681476D01*
X8342381Y-18681476D02*
X8390000Y-18681476D01*
X8390000Y-18681476D02*
X8409048Y-18691000D01*
X8409048Y-18691000D02*
X8418571Y-18700524D01*
X8418571Y-18700524D02*
X8428095Y-18719571D01*
X8428095Y-18719571D02*
X8428095Y-18738619D01*
X8428095Y-18738619D02*
X8418571Y-18767190D01*
X8418571Y-18767190D02*
X8304286Y-18881476D01*
X8304286Y-18881476D02*
X8428095Y-18881476D01*
X8551905Y-18681476D02*
X8570952Y-18681476D01*
X8570952Y-18681476D02*
X8590000Y-18691000D01*
X8590000Y-18691000D02*
X8599524Y-18700524D01*
X8599524Y-18700524D02*
X8609048Y-18719571D01*
X8609048Y-18719571D02*
X8618571Y-18757667D01*
X8618571Y-18757667D02*
X8618571Y-18805286D01*
X8618571Y-18805286D02*
X8609048Y-18843381D01*
X8609048Y-18843381D02*
X8599524Y-18862429D01*
X8599524Y-18862429D02*
X8590000Y-18871952D01*
X8590000Y-18871952D02*
X8570952Y-18881476D01*
X8570952Y-18881476D02*
X8551905Y-18881476D01*
X8551905Y-18881476D02*
X8532857Y-18871952D01*
X8532857Y-18871952D02*
X8523333Y-18862429D01*
X8523333Y-18862429D02*
X8513810Y-18843381D01*
X8513810Y-18843381D02*
X8504286Y-18805286D01*
X8504286Y-18805286D02*
X8504286Y-18757667D01*
X8504286Y-18757667D02*
X8513810Y-18719571D01*
X8513810Y-18719571D02*
X8523333Y-18700524D01*
X8523333Y-18700524D02*
X8532857Y-18691000D01*
X8532857Y-18691000D02*
X8551905Y-18681476D01*
X8742381Y-18681476D02*
X8761429Y-18681476D01*
X8761429Y-18681476D02*
X8780476Y-18691000D01*
X8780476Y-18691000D02*
X8790000Y-18700524D01*
X8790000Y-18700524D02*
X8799524Y-18719571D01*
X8799524Y-18719571D02*
X8809048Y-18757667D01*
X8809048Y-18757667D02*
X8809048Y-18805286D01*
X8809048Y-18805286D02*
X8799524Y-18843381D01*
X8799524Y-18843381D02*
X8790000Y-18862429D01*
X8790000Y-18862429D02*
X8780476Y-18871952D01*
X8780476Y-18871952D02*
X8761429Y-18881476D01*
X8761429Y-18881476D02*
X8742381Y-18881476D01*
X8742381Y-18881476D02*
X8723333Y-18871952D01*
X8723333Y-18871952D02*
X8713810Y-18862429D01*
X8713810Y-18862429D02*
X8704286Y-18843381D01*
X8704286Y-18843381D02*
X8694762Y-18805286D01*
X8694762Y-18805286D02*
X8694762Y-18757667D01*
X8694762Y-18757667D02*
X8704286Y-18719571D01*
X8704286Y-18719571D02*
X8713810Y-18700524D01*
X8713810Y-18700524D02*
X8723333Y-18691000D01*
X8723333Y-18691000D02*
X8742381Y-18681476D01*
X8894762Y-18881476D02*
X8894762Y-18748143D01*
X8894762Y-18767190D02*
X8904286Y-18757667D01*
X8904286Y-18757667D02*
X8923333Y-18748143D01*
X8923333Y-18748143D02*
X8951905Y-18748143D01*
X8951905Y-18748143D02*
X8970952Y-18757667D01*
X8970952Y-18757667D02*
X8980476Y-18776714D01*
X8980476Y-18776714D02*
X8980476Y-18881476D01*
X8980476Y-18776714D02*
X8990000Y-18757667D01*
X8990000Y-18757667D02*
X9009048Y-18748143D01*
X9009048Y-18748143D02*
X9037619Y-18748143D01*
X9037619Y-18748143D02*
X9056667Y-18757667D01*
X9056667Y-18757667D02*
X9066191Y-18776714D01*
X9066191Y-18776714D02*
X9066191Y-18881476D01*
X9161429Y-18881476D02*
X9161429Y-18748143D01*
X9161429Y-18767190D02*
X9170952Y-18757667D01*
X9170952Y-18757667D02*
X9190000Y-18748143D01*
X9190000Y-18748143D02*
X9218572Y-18748143D01*
X9218572Y-18748143D02*
X9237619Y-18757667D01*
X9237619Y-18757667D02*
X9247143Y-18776714D01*
X9247143Y-18776714D02*
X9247143Y-18881476D01*
X9247143Y-18776714D02*
X9256667Y-18757667D01*
X9256667Y-18757667D02*
X9275714Y-18748143D01*
X9275714Y-18748143D02*
X9304286Y-18748143D01*
X9304286Y-18748143D02*
X9323333Y-18757667D01*
X9323333Y-18757667D02*
X9332857Y-18776714D01*
X9332857Y-18776714D02*
X9332857Y-18881476D01*
X9690952Y-18671952D02*
X9519524Y-18929095D01*
X9915714Y-18681476D02*
X9934762Y-18681476D01*
X9934762Y-18681476D02*
X9953810Y-18691000D01*
X9953810Y-18691000D02*
X9963333Y-18700524D01*
X9963333Y-18700524D02*
X9972857Y-18719571D01*
X9972857Y-18719571D02*
X9982381Y-18757667D01*
X9982381Y-18757667D02*
X9982381Y-18805286D01*
X9982381Y-18805286D02*
X9972857Y-18843381D01*
X9972857Y-18843381D02*
X9963333Y-18862429D01*
X9963333Y-18862429D02*
X9953810Y-18871952D01*
X9953810Y-18871952D02*
X9934762Y-18881476D01*
X9934762Y-18881476D02*
X9915714Y-18881476D01*
X9915714Y-18881476D02*
X9896667Y-18871952D01*
X9896667Y-18871952D02*
X9887143Y-18862429D01*
X9887143Y-18862429D02*
X9877619Y-18843381D01*
X9877619Y-18843381D02*
X9868095Y-18805286D01*
X9868095Y-18805286D02*
X9868095Y-18757667D01*
X9868095Y-18757667D02*
X9877619Y-18719571D01*
X9877619Y-18719571D02*
X9887143Y-18700524D01*
X9887143Y-18700524D02*
X9896667Y-18691000D01*
X9896667Y-18691000D02*
X9915714Y-18681476D01*
X10068095Y-18862429D02*
X10077619Y-18871952D01*
X10077619Y-18871952D02*
X10068095Y-18881476D01*
X10068095Y-18881476D02*
X10058572Y-18871952D01*
X10058572Y-18871952D02*
X10068095Y-18862429D01*
X10068095Y-18862429D02*
X10068095Y-18881476D01*
X10268095Y-18881476D02*
X10153810Y-18881476D01*
X10210952Y-18881476D02*
X10210952Y-18681476D01*
X10210952Y-18681476D02*
X10191905Y-18710048D01*
X10191905Y-18710048D02*
X10172857Y-18729095D01*
X10172857Y-18729095D02*
X10153810Y-18738619D01*
X10344286Y-18700524D02*
X10353810Y-18691000D01*
X10353810Y-18691000D02*
X10372857Y-18681476D01*
X10372857Y-18681476D02*
X10420476Y-18681476D01*
X10420476Y-18681476D02*
X10439524Y-18691000D01*
X10439524Y-18691000D02*
X10449048Y-18700524D01*
X10449048Y-18700524D02*
X10458572Y-18719571D01*
X10458572Y-18719571D02*
X10458572Y-18738619D01*
X10458572Y-18738619D02*
X10449048Y-18767190D01*
X10449048Y-18767190D02*
X10334762Y-18881476D01*
X10334762Y-18881476D02*
X10458572Y-18881476D01*
X10630000Y-18681476D02*
X10591905Y-18681476D01*
X10591905Y-18681476D02*
X10572857Y-18691000D01*
X10572857Y-18691000D02*
X10563333Y-18700524D01*
X10563333Y-18700524D02*
X10544286Y-18729095D01*
X10544286Y-18729095D02*
X10534762Y-18767190D01*
X10534762Y-18767190D02*
X10534762Y-18843381D01*
X10534762Y-18843381D02*
X10544286Y-18862429D01*
X10544286Y-18862429D02*
X10553810Y-18871952D01*
X10553810Y-18871952D02*
X10572857Y-18881476D01*
X10572857Y-18881476D02*
X10610953Y-18881476D01*
X10610953Y-18881476D02*
X10630000Y-18871952D01*
X10630000Y-18871952D02*
X10639524Y-18862429D01*
X10639524Y-18862429D02*
X10649048Y-18843381D01*
X10649048Y-18843381D02*
X10649048Y-18795762D01*
X10649048Y-18795762D02*
X10639524Y-18776714D01*
X10639524Y-18776714D02*
X10630000Y-18767190D01*
X10630000Y-18767190D02*
X10610953Y-18757667D01*
X10610953Y-18757667D02*
X10572857Y-18757667D01*
X10572857Y-18757667D02*
X10553810Y-18767190D01*
X10553810Y-18767190D02*
X10544286Y-18776714D01*
X10544286Y-18776714D02*
X10534762Y-18795762D01*
X10772857Y-18681476D02*
X10791905Y-18681476D01*
X10791905Y-18681476D02*
X10810953Y-18691000D01*
X10810953Y-18691000D02*
X10820476Y-18700524D01*
X10820476Y-18700524D02*
X10830000Y-18719571D01*
X10830000Y-18719571D02*
X10839524Y-18757667D01*
X10839524Y-18757667D02*
X10839524Y-18805286D01*
X10839524Y-18805286D02*
X10830000Y-18843381D01*
X10830000Y-18843381D02*
X10820476Y-18862429D01*
X10820476Y-18862429D02*
X10810953Y-18871952D01*
X10810953Y-18871952D02*
X10791905Y-18881476D01*
X10791905Y-18881476D02*
X10772857Y-18881476D01*
X10772857Y-18881476D02*
X10753810Y-18871952D01*
X10753810Y-18871952D02*
X10744286Y-18862429D01*
X10744286Y-18862429D02*
X10734762Y-18843381D01*
X10734762Y-18843381D02*
X10725238Y-18805286D01*
X10725238Y-18805286D02*
X10725238Y-18757667D01*
X10725238Y-18757667D02*
X10734762Y-18719571D01*
X10734762Y-18719571D02*
X10744286Y-18700524D01*
X10744286Y-18700524D02*
X10753810Y-18691000D01*
X10753810Y-18691000D02*
X10772857Y-18681476D01*
X10915714Y-18681476D02*
X10915714Y-18719571D01*
X10991905Y-18681476D02*
X10991905Y-18719571D01*
X11254762Y-18957667D02*
X11245238Y-18948143D01*
X11245238Y-18948143D02*
X11226191Y-18919571D01*
X11226191Y-18919571D02*
X11216667Y-18900524D01*
X11216667Y-18900524D02*
X11207143Y-18871952D01*
X11207143Y-18871952D02*
X11197619Y-18824333D01*
X11197619Y-18824333D02*
X11197619Y-18786238D01*
X11197619Y-18786238D02*
X11207143Y-18738619D01*
X11207143Y-18738619D02*
X11216667Y-18710048D01*
X11216667Y-18710048D02*
X11226191Y-18691000D01*
X11226191Y-18691000D02*
X11245238Y-18662429D01*
X11245238Y-18662429D02*
X11254762Y-18652905D01*
X11416667Y-18748143D02*
X11416667Y-18881476D01*
X11369048Y-18671952D02*
X11321429Y-18814810D01*
X11321429Y-18814810D02*
X11445238Y-18814810D01*
X11641429Y-18881476D02*
X11641429Y-18681476D01*
X11727143Y-18881476D02*
X11727143Y-18776714D01*
X11727143Y-18776714D02*
X11717619Y-18757667D01*
X11717619Y-18757667D02*
X11698572Y-18748143D01*
X11698572Y-18748143D02*
X11670000Y-18748143D01*
X11670000Y-18748143D02*
X11650952Y-18757667D01*
X11650952Y-18757667D02*
X11641429Y-18767190D01*
X11850952Y-18881476D02*
X11831905Y-18871952D01*
X11831905Y-18871952D02*
X11822381Y-18862429D01*
X11822381Y-18862429D02*
X11812857Y-18843381D01*
X11812857Y-18843381D02*
X11812857Y-18786238D01*
X11812857Y-18786238D02*
X11822381Y-18767190D01*
X11822381Y-18767190D02*
X11831905Y-18757667D01*
X11831905Y-18757667D02*
X11850952Y-18748143D01*
X11850952Y-18748143D02*
X11879524Y-18748143D01*
X11879524Y-18748143D02*
X11898572Y-18757667D01*
X11898572Y-18757667D02*
X11908095Y-18767190D01*
X11908095Y-18767190D02*
X11917619Y-18786238D01*
X11917619Y-18786238D02*
X11917619Y-18843381D01*
X11917619Y-18843381D02*
X11908095Y-18862429D01*
X11908095Y-18862429D02*
X11898572Y-18871952D01*
X11898572Y-18871952D02*
X11879524Y-18881476D01*
X11879524Y-18881476D02*
X11850952Y-18881476D01*
X12031905Y-18881476D02*
X12012857Y-18871952D01*
X12012857Y-18871952D02*
X12003333Y-18852905D01*
X12003333Y-18852905D02*
X12003333Y-18681476D01*
X12184286Y-18871952D02*
X12165238Y-18881476D01*
X12165238Y-18881476D02*
X12127143Y-18881476D01*
X12127143Y-18881476D02*
X12108095Y-18871952D01*
X12108095Y-18871952D02*
X12098572Y-18852905D01*
X12098572Y-18852905D02*
X12098572Y-18776714D01*
X12098572Y-18776714D02*
X12108095Y-18757667D01*
X12108095Y-18757667D02*
X12127143Y-18748143D01*
X12127143Y-18748143D02*
X12165238Y-18748143D01*
X12165238Y-18748143D02*
X12184286Y-18757667D01*
X12184286Y-18757667D02*
X12193810Y-18776714D01*
X12193810Y-18776714D02*
X12193810Y-18795762D01*
X12193810Y-18795762D02*
X12098572Y-18814810D01*
X12270000Y-18871952D02*
X12289048Y-18881476D01*
X12289048Y-18881476D02*
X12327143Y-18881476D01*
X12327143Y-18881476D02*
X12346191Y-18871952D01*
X12346191Y-18871952D02*
X12355714Y-18852905D01*
X12355714Y-18852905D02*
X12355714Y-18843381D01*
X12355714Y-18843381D02*
X12346191Y-18824333D01*
X12346191Y-18824333D02*
X12327143Y-18814810D01*
X12327143Y-18814810D02*
X12298572Y-18814810D01*
X12298572Y-18814810D02*
X12279524Y-18805286D01*
X12279524Y-18805286D02*
X12270000Y-18786238D01*
X12270000Y-18786238D02*
X12270000Y-18776714D01*
X12270000Y-18776714D02*
X12279524Y-18757667D01*
X12279524Y-18757667D02*
X12298572Y-18748143D01*
X12298572Y-18748143D02*
X12327143Y-18748143D01*
X12327143Y-18748143D02*
X12346191Y-18757667D01*
X12422381Y-18957667D02*
X12431905Y-18948143D01*
X12431905Y-18948143D02*
X12450953Y-18919571D01*
X12450953Y-18919571D02*
X12460476Y-18900524D01*
X12460476Y-18900524D02*
X12470000Y-18871952D01*
X12470000Y-18871952D02*
X12479524Y-18824333D01*
X12479524Y-18824333D02*
X12479524Y-18786238D01*
X12479524Y-18786238D02*
X12470000Y-18738619D01*
X12470000Y-18738619D02*
X12460476Y-18710048D01*
X12460476Y-18710048D02*
X12450953Y-18691000D01*
X12450953Y-18691000D02*
X12431905Y-18662429D01*
X12431905Y-18662429D02*
X12422381Y-18652905D01*
M02*
