G04 #@! TF.GenerationSoftware,KiCad,Pcbnew,(7.0.0-0)*
G04 #@! TF.CreationDate,2023-05-03T20:53:00-04:00*
G04 #@! TF.ProjectId,InteractiveLEDs,496e7465-7261-4637-9469-76654c454473,rev?*
G04 #@! TF.SameCoordinates,Original*
G04 #@! TF.FileFunction,Paste,Top*
G04 #@! TF.FilePolarity,Positive*
%FSLAX46Y46*%
G04 Gerber Fmt 4.6, Leading zero omitted, Abs format (unit mm)*
G04 Created by KiCad (PCBNEW (7.0.0-0)) date 2023-05-03 20:53:00*
%MOMM*%
%LPD*%
G01*
G04 APERTURE LIST*
G04 Aperture macros list*
%AMRoundRect*
0 Rectangle with rounded corners*
0 $1 Rounding radius*
0 $2 $3 $4 $5 $6 $7 $8 $9 X,Y pos of 4 corners*
0 Add a 4 corners polygon primitive as box body*
4,1,4,$2,$3,$4,$5,$6,$7,$8,$9,$2,$3,0*
0 Add four circle primitives for the rounded corners*
1,1,$1+$1,$2,$3*
1,1,$1+$1,$4,$5*
1,1,$1+$1,$6,$7*
1,1,$1+$1,$8,$9*
0 Add four rect primitives between the rounded corners*
20,1,$1+$1,$2,$3,$4,$5,0*
20,1,$1+$1,$4,$5,$6,$7,0*
20,1,$1+$1,$6,$7,$8,$9,0*
20,1,$1+$1,$8,$9,$2,$3,0*%
G04 Aperture macros list end*
%ADD10RoundRect,0.250000X0.325000X0.450000X-0.325000X0.450000X-0.325000X-0.450000X0.325000X-0.450000X0*%
%ADD11R,1.500000X0.900000*%
%ADD12RoundRect,0.250000X-0.337500X-0.475000X0.337500X-0.475000X0.337500X0.475000X-0.337500X0.475000X0*%
%ADD13R,0.550000X1.500000*%
%ADD14R,1.500000X0.550000*%
%ADD15R,2.400000X2.000000*%
%ADD16RoundRect,0.250000X-0.475000X0.337500X-0.475000X-0.337500X0.475000X-0.337500X0.475000X0.337500X0*%
%ADD17RoundRect,0.250000X0.350000X0.450000X-0.350000X0.450000X-0.350000X-0.450000X0.350000X-0.450000X0*%
%ADD18RoundRect,0.150000X0.825000X0.150000X-0.825000X0.150000X-0.825000X-0.150000X0.825000X-0.150000X0*%
%ADD19RoundRect,0.150000X-0.825000X-0.150000X0.825000X-0.150000X0.825000X0.150000X-0.825000X0.150000X0*%
G04 APERTURE END LIST*
D10*
X136720000Y-101765000D03*
X134670000Y-101765000D03*
D11*
X202899999Y-42299999D03*
X202899999Y-38999999D03*
X197999999Y-38999999D03*
X197999999Y-42299999D03*
X97899999Y-42299999D03*
X97899999Y-38999999D03*
X92999999Y-38999999D03*
X92999999Y-42299999D03*
D12*
X171212500Y-42500000D03*
X173287500Y-42500000D03*
D11*
X202899999Y-112299999D03*
X202899999Y-108999999D03*
X197999999Y-108999999D03*
X197999999Y-112299999D03*
D12*
X163712500Y-95500000D03*
X165787500Y-95500000D03*
D13*
X143949999Y-98949999D03*
X144749999Y-98949999D03*
X145549999Y-98949999D03*
X146349999Y-98949999D03*
X147149999Y-98949999D03*
X147949999Y-98949999D03*
X148749999Y-98949999D03*
X149549999Y-98949999D03*
X150349999Y-98949999D03*
X151149999Y-98949999D03*
X151949999Y-98949999D03*
D14*
X153649999Y-97249999D03*
X153649999Y-96449999D03*
X153649999Y-95649999D03*
X153649999Y-94849999D03*
X153649999Y-94049999D03*
X153649999Y-93249999D03*
X153649999Y-92449999D03*
X153649999Y-91649999D03*
X153649999Y-90849999D03*
X153649999Y-90049999D03*
X153649999Y-89249999D03*
D13*
X151949999Y-87549999D03*
X151149999Y-87549999D03*
X150349999Y-87549999D03*
X149549999Y-87549999D03*
X148749999Y-87549999D03*
X147949999Y-87549999D03*
X147149999Y-87549999D03*
X146349999Y-87549999D03*
X145549999Y-87549999D03*
X144749999Y-87549999D03*
X143949999Y-87549999D03*
D14*
X142249999Y-89249999D03*
X142249999Y-90049999D03*
X142249999Y-90849999D03*
X142249999Y-91649999D03*
X142249999Y-92449999D03*
X142249999Y-93249999D03*
X142249999Y-94049999D03*
X142249999Y-94849999D03*
X142249999Y-95649999D03*
X142249999Y-96449999D03*
X142249999Y-97249999D03*
D11*
X97899999Y-147299999D03*
X97899999Y-143999999D03*
X92999999Y-143999999D03*
X92999999Y-147299999D03*
X167899999Y-147299999D03*
X167899999Y-143999999D03*
X162999999Y-143999999D03*
X162999999Y-147299999D03*
D12*
X136212500Y-42500000D03*
X138287500Y-42500000D03*
D15*
X160499999Y-91899999D03*
X160499999Y-95599999D03*
D12*
X171212500Y-77500000D03*
X173287500Y-77500000D03*
X151262500Y-84500000D03*
X153337500Y-84500000D03*
D11*
X167899999Y-112299999D03*
X167899999Y-108999999D03*
X162999999Y-108999999D03*
X162999999Y-112299999D03*
D12*
X136212500Y-147500000D03*
X138287500Y-147500000D03*
X101212500Y-147500000D03*
X103287500Y-147500000D03*
X206212500Y-147500000D03*
X208287500Y-147500000D03*
X163712500Y-92000000D03*
X165787500Y-92000000D03*
X101212500Y-77500000D03*
X103287500Y-77500000D03*
D10*
X136720000Y-104805000D03*
X134670000Y-104805000D03*
D16*
X139500000Y-95712500D03*
X139500000Y-97787500D03*
D12*
X136212500Y-112500000D03*
X138287500Y-112500000D03*
D11*
X132899999Y-147299999D03*
X132899999Y-143999999D03*
X127999999Y-143999999D03*
X127999999Y-147299999D03*
X132899999Y-77299999D03*
X132899999Y-73999999D03*
X127999999Y-73999999D03*
X127999999Y-77299999D03*
D17*
X132150000Y-101750000D03*
X130150000Y-101750000D03*
D12*
X206212500Y-112500000D03*
X208287500Y-112500000D03*
D11*
X167899999Y-42299999D03*
X167899999Y-38999999D03*
X162999999Y-38999999D03*
X162999999Y-42299999D03*
D17*
X132150000Y-104850000D03*
X130150000Y-104850000D03*
D11*
X97899999Y-112299999D03*
X97899999Y-108999999D03*
X92999999Y-108999999D03*
X92999999Y-112299999D03*
D12*
X101212500Y-42500000D03*
X103287500Y-42500000D03*
D11*
X132899999Y-42299999D03*
X132899999Y-38999999D03*
X127999999Y-38999999D03*
X127999999Y-42299999D03*
D12*
X206212500Y-77500000D03*
X208287500Y-77500000D03*
D17*
X161500000Y-98500000D03*
X159500000Y-98500000D03*
D18*
X178375000Y-102345000D03*
X178375000Y-101075000D03*
X178375000Y-99805000D03*
X178375000Y-98535000D03*
X178375000Y-97265000D03*
X178375000Y-95995000D03*
X178375000Y-94725000D03*
X178375000Y-93455000D03*
X173425000Y-93455000D03*
X173425000Y-94725000D03*
X173425000Y-95995000D03*
X173425000Y-97265000D03*
X173425000Y-98535000D03*
X173425000Y-99805000D03*
X173425000Y-101075000D03*
X173425000Y-102345000D03*
D12*
X171212500Y-112500000D03*
X173287500Y-112500000D03*
D19*
X117525000Y-93555000D03*
X117525000Y-94825000D03*
X117525000Y-96095000D03*
X117525000Y-97365000D03*
X117525000Y-98635000D03*
X117525000Y-99905000D03*
X117525000Y-101175000D03*
X117525000Y-102445000D03*
X122475000Y-102445000D03*
X122475000Y-101175000D03*
X122475000Y-99905000D03*
X122475000Y-98635000D03*
X122475000Y-97365000D03*
X122475000Y-96095000D03*
X122475000Y-94825000D03*
X122475000Y-93555000D03*
D12*
X136212500Y-77500000D03*
X138287500Y-77500000D03*
X148212500Y-102000000D03*
X150287500Y-102000000D03*
D11*
X202899999Y-77299999D03*
X202899999Y-73999999D03*
X197999999Y-73999999D03*
X197999999Y-77299999D03*
D12*
X101212500Y-112500000D03*
X103287500Y-112500000D03*
D11*
X167899999Y-77299999D03*
X167899999Y-73999999D03*
X162999999Y-73999999D03*
X162999999Y-77299999D03*
X132899999Y-112299999D03*
X132899999Y-108999999D03*
X127999999Y-108999999D03*
X127999999Y-112299999D03*
D12*
X171212500Y-147500000D03*
X173287500Y-147500000D03*
D11*
X97899999Y-77299999D03*
X97899999Y-73999999D03*
X92999999Y-73999999D03*
X92999999Y-77299999D03*
X202899999Y-147299999D03*
X202899999Y-143999999D03*
X197999999Y-143999999D03*
X197999999Y-147299999D03*
D12*
X206212500Y-42500000D03*
X208287500Y-42500000D03*
M02*
